<?xml version="1.0" standalone="no"?><!DOCTYPE svg PUBLIC "-//W3C//DTD SVG 1.1//EN" "http://www.w3.org/Graphics/SVG/1.1/DTD/svg11.dtd" ><svg version="1.1" xmlns="http://www.w3.org/2000/svg"><defs><font horiz-adv-x="0" id="font"><font-face ascent="801" bbox="-184 -251 1123 913" cap-height="693" descent="-199" font-family="Publico HeadWeb" font-stretch="normal" font-style="italic" font-weight="800" units-per-em="1000" x-height="509" /><missing-glyph horiz-adv-x="500" /><glyph d="M-41 30 -18 36Q-6 40 3 45Q12 50 21 60.5Q30 71 41 89.5Q52 108 69 138L379 693H486L567 136Q571 108 575 90Q579 72 584 60.5Q589 49 596 43.5Q603 38 612 35L631 30L626 0H290L295 30L324 37Q345 42 357.5 53Q370 64 370 82Q371 95 369 113Q367 131 365 153L358 213H170L138 152Q124 127 115.5 107Q107 87 107 73Q107 58 115 50Q123 42 141 37L166 30L162 0H-47ZM195 260H352L325 495H320Z" glyph-name="A" horiz-adv-x="669" unicode="A" /><glyph d="M295 30 326 37Q338 40 347 43.5Q356 47 363 54.5Q370 62 375 75.5Q380 89 384 113L399 203H196L161 153Q146 131 131.5 109.5Q117 88 115 71Q113 59 119 51Q125 43 143 37L168 30L162 0H-49L-44 30L-21 37Q-9 40 1 45Q11 50 22.5 60.5Q34 71 48.5 89Q63 107 86 138L455 640Q448 646 438.5 649.5Q429 653 418 656L387 663L393 693H933L918 486H887Q875 529 866 553.5Q857 578 849 595Q840 613 830 623Q820 633 808 638.5Q796 644 780.5 645Q765 646 744 646Q715 646 693.5 643Q672 640 661 638L616 382H632Q656 382 672 383.5Q688 385 698 388.5Q708 392 714 397.5Q720 403 726 411Q740 430 749.5 447Q759 464 771 489H802L756 225H724Q722 248 718.5 266.5Q715 285 707 307Q704 316 700 322Q696 328 687 331Q678 334 662 335.5Q646 337 620 337H607L574 142Q568 110 566.5 91Q565 72 572 62.5Q579 53 596 50Q613 47 645 47Q674 47 692.5 49.5Q711 52 725.5 58.5Q740 65 752.5 77.5Q765 90 781 110Q798 131 818.5 162.5Q839 194 868 245H901L842 0H289ZM228 248H407L464 576H462Z" glyph-name="AE" horiz-adv-x="939" unicode="&#198;" /><glyph d="M-41 30 -18 36Q-6 40 3 45Q12 50 21 60.5Q30 71 41 89.5Q52 108 69 138L379 693H486L567 136Q571 108 575 90Q579 72 584 60.5Q589 49 596 43.5Q603 38 612 35L631 30L626 0H290L295 30L324 37Q345 42 357.5 53Q370 64 370 82Q371 95 369 113Q367 131 365 153L358 213H170L138 152Q124 127 115.5 107Q107 87 107 73Q107 58 115 50Q123 42 141 37L166 30L162 0H-47ZM195 260H352L325 495H320ZM338 724 330 743 473 858Q487 869 499.5 875Q512 881 527 881Q553 881 568.5 861.5Q584 842 584 816Q584 797 573 781.5Q562 766 534 761Z" glyph-name="Aacute" horiz-adv-x="669" unicode="&#193;" /><glyph d="M-41 30 -18 36Q-6 40 3 45Q12 50 21 60.5Q30 71 41 89.5Q52 108 69 138L379 693H486L567 136Q571 108 575 90Q579 72 584 60.5Q589 49 596 43.5Q603 38 612 35L631 30L626 0H290L295 30L324 37Q345 42 357.5 53Q370 64 370 82Q371 95 369 113Q367 131 365 153L358 213H170L138 152Q124 127 115.5 107Q107 87 107 73Q107 58 115 50Q123 42 141 37L166 30L162 0H-47ZM195 260H352L325 495H320ZM274 736 432 871H484L592 735L581 718L450 768L284 718Z" glyph-name="Acircumflex" horiz-adv-x="669" unicode="&#194;" /><glyph d="M-41 30 -18 36Q-6 40 3 45Q12 50 21 60.5Q30 71 41 89.5Q52 108 69 138L379 693H486L567 136Q571 108 575 90Q579 72 584 60.5Q589 49 596 43.5Q603 38 612 35L631 30L626 0H290L295 30L324 37Q345 42 357.5 53Q370 64 370 82Q371 95 369 113Q367 131 365 153L358 213H170L138 152Q124 127 115.5 107Q107 87 107 73Q107 58 115 50Q123 42 141 37L166 30L162 0H-47ZM195 260H352L325 495H320ZM332 722Q300 722 276.5 743Q253 764 253 799Q253 834 276.5 856Q300 878 333 878Q366 878 389.5 856.5Q413 835 413 800Q413 765 389.5 743.5Q366 722 332 722ZM548 722Q515 722 491.5 743Q468 764 468 799Q468 834 491.5 856Q515 878 549 878Q581 878 604.5 856.5Q628 835 628 800Q628 765 604.5 743.5Q581 722 548 722Z" glyph-name="Adieresis" horiz-adv-x="669" unicode="&#196;" /><glyph d="M-41 30 -18 36Q-6 40 3 45Q12 50 21 60.5Q30 71 41 89.5Q52 108 69 138L379 693H486L567 136Q571 108 575 90Q579 72 584 60.5Q589 49 596 43.5Q603 38 612 35L631 30L626 0H290L295 30L324 37Q345 42 357.5 53Q370 64 370 82Q371 95 369 113Q367 131 365 153L358 213H170L138 152Q124 127 115.5 107Q107 87 107 73Q107 58 115 50Q123 42 141 37L166 30L162 0H-47ZM195 260H352L325 495H320ZM341 761Q312 766 301.5 781.5Q291 797 291 816Q291 842 306.5 861.5Q322 881 348 881Q362 881 375 875Q388 869 402 858L544 743L535 724Z" glyph-name="Agrave" horiz-adv-x="669" unicode="&#192;" /><glyph d="M-41 30 -18 36Q-6 40 3 45Q12 50 21 60.5Q30 71 41 89.5Q52 108 69 138L379 693H486L567 136Q571 108 575 90Q579 72 584 60.5Q589 49 596 43.5Q603 38 612 35L631 30L626 0H290L295 30L324 37Q345 42 357.5 53Q370 64 370 82Q371 95 369 113Q367 131 365 153L358 213H170L138 152Q124 127 115.5 107Q107 87 107 73Q107 58 115 50Q123 42 141 37L166 30L162 0H-47ZM195 260H352L325 495H320ZM440 719Q396 719 370 745.5Q344 772 344 810Q344 854 373 881Q402 908 443 908Q484 908 511.5 883Q539 858 539 816Q539 772 510.5 745.5Q482 719 440 719ZM441 755Q464 755 478.5 771Q493 787 493 815Q493 840 479.5 856Q466 872 443 872Q420 872 405 855Q390 838 390 811Q390 786 404 770.5Q418 755 441 755Z" glyph-name="Aring" horiz-adv-x="669" unicode="&#197;" /><glyph d="M-41 30 -18 36Q-6 40 3 45Q12 50 21 60.5Q30 71 41 89.5Q52 108 69 138L379 693H486L567 136Q571 108 575 90Q579 72 584 60.5Q589 49 596 43.5Q603 38 612 35L631 30L626 0H290L295 30L324 37Q345 42 357.5 53Q370 64 370 82Q371 95 369 113Q367 131 365 153L358 213H170L138 152Q124 127 115.5 107Q107 87 107 73Q107 58 115 50Q123 42 141 37L166 30L162 0H-47ZM195 260H352L325 495H320ZM279 738Q307 793 331.5 826.5Q356 860 391 860Q410 860 430 856Q450 852 470.5 846.5Q491 841 509.5 837Q528 833 544 833Q559 833 570 841Q581 849 598 872L622 858Q595 802 571.5 769Q548 736 511 736Q492 736 472 740Q452 744 431.5 749.5Q411 755 392.5 759Q374 763 358 763Q343 763 332 755Q321 747 304 724Z" glyph-name="Atilde" horiz-adv-x="669" unicode="&#195;" /><glyph d="M-25 30 6 37Q19 40 27.5 44Q36 48 42 55.5Q48 63 52 76.5Q56 90 60 113L142 580Q146 602 147 615.5Q148 629 144.5 637Q141 645 133.5 649Q126 653 114 656L86 663L91 693H401Q520 693 583 655.5Q646 618 646 542Q646 467 593 425Q540 383 443 369V363Q532 352 577.5 315.5Q623 279 623 210Q623 107 545.5 53.5Q468 0 328 0H-31ZM310 46Q366 46 399 100Q432 154 432 243Q432 296 410 318.5Q388 341 335 341H292L251 108Q246 78 256.5 62Q267 46 310 46ZM339 386Q405 386 433.5 432.5Q462 479 462 557Q462 607 443.5 627Q425 647 390 647Q373 647 362.5 644.5Q352 642 346 640L300 386Z" glyph-name="B" horiz-adv-x="656" unicode="B" /><glyph d="M346 -12Q278 -12 220.5 8Q163 28 121.5 65Q80 102 57 155.5Q34 209 34 276Q34 380 72 460Q110 540 171 594.5Q232 649 309 677Q386 705 463 705Q516 705 562 697Q608 689 636 677L619 473H587Q576 511 563.5 545.5Q551 580 537 603Q517 635 497.5 648.5Q478 662 446 662Q409 662 378.5 640Q348 618 323.5 581.5Q299 545 281.5 497Q264 449 252 396.5Q240 344 234.5 290.5Q229 237 229 190Q229 103 258.5 67Q288 31 351 31Q386 31 413 48Q440 65 465 97Q485 120 507 155.5Q529 191 555 233H587L538 19Q507 8 456.5 -2Q406 -12 346 -12Z" glyph-name="C" horiz-adv-x="613" unicode="C" /><glyph d="M172 -182Q214 -174 237 -162.5Q260 -151 260 -133Q260 -106 215 -103L211 -95L267 -5Q214 5 171.5 29Q129 53 98 89Q67 125 50.5 172Q34 219 34 276Q34 380 72 460Q110 540 171 594.5Q232 649 309 677Q386 705 463 705Q516 705 562 697Q608 689 636 677L619 473H587Q576 511 563.5 545.5Q551 580 537 603Q517 635 497.5 648.5Q478 662 446 662Q409 662 378.5 640Q348 618 323.5 581.5Q299 545 281.5 497Q264 449 252 396.5Q240 344 234.5 290.5Q229 237 229 190Q229 103 258.5 67Q288 31 351 31Q386 31 413 48Q440 65 465 97Q485 120 507 155.5Q529 191 555 233H587L538 19Q507 8 456.5 -2Q406 -12 346 -12Q335 -12 325 -11.5Q315 -11 305 -10L275 -45Q317 -49 335.5 -69Q354 -89 354 -111Q354 -137 338.5 -154Q323 -171 297 -182Q271 -193 237.5 -198.5Q204 -204 169 -205Z" glyph-name="Ccedilla" horiz-adv-x="613" unicode="&#199;" /><glyph d="M-25 30 6 37Q19 40 27.5 43.5Q36 47 42 54.5Q48 62 52 75.5Q56 89 60 113L142 580Q146 603 147 616.5Q148 630 144.5 637.5Q141 645 133.5 649Q126 653 114 656L86 663L91 693H412Q488 693 545.5 673.5Q603 654 641.5 618Q680 582 699.5 531.5Q719 481 719 418Q719 327 686.5 250Q654 173 598.5 117.5Q543 62 470.5 31Q398 0 317 0H-31ZM310 46Q363 46 403.5 81.5Q444 117 471 177.5Q498 238 511.5 317.5Q525 397 525 486Q525 647 405 647Q386 647 370.5 644Q355 641 347 638L259 137Q251 89 260.5 67.5Q270 46 310 46Z" glyph-name="D" horiz-adv-x="721" unicode="D" /><glyph d="M-25 30 6 37Q19 40 27.5 43.5Q36 47 42 54.5Q48 62 52 75.5Q56 89 60 113L142 580Q146 602 147 615.5Q148 629 144.5 637Q141 645 133.5 649Q126 653 114 656L86 663L91 693H627L611 486H580Q568 529 559.5 553.5Q551 578 543 595Q535 611 526 621Q517 631 504.5 636.5Q492 642 475.5 644Q459 646 435 646Q403 646 381 643Q359 640 347 636L303 382H324Q348 382 363.5 383.5Q379 385 389 388.5Q399 392 405.5 397Q412 402 418 410Q432 427 441.5 445.5Q451 464 462 489H493L447 225H416Q414 248 410.5 267.5Q407 287 401 307Q398 316 393 322Q388 328 379 331Q370 334 355 335.5Q340 337 316 337H294L260 142Q255 113 255 94.5Q255 76 262.5 65.5Q270 55 287 51Q304 47 333 47Q363 47 382.5 49.5Q402 52 417 59Q432 66 445 78.5Q458 91 474 110Q493 134 513.5 164.5Q534 195 563 245H597L539 0H-31Z" glyph-name="E" horiz-adv-x="633" unicode="E" /><glyph d="M297 724 289 743 432 858Q446 869 458.5 875Q471 881 486 881Q512 881 527.5 861.5Q543 842 543 816Q543 797 532 781.5Q521 766 493 761ZM-25 30 6 37Q19 40 27.5 43.5Q36 47 42 54.5Q48 62 52 75.5Q56 89 60 113L142 580Q146 602 147 615.5Q148 629 144.5 637Q141 645 133.5 649Q126 653 114 656L86 663L91 693H627L611 486H580Q568 529 559.5 553.5Q551 578 543 595Q535 611 526 621Q517 631 504.5 636.5Q492 642 475.5 644Q459 646 435 646Q403 646 381 643Q359 640 347 636L303 382H324Q348 382 363.5 383.5Q379 385 389 388.5Q399 392 405.5 397Q412 402 418 410Q432 427 441.5 445.5Q451 464 462 489H493L447 225H416Q414 248 410.5 267.5Q407 287 401 307Q398 316 393 322Q388 328 379 331Q370 334 355 335.5Q340 337 316 337H294L260 142Q255 113 255 94.5Q255 76 262.5 65.5Q270 55 287 51Q304 47 333 47Q363 47 382.5 49.5Q402 52 417 59Q432 66 445 78.5Q458 91 474 110Q493 134 513.5 164.5Q534 195 563 245H597L539 0H-31Z" glyph-name="Eacute" horiz-adv-x="633" unicode="&#201;" /><glyph d="M225 736 383 871H435L543 735L532 718L401 768L235 718ZM-25 30 6 37Q19 40 27.5 43.5Q36 47 42 54.5Q48 62 52 75.5Q56 89 60 113L142 580Q146 602 147 615.5Q148 629 144.5 637Q141 645 133.5 649Q126 653 114 656L86 663L91 693H627L611 486H580Q568 529 559.5 553.5Q551 578 543 595Q535 611 526 621Q517 631 504.5 636.5Q492 642 475.5 644Q459 646 435 646Q403 646 381 643Q359 640 347 636L303 382H324Q348 382 363.5 383.5Q379 385 389 388.5Q399 392 405.5 397Q412 402 418 410Q432 427 441.5 445.5Q451 464 462 489H493L447 225H416Q414 248 410.5 267.5Q407 287 401 307Q398 316 393 322Q388 328 379 331Q370 334 355 335.5Q340 337 316 337H294L260 142Q255 113 255 94.5Q255 76 262.5 65.5Q270 55 287 51Q304 47 333 47Q363 47 382.5 49.5Q402 52 417 59Q432 66 445 78.5Q458 91 474 110Q493 134 513.5 164.5Q534 195 563 245H597L539 0H-31Z" glyph-name="Ecircumflex" horiz-adv-x="633" unicode="&#202;" /><glyph d="M-25 30 6 37Q19 40 27.5 43.5Q36 47 42 54.5Q48 62 52 75.5Q56 89 60 113L142 580Q146 602 147 615.5Q148 629 144.5 637Q141 645 133.5 649Q126 653 114 656L86 663L91 693H627L611 486H580Q568 529 559.5 553.5Q551 578 543 595Q535 611 526 621Q517 631 504.5 636.5Q492 642 475.5 644Q459 646 435 646Q403 646 381 643Q359 640 347 636L303 382H324Q348 382 363.5 383.5Q379 385 389 388.5Q399 392 405.5 397Q412 402 418 410Q432 427 441.5 445.5Q451 464 462 489H493L447 225H416Q414 248 410.5 267.5Q407 287 401 307Q398 316 393 322Q388 328 379 331Q370 334 355 335.5Q340 337 316 337H294L260 142Q255 113 255 94.5Q255 76 262.5 65.5Q270 55 287 51Q304 47 333 47Q363 47 382.5 49.5Q402 52 417 59Q432 66 445 78.5Q458 91 474 110Q493 134 513.5 164.5Q534 195 563 245H597L539 0H-31ZM292 722Q260 722 236.5 743Q213 764 213 799Q213 834 236.5 856Q260 878 293 878Q326 878 349.5 856.5Q373 835 373 800Q373 765 349.5 743.5Q326 722 292 722ZM508 722Q475 722 451.5 743Q428 764 428 799Q428 834 451.5 856Q475 878 509 878Q541 878 564.5 856.5Q588 835 588 800Q588 765 564.5 743.5Q541 722 508 722Z" glyph-name="Edieresis" horiz-adv-x="633" unicode="&#203;" /><glyph d="M301 761Q272 766 261.5 781.5Q251 797 251 816Q251 842 266.5 861.5Q282 881 308 881Q322 881 335 875Q348 869 362 858L504 743L495 724ZM-25 30 6 37Q19 40 27.5 43.5Q36 47 42 54.5Q48 62 52 75.5Q56 89 60 113L142 580Q146 602 147 615.5Q148 629 144.5 637Q141 645 133.5 649Q126 653 114 656L86 663L91 693H627L611 486H580Q568 529 559.5 553.5Q551 578 543 595Q535 611 526 621Q517 631 504.5 636.5Q492 642 475.5 644Q459 646 435 646Q403 646 381 643Q359 640 347 636L303 382H324Q348 382 363.5 383.5Q379 385 389 388.5Q399 392 405.5 397Q412 402 418 410Q432 427 441.5 445.5Q451 464 462 489H493L447 225H416Q414 248 410.5 267.5Q407 287 401 307Q398 316 393 322Q388 328 379 331Q370 334 355 335.5Q340 337 316 337H294L260 142Q255 113 255 94.5Q255 76 262.5 65.5Q270 55 287 51Q304 47 333 47Q363 47 382.5 49.5Q402 52 417 59Q432 66 445 78.5Q458 91 474 110Q493 134 513.5 164.5Q534 195 563 245H597L539 0H-31Z" glyph-name="Egrave" horiz-adv-x="633" unicode="&#200;" /><glyph d="M45 369H105L142 580Q146 603 147 616.5Q148 630 144.5 637.5Q141 645 133.5 649Q126 653 114 656L86 663L91 693H412Q488 693 545.5 673.5Q603 654 641.5 618Q680 582 699.5 531.5Q719 481 719 418Q719 326 686.5 249.5Q654 173 598.5 117.5Q543 62 470.5 31Q398 0 317 0H-31L-25 30L6 37Q19 40 27.5 43.5Q36 47 42 54.5Q48 62 52 75.5Q56 89 60 113L97 325H37ZM310 46Q363 46 403.5 81Q444 116 471 176Q498 236 511.5 316Q525 396 525 486Q525 647 405 647Q386 647 370.5 644Q355 641 347 638L299 369H425L416 325H292L259 137Q251 89 260.5 67.5Q270 46 310 46Z" glyph-name="Eth" horiz-adv-x="723" unicode="&#208;" /><glyph d="M45 425H106Q129 491 167 543Q205 595 253 631Q301 667 356.5 686Q412 705 469 705Q554 705 598.5 672Q643 639 643 588Q643 556 624.5 536.5Q606 517 568 517Q545 517 530 521.5Q515 526 505.5 537Q496 548 491.5 567Q487 586 485 615Q484 630 482.5 640Q481 650 477.5 655Q474 660 467.5 662Q461 664 451 664Q422 664 396.5 645Q371 626 350 593Q329 560 313 516.5Q297 473 286 425H493L476 376H277Q271 341 268 305H453L436 256H266V248Q266 200 274.5 166Q283 132 302 110.5Q321 89 351 79.5Q381 70 424 70Q462 70 493 80.5Q524 91 556 106L549 66Q536 54 516.5 40Q497 26 470.5 14.5Q444 3 410.5 -5Q377 -13 335 -13Q217 -13 148 55Q79 123 79 256H15L24 305H81Q83 323 85.5 341Q88 359 92 376H36Z" glyph-name="Euro" horiz-adv-x="604" unicode="&#8364;" /><glyph d="M-25 30 6 37Q18 40 26.5 43.5Q35 47 41 54.5Q47 62 51 75.5Q55 89 60 113L142 580Q146 603 147 616.5Q148 630 144.5 637.5Q141 645 133.5 649Q126 653 114 656L86 663L91 693H627L611 481H579Q573 502 568 518Q563 534 558.5 547Q554 560 549 571Q544 582 538 593Q530 608 522 618.5Q514 629 502.5 635.5Q491 642 473.5 644.5Q456 647 430 647Q398 647 378 644Q358 641 347 638L301 371H317Q344 371 360 372.5Q376 374 386.5 377.5Q397 381 403.5 386.5Q410 392 417 401Q431 419 440.5 437.5Q450 456 463 484H494L446 209H415Q413 235 410 255Q407 275 402 294Q399 304 394 310.5Q389 317 379.5 320.5Q370 324 353.5 325Q337 326 310 326H292L256 113Q251 90 250 76.5Q249 63 252 55.5Q255 48 262.5 44.5Q270 41 283 38L323 30L319 0H-31Z" glyph-name="F" horiz-adv-x="588" unicode="F" /><glyph d="M351 -12Q276 -12 216.5 9Q157 30 116.5 67.5Q76 105 54.5 157.5Q33 210 33 273Q33 378 69 458.5Q105 539 165 594Q225 649 302.5 677Q380 705 462 705Q521 705 572 696Q623 687 651 672L632 469H599Q586 512 574 544.5Q562 577 546 604Q528 636 507.5 649Q487 662 450 662Q413 662 382 641Q351 620 326.5 584Q302 548 284 500Q266 452 253.5 399Q241 346 235 289.5Q229 233 229 181Q229 102 254 66.5Q279 31 341 31Q361 31 375.5 35.5Q390 40 402 48L429 200Q433 222 433.5 236Q434 250 430.5 258Q427 266 419.5 270Q412 274 400 277L373 284L378 314H689L683 284L659 277Q647 274 640 270.5Q633 267 628.5 259.5Q624 252 620.5 238Q617 224 613 200L582 24Q541 9 481 -1.5Q421 -12 351 -12Z" glyph-name="G" horiz-adv-x="680" unicode="G" /><glyph d="M-25 30 6 37Q19 40 27.5 43.5Q36 47 42 54.5Q48 62 52 75.5Q56 89 60 113L142 580Q146 602 147 615.5Q148 629 144.5 637Q141 645 133.5 649Q126 653 114 656L86 663L91 693H427L421 663L391 656Q378 653 370 649.5Q362 646 356 638.5Q350 631 346 617.5Q342 604 338 580L302 379H500L536 580Q540 602 541 615.5Q542 629 538.5 636.5Q535 644 527.5 648Q520 652 508 656L481 663L487 693H822L816 663L784 656Q772 653 763.5 649.5Q755 646 749.5 638.5Q744 631 739.5 617.5Q735 604 731 580L649 113Q645 90 644.5 77Q644 64 647 56Q650 48 656.5 44Q663 40 675 37L705 30L700 0H365L369 30L399 37Q412 40 420.5 43.5Q429 47 435 54.5Q441 62 445 75.5Q449 89 454 113L492 330H294L256 113Q252 90 251 77Q250 64 252.5 56Q255 48 262.5 44Q270 40 282 37L309 30L305 0H-31Z" glyph-name="H" horiz-adv-x="756" unicode="H" /><glyph d="M-25 30 9 37Q22 40 30 43.5Q38 47 44 54.5Q50 62 54 75.5Q58 89 63 113L146 580Q150 602 150.5 615.5Q151 629 148 637Q145 645 137.5 649Q130 653 118 656L86 663L91 693H435L429 663L394 656Q381 653 373 649.5Q365 646 359 638.5Q353 631 349 617.5Q345 604 341 580L259 113Q255 90 254 76.5Q253 63 256 55.5Q259 48 266 44Q273 40 285 37L318 30L313 0H-31Z" glyph-name="I" horiz-adv-x="369" unicode="I" /><glyph d="M-25 30 9 37Q22 40 30 43.5Q38 47 44 54.5Q50 62 54 75.5Q58 89 63 113L146 580Q150 602 150.5 615.5Q151 629 148 637Q145 645 137.5 649Q130 653 118 656L86 663L91 693H435L429 663L394 656Q381 653 373 649.5Q365 646 359 638.5Q353 631 349 617.5Q345 604 341 580L259 113Q255 90 254 76.5Q253 63 256 55.5Q259 48 266 44Q273 40 285 37L318 30L313 0H-31ZM180 724 172 743 315 858Q329 869 341.5 875Q354 881 369 881Q395 881 410.5 861.5Q426 842 426 816Q426 797 415 781.5Q404 766 376 761Z" glyph-name="Iacute" horiz-adv-x="369" unicode="&#205;" /><glyph d="M-25 30 9 37Q22 40 30 43.5Q38 47 44 54.5Q50 62 54 75.5Q58 89 63 113L146 580Q150 602 150.5 615.5Q151 629 148 637Q145 645 137.5 649Q130 653 118 656L86 663L91 693H435L429 663L394 656Q381 653 373 649.5Q365 646 359 638.5Q353 631 349 617.5Q345 604 341 580L259 113Q255 90 254 76.5Q253 63 256 55.5Q259 48 266 44Q273 40 285 37L318 30L313 0H-31ZM108 736 266 871H318L426 735L415 718L284 768L118 718Z" glyph-name="Icircumflex" horiz-adv-x="369" unicode="&#206;" /><glyph d="M-25 30 9 37Q22 40 30 43.5Q38 47 44 54.5Q50 62 54 75.5Q58 89 63 113L146 580Q150 602 150.5 615.5Q151 629 148 637Q145 645 137.5 649Q130 653 118 656L86 663L91 693H435L429 663L394 656Q381 653 373 649.5Q365 646 359 638.5Q353 631 349 617.5Q345 604 341 580L259 113Q255 90 254 76.5Q253 63 256 55.5Q259 48 266 44Q273 40 285 37L318 30L313 0H-31ZM175 722Q143 722 119.5 743Q96 764 96 799Q96 834 119.5 856Q143 878 176 878Q209 878 232.5 856.5Q256 835 256 800Q256 765 232.5 743.5Q209 722 175 722ZM391 722Q358 722 334.5 743Q311 764 311 799Q311 834 334.5 856Q358 878 392 878Q424 878 447.5 856.5Q471 835 471 800Q471 765 447.5 743.5Q424 722 391 722Z" glyph-name="Idieresis" horiz-adv-x="369" unicode="&#207;" /><glyph d="M-25 30 9 37Q22 40 30 43.5Q38 47 44 54.5Q50 62 54 75.5Q58 89 63 113L146 580Q150 602 150.5 615.5Q151 629 148 637Q145 645 137.5 649Q130 653 118 656L86 663L91 693H435L429 663L394 656Q381 653 373 649.5Q365 646 359 638.5Q353 631 349 617.5Q345 604 341 580L259 113Q255 90 254 76.5Q253 63 256 55.5Q259 48 266 44Q273 40 285 37L318 30L313 0H-31ZM184 761Q155 766 144.5 781.5Q134 797 134 816Q134 842 149.5 861.5Q165 881 191 881Q205 881 218 875Q231 869 245 858L387 743L378 724Z" glyph-name="Igrave" horiz-adv-x="369" unicode="&#204;" /><glyph d="M-36 -189Q-107 -189 -145.5 -161Q-184 -133 -184 -89Q-184 -58 -164.5 -39Q-145 -20 -110 -20Q-90 -20 -76 -24Q-62 -28 -53 -39.5Q-44 -51 -39.5 -71Q-35 -91 -33 -123Q-32 -137 -28.5 -141.5Q-25 -146 -16 -146Q-2 -146 8.5 -131Q19 -116 27 -71L142 580Q146 602 147 615.5Q148 629 144.5 637Q141 645 133.5 649Q126 653 114 656L86 663L91 693H429L423 663L391 656Q378 653 370 649.5Q362 646 356 638.5Q350 631 346 617.5Q342 604 338 580L249 78Q239 22 215.5 -26.5Q192 -75 155.5 -111Q119 -147 70.5 -168Q22 -189 -36 -189Z" glyph-name="J" horiz-adv-x="366" unicode="J" /><glyph d="M134 -13Q63 -13 24.5 15.5Q-14 44 -14 88Q-14 118 5.5 137.5Q25 157 60 157Q80 157 94 153Q108 149 117 137.5Q126 126 130.5 106Q135 86 137 54Q138 40 141.5 35Q145 30 154 30Q168 30 178.5 45Q189 60 197 105L281 580Q285 602 285.5 615.5Q286 629 283 637Q280 645 272.5 649Q265 653 253 656L224 663L230 693H567L561 663L529 656Q516 653 508 649.5Q500 646 494.5 638.5Q489 631 484.5 617.5Q480 604 476 580L419 254Q396 126 327 56.5Q258 -13 134 -13Z" glyph-name="J.alt" horiz-adv-x="500" /><glyph d="M441 0Q422 38 404 79.5Q386 121 369.5 164Q353 207 338.5 249Q324 291 314 329L318 350L515 540Q545 570 561.5 590.5Q578 611 578 625Q578 646 547 655L522 663L528 693H765L760 663L743 659Q726 654 711.5 646.5Q697 639 681.5 627.5Q666 616 648 600Q630 584 606 562L469 436Q485 388 504 336Q523 284 542.5 234.5Q562 185 582 141Q602 97 619 64Q626 50 634.5 46Q643 42 658 37L679 30L675 0ZM-25 30 6 37Q19 40 27.5 43.5Q36 47 42 54.5Q48 62 52 75.5Q56 89 60 113L142 580Q146 602 147 615.5Q148 629 144.5 637Q141 645 133.5 649Q126 653 114 656L86 663L91 693H427L421 663L391 656Q378 653 370 649.5Q362 646 356 638.5Q350 631 346 617.5Q342 604 338 580L256 113Q252 90 251 77Q250 64 252.5 56Q255 48 262.5 44Q270 40 282 37L309 30L305 0H-31Z" glyph-name="K" horiz-adv-x="729" unicode="K" /><glyph d="M-25 30 6 37Q19 40 27.5 43.5Q36 47 42 54.5Q48 62 52 75.5Q56 89 60 113L142 580Q146 602 147 615.5Q148 629 144.5 637Q141 645 133.5 649Q126 653 114 656L86 663L91 693H436L431 663L392 655Q380 652 371.5 649Q363 646 357 638.5Q351 631 346.5 617.5Q342 604 338 580L259 133Q254 109 253.5 92Q253 75 259.5 65Q266 55 281.5 50.5Q297 46 324 46Q352 46 371.5 49Q391 52 406 59.5Q421 67 432.5 78Q444 89 458 106Q468 119 478 133Q488 147 498.5 164.5Q509 182 521.5 203.5Q534 225 550 252H584L530 0H-31Z" glyph-name="L" horiz-adv-x="597" unicode="L" /><glyph d="M2 276 94 307 142 580Q146 602 147 615.5Q148 629 144.5 637Q141 645 133.5 649Q126 653 114 656L86 663L91 693H436L431 663L392 655Q380 652 371.5 649Q363 646 357 638.5Q351 631 346.5 617.5Q342 604 338 580L302 377L484 438L476 389L293 327L259 133Q254 109 253.5 92Q253 75 259.5 65Q266 55 281.5 50.5Q297 46 324 46Q352 46 371.5 49Q391 52 406 59.5Q421 67 432.5 78Q444 89 458 106Q468 119 478 133Q488 147 498.5 164.5Q509 182 521.5 203.5Q534 225 550 252H584L530 0H-31L-25 30L6 37Q19 40 27.5 43.5Q36 47 42 54.5Q48 62 52 75.5Q56 89 60 113L85 257L-6 227Z" glyph-name="Lslash" horiz-adv-x="597" unicode="&#321;" /><glyph d="M-25 30 4 37Q18 41 27.5 46Q37 51 44 62Q51 73 55.5 91Q60 109 65 138L142 580Q146 602 147 615.5Q148 629 144.5 637Q141 645 133.5 649Q126 653 114 656L86 663L91 693H377L434 299H438L634 693H930L925 663L892 656Q880 653 871.5 649.5Q863 646 857.5 638.5Q852 631 847.5 617.5Q843 604 839 580L757 113Q753 90 752.5 77Q752 64 755 56Q758 48 765 44Q772 40 783 37L813 30L808 0H471L476 30L507 37Q520 40 528.5 43.5Q537 47 543 54.5Q549 62 553 75.5Q557 89 562 113L646 594H642L357 15H290L202 594H198L116 129Q111 101 110 84.5Q109 68 112.5 58.5Q116 49 124.5 44.5Q133 40 147 37L173 30L169 0H-31Z" glyph-name="M" horiz-adv-x="864" unicode="M" /><glyph d="M200 585H196L116 129Q111 101 110 84.5Q109 68 112.5 58.5Q116 49 125.5 44.5Q135 40 150 37L180 30L175 0H-31L-25 30L4 37Q19 41 28 46.5Q37 52 43.5 62.5Q50 73 54.5 90Q59 107 64 134L142 580Q146 602 147 615.5Q148 629 144.5 637Q141 645 133.5 649Q126 653 114 656L86 663L91 693H356L549 297H552L598 564Q603 591 604 607.5Q605 624 601.5 633.5Q598 643 589.5 647.5Q581 652 566 655L532 663L538 693H746L740 663L710 656Q696 653 687 648.5Q678 644 672 634Q666 624 661 605.5Q656 587 651 556L553 -1H482Z" glyph-name="N" horiz-adv-x="677" unicode="N" /><glyph d="M299 738Q327 793 351.5 826.5Q376 860 411 860Q430 860 450 856Q470 852 490.5 846.5Q511 841 529.5 837Q548 833 564 833Q579 833 590 841Q601 849 618 872L642 858Q615 802 591.5 769Q568 736 531 736Q512 736 492 740Q472 744 451.5 749.5Q431 755 412.5 759Q394 763 378 763Q363 763 352 755Q341 747 324 724ZM200 585H196L116 129Q111 101 110 84.5Q109 68 112.5 58.5Q116 49 125.5 44.5Q135 40 150 37L180 30L175 0H-31L-25 30L4 37Q19 41 28 46.5Q37 52 43.5 62.5Q50 73 54.5 90Q59 107 64 134L142 580Q146 602 147 615.5Q148 629 144.5 637Q141 645 133.5 649Q126 653 114 656L86 663L91 693H356L549 297H552L598 564Q603 591 604 607.5Q605 624 601.5 633.5Q598 643 589.5 647.5Q581 652 566 655L532 663L538 693H746L740 663L710 656Q696 653 687 648.5Q678 644 672 634Q666 624 661 605.5Q656 587 651 556L553 -1H482Z" glyph-name="Ntilde" horiz-adv-x="677" unicode="&#209;" /><glyph d="M322 -13Q261 -13 208.5 7.5Q156 28 117 66Q78 104 55.5 158Q33 212 33 278Q33 377 68 456Q103 535 159.5 590.5Q216 646 286.5 675.5Q357 705 428 705Q488 705 540.5 686.5Q593 668 633 632Q673 596 696 542.5Q719 489 719 419Q719 317 683.5 236.5Q648 156 591.5 100.5Q535 45 464 16Q393 -13 322 -13ZM326 30Q356 30 382.5 49.5Q409 69 431 102.5Q453 136 470 180.5Q487 225 499 275Q511 325 517 378Q523 431 523 481Q523 569 502 615.5Q481 662 426 662Q395 662 368 641.5Q341 621 319 587Q297 553 280 507Q263 461 251 411Q239 361 233 308.5Q227 256 227 208Q227 166 231.5 133Q236 100 247 77Q258 54 277.5 42Q297 30 326 30Z" glyph-name="O" horiz-adv-x="720" unicode="O" /><glyph d="M352 0Q278 0 219 18.5Q160 37 119 73Q78 109 55.5 160.5Q33 212 33 278Q33 378 67.5 455Q102 532 160 585Q218 638 295 665.5Q372 693 457 693H989L972 486H941Q930 529 921.5 553.5Q913 578 904 595Q896 611 887 621Q878 631 865.5 636.5Q853 642 836.5 644Q820 646 796 646Q764 646 742 643Q720 640 709 636L664 382H685Q709 382 725 383.5Q741 385 751 388.5Q761 392 767 397Q773 402 779 410Q793 427 802.5 445.5Q812 464 824 489H854L808 225H777Q775 248 772 267.5Q769 287 762 307Q759 316 754 322Q749 328 740 331Q731 334 716 335.5Q701 337 677 337H655L621 142Q616 113 616 94.5Q616 76 623.5 65.5Q631 55 648 51Q665 47 694 47Q724 47 744 49.5Q764 52 779 59Q794 66 807 78.5Q820 91 835 110Q855 134 875 164.5Q895 195 924 245H958L900 0ZM443 651Q405 651 374 631Q343 611 319 577Q295 543 278 498.5Q261 454 249.5 404.5Q238 355 232.5 304.5Q227 254 227 208Q227 121 260.5 81.5Q294 42 349 42Q367 42 379.5 46.5Q392 51 400 61.5Q408 72 413.5 89Q419 106 424 132L499 557Q507 603 498 627Q489 651 443 651Z" glyph-name="OE" horiz-adv-x="994" unicode="&#338;" /><glyph d="M350 724 342 743 485 858Q499 869 511.5 875Q524 881 539 881Q565 881 580.5 861.5Q596 842 596 816Q596 797 585 781.5Q574 766 546 761ZM322 -13Q261 -13 208.5 7.5Q156 28 117 66Q78 104 55.5 158Q33 212 33 278Q33 377 68 456Q103 535 159.5 590.5Q216 646 286.5 675.5Q357 705 428 705Q488 705 540.5 686.5Q593 668 633 632Q673 596 696 542.5Q719 489 719 419Q719 317 683.5 236.5Q648 156 591.5 100.5Q535 45 464 16Q393 -13 322 -13ZM326 30Q356 30 382.5 49.5Q409 69 431 102.5Q453 136 470 180.5Q487 225 499 275Q511 325 517 378Q523 431 523 481Q523 569 502 615.5Q481 662 426 662Q395 662 368 641.5Q341 621 319 587Q297 553 280 507Q263 461 251 411Q239 361 233 308.5Q227 256 227 208Q227 166 231.5 133Q236 100 247 77Q258 54 277.5 42Q297 30 326 30Z" glyph-name="Oacute" horiz-adv-x="720" unicode="&#211;" /><glyph d="M277 736 435 871H487L595 735L584 718L453 768L287 718ZM322 -13Q261 -13 208.5 7.5Q156 28 117 66Q78 104 55.5 158Q33 212 33 278Q33 377 68 456Q103 535 159.5 590.5Q216 646 286.5 675.5Q357 705 428 705Q488 705 540.5 686.5Q593 668 633 632Q673 596 696 542.5Q719 489 719 419Q719 317 683.5 236.5Q648 156 591.5 100.5Q535 45 464 16Q393 -13 322 -13ZM326 30Q356 30 382.5 49.5Q409 69 431 102.5Q453 136 470 180.5Q487 225 499 275Q511 325 517 378Q523 431 523 481Q523 569 502 615.5Q481 662 426 662Q395 662 368 641.5Q341 621 319 587Q297 553 280 507Q263 461 251 411Q239 361 233 308.5Q227 256 227 208Q227 166 231.5 133Q236 100 247 77Q258 54 277.5 42Q297 30 326 30Z" glyph-name="Ocircumflex" horiz-adv-x="720" unicode="&#212;" /><glyph d="M344 722Q312 722 288.5 743Q265 764 265 799Q265 834 288.5 856Q312 878 345 878Q378 878 401.5 856.5Q425 835 425 800Q425 765 401.5 743.5Q378 722 344 722ZM560 722Q527 722 503.5 743Q480 764 480 799Q480 834 503.5 856Q527 878 561 878Q593 878 616.5 856.5Q640 835 640 800Q640 765 616.5 743.5Q593 722 560 722ZM322 -13Q261 -13 208.5 7.5Q156 28 117 66Q78 104 55.5 158Q33 212 33 278Q33 377 68 456Q103 535 159.5 590.5Q216 646 286.5 675.5Q357 705 428 705Q488 705 540.5 686.5Q593 668 633 632Q673 596 696 542.5Q719 489 719 419Q719 317 683.5 236.5Q648 156 591.5 100.5Q535 45 464 16Q393 -13 322 -13ZM326 30Q356 30 382.5 49.5Q409 69 431 102.5Q453 136 470 180.5Q487 225 499 275Q511 325 517 378Q523 431 523 481Q523 569 502 615.5Q481 662 426 662Q395 662 368 641.5Q341 621 319 587Q297 553 280 507Q263 461 251 411Q239 361 233 308.5Q227 256 227 208Q227 166 231.5 133Q236 100 247 77Q258 54 277.5 42Q297 30 326 30Z" glyph-name="Odieresis" horiz-adv-x="720" unicode="&#214;" /><glyph d="M353 761Q324 766 313.5 781.5Q303 797 303 816Q303 842 318.5 861.5Q334 881 360 881Q374 881 387 875Q400 869 414 858L556 743L547 724ZM322 -13Q261 -13 208.5 7.5Q156 28 117 66Q78 104 55.5 158Q33 212 33 278Q33 377 68 456Q103 535 159.5 590.5Q216 646 286.5 675.5Q357 705 428 705Q488 705 540.5 686.5Q593 668 633 632Q673 596 696 542.5Q719 489 719 419Q719 317 683.5 236.5Q648 156 591.5 100.5Q535 45 464 16Q393 -13 322 -13ZM326 30Q356 30 382.5 49.5Q409 69 431 102.5Q453 136 470 180.5Q487 225 499 275Q511 325 517 378Q523 431 523 481Q523 569 502 615.5Q481 662 426 662Q395 662 368 641.5Q341 621 319 587Q297 553 280 507Q263 461 251 411Q239 361 233 308.5Q227 256 227 208Q227 166 231.5 133Q236 100 247 77Q258 54 277.5 42Q297 30 326 30Z" glyph-name="Ograve" horiz-adv-x="720" unicode="&#210;" /><glyph d="M33 278Q33 377 68 456Q103 535 159.5 590.5Q216 646 286.5 675.5Q357 705 428 705Q509 705 575 671L616 730H670L613 648Q661 612 690 554.5Q719 497 719 419Q719 317 683.5 236.5Q648 156 591.5 100.5Q535 45 464 16Q393 -13 322 -13Q243 -13 178 21L119 -64H64L140 46Q90 84 61.5 143Q33 202 33 278ZM219 208Q219 195 219 183.5Q219 172 220 161L519 590Q508 625 485.5 643.5Q463 662 426 662Q395 662 367.5 641.5Q340 621 317 587Q294 553 275.5 507Q257 461 244.5 411Q232 361 225.5 308.5Q219 256 219 208ZM326 30Q356 30 383.5 49.5Q411 69 433.5 102.5Q456 136 474 180.5Q492 225 505 275Q518 325 524.5 378Q531 431 531 481Q531 493 530.5 504.5Q530 516 529 527L232 98Q243 65 265.5 47.5Q288 30 326 30Z" glyph-name="Oslash" horiz-adv-x="720" unicode="&#216;" /><glyph d="M291 738Q319 793 343.5 826.5Q368 860 403 860Q422 860 442 856Q462 852 482.5 846.5Q503 841 521.5 837Q540 833 556 833Q571 833 582 841Q593 849 610 872L634 858Q607 802 583.5 769Q560 736 523 736Q504 736 484 740Q464 744 443.5 749.5Q423 755 404.5 759Q386 763 370 763Q355 763 344 755Q333 747 316 724ZM322 -13Q261 -13 208.5 7.5Q156 28 117 66Q78 104 55.5 158Q33 212 33 278Q33 377 68 456Q103 535 159.5 590.5Q216 646 286.5 675.5Q357 705 428 705Q488 705 540.5 686.5Q593 668 633 632Q673 596 696 542.5Q719 489 719 419Q719 317 683.5 236.5Q648 156 591.5 100.5Q535 45 464 16Q393 -13 322 -13ZM326 30Q356 30 382.5 49.5Q409 69 431 102.5Q453 136 470 180.5Q487 225 499 275Q511 325 517 378Q523 431 523 481Q523 569 502 615.5Q481 662 426 662Q395 662 368 641.5Q341 621 319 587Q297 553 280 507Q263 461 251 411Q239 361 233 308.5Q227 256 227 208Q227 166 231.5 133Q236 100 247 77Q258 54 277.5 42Q297 30 326 30Z" glyph-name="Otilde" horiz-adv-x="720" unicode="&#213;" /><glyph d="M-25 30 6 37Q19 40 27.5 43.5Q36 47 42 54.5Q48 62 52 75.5Q56 89 60 113L142 580Q146 603 147 616Q148 629 145 636.5Q142 644 135 648Q128 652 116 655L86 663L91 693H410Q540 693 604.5 646.5Q669 600 669 509Q669 461 652 418.5Q635 376 602.5 343.5Q570 311 523 292Q476 273 416 273Q383 273 356 279Q329 285 314 292L321 324Q400 316 439 370Q478 424 478 548Q478 606 459.5 626.5Q441 647 401 647Q386 647 370.5 644Q355 641 348 639L256 113Q252 90 251 77Q250 64 253 56.5Q256 49 263.5 45.5Q271 42 284 39L321 30L316 0H-31Z" glyph-name="P" horiz-adv-x="649" unicode="P" /><glyph d="M506 -175Q452 -175 409.5 -157Q367 -139 325 -105Q315 -97 301 -84Q287 -71 272 -56Q257 -41 241 -24.5Q225 -8 210 7Q172 21 140 46.5Q108 72 84 107Q60 142 46.5 186Q33 230 33 281Q33 380 69 458.5Q105 537 162 592Q219 647 290 676Q361 705 432 705Q489 705 540.5 686.5Q592 668 632 631.5Q672 595 695.5 541Q719 487 719 416Q719 335 694 268.5Q669 202 628 152Q587 102 534.5 68.5Q482 35 426 19V16Q458 -21 504 -56Q533 -79 560 -86Q587 -93 610 -93Q632 -93 653 -87.5Q674 -82 690 -75L687 -103Q676 -113 658 -125.5Q640 -138 616.5 -149Q593 -160 565 -167.5Q537 -175 506 -175ZM326 29Q356 29 382 48.5Q408 68 430 101.5Q452 135 469 180Q486 225 498 276Q510 327 516.5 380.5Q523 434 523 486Q523 571 502 616.5Q481 662 426 662Q395 662 368.5 641.5Q342 621 320 586.5Q298 552 280.5 506.5Q263 461 251 410.5Q239 360 233 307.5Q227 255 227 207Q227 124 248 76.5Q269 29 326 29Z" glyph-name="Q" horiz-adv-x="720" unicode="Q" /><glyph d="M-25 30 6 37Q19 40 27.5 43.5Q36 47 42 54Q48 61 52 75Q56 89 60 113L142 580Q146 602 147 615.5Q148 629 144.5 637Q141 645 133.5 649Q126 653 114 656L86 663L91 693H408Q478 693 528 681Q578 669 610 646.5Q642 624 657 592Q672 560 672 521Q672 449 630 403Q588 357 517 338V333Q527 299 539.5 262.5Q552 226 566 190Q580 154 595 121Q610 88 625 62Q631 51 637.5 46Q644 41 661 35L674 30L670 0H447Q432 30 416 68Q400 106 385.5 146Q371 186 359 225.5Q347 265 340 298H287L255 113Q251 90 250 76.5Q249 63 251.5 55.5Q254 48 261 44Q268 40 279 37L309 30L305 0H-31ZM342 340Q381 340 407.5 357Q434 374 450.5 403Q467 432 474 470.5Q481 509 481 551Q481 605 461.5 626Q442 647 400 647Q382 647 368 644.5Q354 642 347 640L294 343Q299 342 312 341Q325 340 342 340Z" glyph-name="R" horiz-adv-x="706" unicode="R" /><glyph d="M-25 30 6 37Q19 40 27.5 43.5Q36 47 42 54Q48 61 52 75Q56 89 60 113L142 580Q146 602 147 615.5Q148 629 144.5 637Q141 645 133.5 649Q126 653 114 656L86 663L91 693H407Q476 693 525 682Q574 671 605 650Q636 629 650 599Q664 569 664 530Q664 368 443 336V332Q476 324 501 308Q526 292 545 264Q561 243 573 215.5Q585 188 594 159.5Q603 131 610.5 105.5Q618 80 626 62Q631 49 636.5 44Q642 39 655 35L670 30L666 0H436Q424 51 415 112.5Q406 174 388 249Q378 286 361 297Q344 308 317 308H289L255 113Q251 90 250 76.5Q249 63 251.5 55.5Q254 48 261 44Q268 40 279 37L309 30L305 0H-31ZM341 348Q410 348 442.5 403Q475 458 475 558Q475 605 458.5 626Q442 647 400 647Q381 647 367.5 644.5Q354 642 347 640L296 352Q301 350 313.5 349Q326 348 341 348Z" glyph-name="R.alt" horiz-adv-x="710" /><glyph d="M200 -13Q170 -13 140 -9.5Q110 -6 83 0Q56 6 34 13.5Q12 21 -2 29L15 216H48Q63 174 76 144.5Q89 115 104 91Q121 62 146.5 46.5Q172 31 210 31Q268 31 297.5 63.5Q327 96 327 143Q327 162 321.5 178.5Q316 195 302.5 211Q289 227 267.5 242.5Q246 258 213 275Q133 317 100 364Q67 411 67 474Q67 524 88 566.5Q109 609 146.5 639.5Q184 670 234.5 687.5Q285 705 344 705Q406 705 447 696Q488 687 514 675L498 508H467Q453 545 442 570Q431 595 415 619Q401 639 381 651Q361 663 323 663Q273 663 245 635Q217 607 217 561Q217 523 242 495Q267 467 322 438Q367 414 399.5 391Q432 368 453 343Q474 318 484 289.5Q494 261 494 227Q494 178 472 134.5Q450 91 411 58Q372 25 318 6Q264 -13 200 -13Z" glyph-name="S" horiz-adv-x="521" unicode="S" /><glyph d="M520 864 368 728H316L202 864L213 882L350 832L510 882ZM200 -13Q170 -13 140 -9.5Q110 -6 83 0Q56 6 34 13.5Q12 21 -2 29L15 216H48Q63 174 76 144.5Q89 115 104 91Q121 62 146.5 46.5Q172 31 210 31Q268 31 297.5 63.5Q327 96 327 143Q327 162 321.5 178.5Q316 195 302.5 211Q289 227 267.5 242.5Q246 258 213 275Q133 317 100 364Q67 411 67 474Q67 524 88 566.5Q109 609 146.5 639.5Q184 670 234.5 687.5Q285 705 344 705Q406 705 447 696Q488 687 514 675L498 508H467Q453 545 442 570Q431 595 415 619Q401 639 381 651Q361 663 323 663Q273 663 245 635Q217 607 217 561Q217 523 242 495Q267 467 322 438Q367 414 399.5 391Q432 368 453 343Q474 318 484 289.5Q494 261 494 227Q494 178 472 134.5Q450 91 411 58Q372 25 318 6Q264 -13 200 -13Z" glyph-name="Scaron" horiz-adv-x="521" unicode="&#352;" /><glyph d="M101 30 137 37Q151 40 160 43.5Q169 47 175 54.5Q181 62 185 75.5Q189 89 194 113L287 647H280Q261 647 248.5 645.5Q236 644 226 640Q216 636 207.5 629Q199 622 189 611Q160 580 134.5 538.5Q109 497 77 443H45L97 693H685L652 443H619Q606 497 595.5 537.5Q585 578 569 609Q563 621 557 628.5Q551 636 542 640Q533 644 520.5 645.5Q508 647 489 647H482L388 113Q384 90 383.5 76.5Q383 63 386 55.5Q389 48 396.5 44Q404 40 417 37L450 30L445 0H97Z" glyph-name="T" horiz-adv-x="631" unicode="T" /><glyph d="M255 113Q250 90 250 76.5Q250 63 253.5 55.5Q257 48 264.5 45Q272 42 284 40L333 30L329 0H-34L-29 30L6 37Q18 40 26 43Q34 46 40 53.5Q46 61 50.5 75Q55 89 59 113L142 580Q146 604 146.5 617.5Q147 631 143.5 638.5Q140 646 133 649.5Q126 653 114 656L83 663L88 693H431L425 663L391 656Q378 653 369.5 649.5Q361 646 355 638.5Q349 631 345 617.5Q341 604 337 580L332 554H386Q651 554 651 379Q651 333 633.5 291.5Q616 250 583 219Q550 188 502 169.5Q454 151 393 151Q360 151 332 157Q304 163 290 169L296 200Q375 192 415.5 244Q456 296 456 416Q456 471 437 491.5Q418 512 377 512Q362 512 346 509Q330 506 323 504L255 113Z" glyph-name="Thorn" horiz-adv-x="656" unicode="&#222;" /><glyph d="M349 -13Q284 -13 229 1.5Q174 16 136.5 48.5Q99 81 83 133Q67 185 81 259L138 580Q142 602 143 615.5Q144 629 140.5 637Q137 645 129.5 649Q122 653 110 656L82 663L87 693H424L419 663L386 656Q374 653 365.5 649.5Q357 646 351.5 638.5Q346 631 342 617.5Q338 604 334 580L270 221Q256 138 284.5 96.5Q313 55 393 55Q467 55 502 92Q537 129 550 202L614 564Q619 593 620 609.5Q621 626 617 635Q613 644 604 648Q595 652 580 655L548 663L554 693H761L755 663L724 656Q712 653 703.5 649.5Q695 646 688.5 636Q682 626 676.5 608.5Q671 591 666 560L601 190Q593 146 574 108.5Q555 71 524.5 44Q494 17 450 2Q406 -13 349 -13Z" glyph-name="U" horiz-adv-x="691" unicode="U" /><glyph d="M398 724 390 743 533 858Q547 869 559.5 875Q572 881 587 881Q613 881 628.5 861.5Q644 842 644 816Q644 797 633 781.5Q622 766 594 761ZM349 -13Q284 -13 229 1.5Q174 16 136.5 48.5Q99 81 83 133Q67 185 81 259L138 580Q142 602 143 615.5Q144 629 140.5 637Q137 645 129.5 649Q122 653 110 656L82 663L87 693H424L419 663L386 656Q374 653 365.5 649.5Q357 646 351.5 638.5Q346 631 342 617.5Q338 604 334 580L270 221Q256 138 284.5 96.5Q313 55 393 55Q467 55 502 92Q537 129 550 202L614 564Q619 593 620 609.5Q621 626 617 635Q613 644 604 648Q595 652 580 655L548 663L554 693H761L755 663L724 656Q712 653 703.5 649.5Q695 646 688.5 636Q682 626 676.5 608.5Q671 591 666 560L601 190Q593 146 574 108.5Q555 71 524.5 44Q494 17 450 2Q406 -13 349 -13Z" glyph-name="Uacute" horiz-adv-x="691" unicode="&#218;" /><glyph d="M325 736 483 871H535L643 735L632 718L501 768L335 718ZM349 -13Q284 -13 229 1.5Q174 16 136.5 48.5Q99 81 83 133Q67 185 81 259L138 580Q142 602 143 615.5Q144 629 140.5 637Q137 645 129.5 649Q122 653 110 656L82 663L87 693H424L419 663L386 656Q374 653 365.5 649.5Q357 646 351.5 638.5Q346 631 342 617.5Q338 604 334 580L270 221Q256 138 284.5 96.5Q313 55 393 55Q467 55 502 92Q537 129 550 202L614 564Q619 593 620 609.5Q621 626 617 635Q613 644 604 648Q595 652 580 655L548 663L554 693H761L755 663L724 656Q712 653 703.5 649.5Q695 646 688.5 636Q682 626 676.5 608.5Q671 591 666 560L601 190Q593 146 574 108.5Q555 71 524.5 44Q494 17 450 2Q406 -13 349 -13Z" glyph-name="Ucircumflex" horiz-adv-x="691" unicode="&#219;" /><glyph d="M349 -13Q284 -13 229 1.5Q174 16 136.5 48.5Q99 81 83 133Q67 185 81 259L138 580Q142 602 143 615.5Q144 629 140.5 637Q137 645 129.5 649Q122 653 110 656L82 663L87 693H424L419 663L386 656Q374 653 365.5 649.5Q357 646 351.5 638.5Q346 631 342 617.5Q338 604 334 580L270 221Q256 138 284.5 96.5Q313 55 393 55Q467 55 502 92Q537 129 550 202L614 564Q619 593 620 609.5Q621 626 617 635Q613 644 604 648Q595 652 580 655L548 663L554 693H761L755 663L724 656Q712 653 703.5 649.5Q695 646 688.5 636Q682 626 676.5 608.5Q671 591 666 560L601 190Q593 146 574 108.5Q555 71 524.5 44Q494 17 450 2Q406 -13 349 -13ZM392 722Q360 722 336.5 743Q313 764 313 799Q313 834 336.5 856Q360 878 393 878Q426 878 449.5 856.5Q473 835 473 800Q473 765 449.5 743.5Q426 722 392 722ZM608 722Q575 722 551.5 743Q528 764 528 799Q528 834 551.5 856Q575 878 609 878Q641 878 664.5 856.5Q688 835 688 800Q688 765 664.5 743.5Q641 722 608 722Z" glyph-name="Udieresis" horiz-adv-x="691" unicode="&#220;" /><glyph d="M401 761Q372 766 361.5 781.5Q351 797 351 816Q351 842 366.5 861.5Q382 881 408 881Q422 881 435 875Q448 869 462 858L604 743L595 724ZM349 -13Q284 -13 229 1.5Q174 16 136.5 48.5Q99 81 83 133Q67 185 81 259L138 580Q142 602 143 615.5Q144 629 140.5 637Q137 645 129.5 649Q122 653 110 656L82 663L87 693H424L419 663L386 656Q374 653 365.5 649.5Q357 646 351.5 638.5Q346 631 342 617.5Q338 604 334 580L270 221Q256 138 284.5 96.5Q313 55 393 55Q467 55 502 92Q537 129 550 202L614 564Q619 593 620 609.5Q621 626 617 635Q613 644 604 648Q595 652 580 655L548 663L554 693H761L755 663L724 656Q712 653 703.5 649.5Q695 646 688.5 636Q682 626 676.5 608.5Q671 591 666 560L601 190Q593 146 574 108.5Q555 71 524.5 44Q494 17 450 2Q406 -13 349 -13Z" glyph-name="Ugrave" horiz-adv-x="691" unicode="&#217;" /><glyph d="M137 557Q132 583 128.5 601Q125 619 120.5 630.5Q116 642 109 648.5Q102 655 91 658L71 663L77 693H415L409 663L378 656Q333 646 333 600Q333 588 335 572.5Q337 557 339 540L385 198H390L562 541Q576 568 583 588.5Q590 609 590 624Q590 648 557 657L532 663L538 693H752L746 663L725 657Q712 653 702.5 647Q693 641 683 629.5Q673 618 662.5 600Q652 582 637 555L341 0H232Z" glyph-name="V" horiz-adv-x="672" unicode="V" /><glyph d="M141 568Q138 593 134.5 609.5Q131 626 126.5 636Q122 646 114.5 651Q107 656 96 658L74 663L80 693H407L402 663L381 658Q359 652 348 638.5Q337 625 337 599Q337 587 338 570.5Q339 554 341 540L377 209H381L518 488L507 586Q503 618 495 635Q487 652 468 657L448 663L454 693H782L776 663L746 656Q720 650 709.5 635Q699 620 699 594Q699 583 700 569.5Q701 556 703 540L736 209H741L899 541Q910 564 918.5 586.5Q927 609 927 627Q927 641 918 648Q909 655 891 659L869 663L874 693H1084L1078 663L1060 658Q1048 654 1038 646.5Q1028 639 1017 625.5Q1006 612 994 592Q982 572 967 544L687 0H572L530 397H527L329 0H212Z" glyph-name="W" horiz-adv-x="1006" unicode="W" /><glyph d="M-31 30 -16 34Q-4 37 7 42Q18 47 31 57Q44 67 59.5 82.5Q75 98 96 124L269 331L165 584Q158 600 152.5 611.5Q147 623 140.5 631Q134 639 126 645Q118 651 106 656L90 663L95 693H446L440 663L403 655Q387 652 376 642.5Q365 633 365 616Q365 606 368.5 593Q372 580 382 554L431 425H434L532 556Q552 581 558.5 597.5Q565 614 565 628Q565 640 557.5 646Q550 652 533 657L508 663L513 693H741L735 663L717 658Q704 654 693.5 648.5Q683 643 672 633Q661 623 646.5 606.5Q632 590 611 565L457 376L569 110Q579 87 586 73.5Q593 60 600 52.5Q607 45 613.5 41.5Q620 38 628 35L641 30L637 0H291L296 30L331 36Q346 39 358 49Q370 59 370 75Q370 97 353 138L295 285H292L186 146Q165 118 153.5 98Q142 78 142 63Q142 53 148 46.5Q154 40 169 36L198 30L194 0H-37Z" glyph-name="X" horiz-adv-x="690" unicode="X" /><glyph d="M108 30 143 37Q157 40 166 43.5Q175 47 181 54.5Q187 62 191 75.5Q195 89 200 113L231 290L148 572Q140 596 134.5 611Q129 626 123 635Q117 644 110.5 649Q104 654 94 657L76 663L82 693H416L411 663L380 656Q335 646 335 605Q335 595 337.5 580.5Q340 566 348 540L401 352H405L526 545Q543 572 550.5 587.5Q558 603 558 620Q558 634 550 642.5Q542 651 522 656L499 663L505 693H720L715 663L695 657Q672 650 652.5 628.5Q633 607 605 562L425 290L395 113Q391 90 390 77Q389 64 392 56Q395 48 403 44Q411 40 424 37L456 30L452 0H104Z" glyph-name="Y" horiz-adv-x="644" unicode="Y" /><glyph d="M108 30 143 37Q157 40 166 43.5Q175 47 181 54.5Q187 62 191 75.5Q195 89 200 113L231 290L148 572Q140 596 134.5 611Q129 626 123 635Q117 644 110.5 649Q104 654 94 657L76 663L82 693H416L411 663L380 656Q335 646 335 605Q335 595 337.5 580.5Q340 566 348 540L401 352H405L526 545Q543 572 550.5 587.5Q558 603 558 620Q558 634 550 642.5Q542 651 522 656L499 663L505 693H720L715 663L695 657Q672 650 652.5 628.5Q633 607 605 562L425 290L395 113Q391 90 390 77Q389 64 392 56Q395 48 403 44Q411 40 424 37L456 30L452 0H104ZM354 724 346 743 489 858Q503 869 515.5 875Q528 881 543 881Q569 881 584.5 861.5Q600 842 600 816Q600 797 589 781.5Q578 766 550 761Z" glyph-name="Yacute" horiz-adv-x="644" unicode="&#221;" /><glyph d="M108 30 143 37Q157 40 166 43.5Q175 47 181 54.5Q187 62 191 75.5Q195 89 200 113L231 290L148 572Q140 596 134.5 611Q129 626 123 635Q117 644 110.5 649Q104 654 94 657L76 663L82 693H416L411 663L380 656Q335 646 335 605Q335 595 337.5 580.5Q340 566 348 540L401 352H405L526 545Q543 572 550.5 587.5Q558 603 558 620Q558 634 550 642.5Q542 651 522 656L499 663L505 693H720L715 663L695 657Q672 650 652.5 628.5Q633 607 605 562L425 290L395 113Q391 90 390 77Q389 64 392 56Q395 48 403 44Q411 40 424 37L456 30L452 0H104ZM349 722Q317 722 293.5 743Q270 764 270 799Q270 834 293.5 856Q317 878 350 878Q383 878 406.5 856.5Q430 835 430 800Q430 765 406.5 743.5Q383 722 349 722ZM565 722Q532 722 508.5 743Q485 764 485 799Q485 834 508.5 856Q532 878 566 878Q598 878 621.5 856.5Q645 835 645 800Q645 765 621.5 743.5Q598 722 565 722Z" glyph-name="Ydieresis" horiz-adv-x="644" unicode="&#376;" /><glyph d="M-21 47 412 647V650H387Q342 650 313.5 648Q285 646 266.5 640.5Q248 635 235 625.5Q222 616 208 601Q196 588 186 575Q176 562 165.5 546.5Q155 531 142 511Q129 491 111 464H79L125 693H637L628 646L195 49V45H228Q278 45 308.5 47.5Q339 50 359 56Q379 62 392.5 73Q406 84 423 101Q451 131 474 165.5Q497 200 528 252H561L507 0H-29Z" glyph-name="Z" horiz-adv-x="574" unicode="Z" /><glyph d="M555 864 403 728H351L237 864L248 882L385 832L545 882ZM-21 47 412 647V650H387Q342 650 313.5 648Q285 646 266.5 640.5Q248 635 235 625.5Q222 616 208 601Q196 588 186 575Q176 562 165.5 546.5Q155 531 142 511Q129 491 111 464H79L125 693H637L628 646L195 49V45H228Q278 45 308.5 47.5Q339 50 359 56Q379 62 392.5 73Q406 84 423 101Q451 131 474 165.5Q497 200 528 252H561L507 0H-29Z" glyph-name="Zcaron" horiz-adv-x="574" unicode="&#381;" /><glyph d="M127 -13Q67 -13 36 26Q5 65 5 134Q5 214 33.5 286.5Q62 359 109 414.5Q156 470 216 502.5Q276 535 338 535Q386 535 417.5 523.5Q449 512 478 492H482L549 537L567 529Q561 514 554 491Q548 471 540.5 442Q533 413 525 373L477 135Q475 127 474 121Q473 115 473 109Q473 73 519 102L542 116L562 93Q546 77 523.5 58.5Q501 40 475.5 24.5Q450 9 422 -1.5Q394 -12 366 -12Q345 -12 332.5 -5Q320 2 314 12Q308 22 306 33.5Q304 45 304 54Q304 63 305.5 75.5Q307 88 309 97H305Q288 75 268 55Q248 35 226 20Q204 5 179 -4Q154 -13 127 -13ZM214 85Q240 85 266.5 107.5Q293 130 314 157L377 457Q372 472 362 482.5Q352 493 331 493Q304 493 276 462.5Q248 432 225.5 382.5Q203 333 189 271.5Q175 210 175 147Q175 114 184.5 99.5Q194 85 214 85Z" glyph-name="a" horiz-adv-x="582" unicode="a" /><glyph d="M127 -13Q67 -13 36 26Q5 65 5 134Q5 214 33.5 286.5Q62 359 109 414.5Q156 470 216 502.5Q276 535 338 535Q386 535 417.5 523.5Q449 512 478 492H482L549 537L567 529Q561 514 554 491Q548 471 540.5 442Q533 413 525 373L477 135Q475 127 474 121Q473 115 473 109Q473 73 519 102L542 116L562 93Q546 77 523.5 58.5Q501 40 475.5 24.5Q450 9 422 -1.5Q394 -12 366 -12Q345 -12 332.5 -5Q320 2 314 12Q308 22 306 33.5Q304 45 304 54Q304 63 305.5 75.5Q307 88 309 97H305Q288 75 268 55Q248 35 226 20Q204 5 179 -4Q154 -13 127 -13ZM214 85Q240 85 266.5 107.5Q293 130 314 157L377 457Q372 472 362 482.5Q352 493 331 493Q304 493 276 462.5Q248 432 225.5 382.5Q203 333 189 271.5Q175 210 175 147Q175 114 184.5 99.5Q194 85 214 85ZM260 592 387 708Q414 734 444 734Q467 734 482.5 715Q498 696 498 671Q498 652 486.5 635Q475 618 449 613L268 573Z" glyph-name="aacute" horiz-adv-x="582" unicode="&#225;" /><glyph d="M127 -13Q67 -13 36 26Q5 65 5 134Q5 214 33.5 286.5Q62 359 109 414.5Q156 470 216 502.5Q276 535 338 535Q386 535 417.5 523.5Q449 512 478 492H482L549 537L567 529Q561 514 554 491Q548 471 540.5 442Q533 413 525 373L477 135Q475 127 474 121Q473 115 473 109Q473 73 519 102L542 116L562 93Q546 77 523.5 58.5Q501 40 475.5 24.5Q450 9 422 -1.5Q394 -12 366 -12Q345 -12 332.5 -5Q320 2 314 12Q308 22 306 33.5Q304 45 304 54Q304 63 305.5 75.5Q307 88 309 97H305Q288 75 268 55Q248 35 226 20Q204 5 179 -4Q154 -13 127 -13ZM214 85Q240 85 266.5 107.5Q293 130 314 157L377 457Q372 472 362 482.5Q352 493 331 493Q304 493 276 462.5Q248 432 225.5 382.5Q203 333 189 271.5Q175 210 175 147Q175 114 184.5 99.5Q194 85 214 85ZM201 588 341 733H393L489 588L476 570L356 630L211 570Z" glyph-name="acircumflex" horiz-adv-x="582" unicode="&#226;" /><glyph d="M174 592 301 708Q328 734 358 734Q381 734 396.5 715Q412 696 412 671Q412 652 400.5 635Q389 618 363 613L182 573Z" glyph-name="acute" horiz-adv-x="500" unicode="&#180;" /><glyph d="M218 578 278 718Q288 741 299 754Q310 767 336 767Q359 767 379 749.5Q399 732 399 707Q399 695 393 683.5Q387 672 372 661L234 564Z" glyph-name="acute.pl" horiz-adv-x="510" /><glyph d="M217 724 209 743 352 858Q366 869 378.5 875Q391 881 406 881Q432 881 447.5 861.5Q463 842 463 816Q463 797 452 781.5Q441 766 413 761Z" glyph-name="acute.uc" horiz-adv-x="500" /><glyph d="M223 742 281 864Q292 887 304.5 900Q317 913 339 913Q362 913 382 895.5Q402 878 402 853Q402 842 395.5 829Q389 816 368 804L240 728Z" glyph-name="acute.ucpl" horiz-adv-x="510" /><glyph d="M127 -13Q67 -13 36 26Q5 65 5 134Q5 214 33.5 286.5Q62 359 109 414.5Q156 470 216 502.5Q276 535 338 535Q386 535 417.5 523.5Q449 512 478 492H482L549 537L567 529Q561 514 554 491Q548 471 540.5 442Q533 413 525 373L477 135Q475 127 474 121Q473 115 473 109Q473 73 519 102L542 116L562 93Q546 77 523.5 58.5Q501 40 475.5 24.5Q450 9 422 -1.5Q394 -12 366 -12Q345 -12 332.5 -5Q320 2 314 12Q308 22 306 33.5Q304 45 304 54Q304 63 305.5 75.5Q307 88 309 97H305Q288 75 268 55Q248 35 226 20Q204 5 179 -4Q154 -13 127 -13ZM214 85Q240 85 266.5 107.5Q293 130 314 157L377 457Q372 472 362 482.5Q352 493 331 493Q304 493 276 462.5Q248 432 225.5 382.5Q203 333 189 271.5Q175 210 175 147Q175 114 184.5 99.5Q194 85 214 85ZM257 574Q224 574 201 595Q178 616 178 651Q178 686 201.5 708Q225 730 258 730Q291 730 314.5 708.5Q338 687 338 652Q338 617 314.5 595.5Q291 574 257 574ZM460 574Q427 574 403.5 595Q380 616 380 651Q380 686 403.5 708Q427 730 461 730Q493 730 516.5 708.5Q540 687 540 652Q540 617 516.5 595.5Q493 574 460 574Z" glyph-name="adieresis" horiz-adv-x="582" unicode="&#228;" /><glyph d="M458 -13Q392 -13 351 15Q310 43 293 91H290Q277 73 260.5 54.5Q244 36 223.5 21.5Q203 7 178 -2.5Q153 -12 123 -12Q74 -12 39.5 16.5Q5 45 5 103Q5 138 19.5 166.5Q34 195 68 218Q102 241 158.5 259Q215 277 299 292L308 345Q321 414 314 453.5Q307 493 261 493Q239 493 228.5 487Q218 481 216 458Q211 407 192 389Q173 371 137 371Q73 371 73 427Q73 451 88 470.5Q103 490 129.5 504.5Q156 519 192.5 527Q229 535 272 535Q401 535 434 458Q475 495 521 515Q567 535 614 535Q689 535 728 506Q767 477 767 428Q767 391 737.5 362Q708 333 662.5 311Q617 289 561.5 273.5Q506 258 455 248Q452 218 452 187Q452 132 471 102Q490 72 535 72Q577 72 612 94Q647 116 682 148L707 127Q692 107 668.5 82.5Q645 58 613.5 37Q582 16 543 1.5Q504 -13 458 -13ZM590 494Q574 494 555 478.5Q536 463 518 435.5Q500 408 485 369.5Q470 331 461 286Q501 297 530 308.5Q559 320 579 337Q601 355 610 380Q619 405 619 442Q619 494 590 494ZM283 159Q283 186 285.5 209.5Q288 233 291 253Q250 244 224 233Q198 222 183 207.5Q168 193 162 175.5Q156 158 156 135Q156 106 166.5 93.5Q177 81 196 81Q216 81 238.5 95Q261 109 284 136Q283 142 283 147.5Q283 153 283 159Z" glyph-name="ae" horiz-adv-x="755" unicode="&#230;" /><glyph d="M127 -13Q67 -13 36 26Q5 65 5 134Q5 214 33.5 286.5Q62 359 109 414.5Q156 470 216 502.5Q276 535 338 535Q386 535 417.5 523.5Q449 512 478 492H482L549 537L567 529Q561 514 554 491Q548 471 540.5 442Q533 413 525 373L477 135Q475 127 474 121Q473 115 473 109Q473 73 519 102L542 116L562 93Q546 77 523.5 58.5Q501 40 475.5 24.5Q450 9 422 -1.5Q394 -12 366 -12Q345 -12 332.5 -5Q320 2 314 12Q308 22 306 33.5Q304 45 304 54Q304 63 305.5 75.5Q307 88 309 97H305Q288 75 268 55Q248 35 226 20Q204 5 179 -4Q154 -13 127 -13ZM214 85Q240 85 266.5 107.5Q293 130 314 157L377 457Q372 472 362 482.5Q352 493 331 493Q304 493 276 462.5Q248 432 225.5 382.5Q203 333 189 271.5Q175 210 175 147Q175 114 184.5 99.5Q194 85 214 85ZM272 613Q246 618 235 635.5Q224 653 224 670Q224 694 240 713.5Q256 733 281 733Q309 733 338 706L461 592L452 573Z" glyph-name="agrave" horiz-adv-x="582" unicode="&#224;" /><glyph d="M726 356 702 350Q679 344 662 328.5Q645 313 628 287Q605 251 586.5 223Q568 195 541 163Q558 140 574.5 118.5Q591 97 608 77Q620 63 634 52.5Q648 42 662 37L689 30L685 0H446Q438 9 429.5 19.5Q421 30 412 41Q377 16 335.5 2Q294 -12 237 -12Q181 -12 139.5 1.5Q98 15 70 38.5Q42 62 28 92.5Q14 123 14 157Q14 199 30 233Q46 267 73 293Q100 319 135.5 338.5Q171 358 211 370Q189 423 189 484Q189 533 206.5 573.5Q224 614 254 643.5Q284 673 325 689Q366 705 414 705Q454 705 484 694Q514 683 534 665Q554 647 563.5 625Q573 603 573 581Q573 544 557 516Q541 488 514.5 466.5Q488 445 455 429Q422 413 388 401Q420 346 452 296Q484 246 516 199Q539 231 553.5 263Q568 295 568 315Q568 329 559 336Q550 343 536 348L511 356L516 386H731ZM304 49Q328 49 348 55.5Q368 62 387 74Q345 129 304 196Q263 263 225 340L223 342Q200 317 190 282.5Q180 248 180 203Q180 162 189.5 133Q199 104 215.5 85Q232 66 255 57.5Q278 49 304 49ZM337 560Q337 526 346 494.5Q355 463 372 429Q391 439 408 452.5Q425 466 437.5 483.5Q450 501 457 524.5Q464 548 464 578Q464 619 450 642.5Q436 666 410 666Q377 666 357 639Q337 612 337 560Z" glyph-name="ampersand" horiz-adv-x="735" unicode="&amp;" /><glyph d="M507 475Q486 428 459 399Q432 370 383 370Q359 370 329.5 377Q300 384 270.5 392.5Q241 401 213.5 408Q186 415 166 415Q142 415 124 393.5Q106 372 97 347L47 373Q64 417 92 446Q120 475 168 475Q192 475 221 468Q250 461 279 452.5Q308 444 336 437Q364 430 385 430Q411 430 427.5 451Q444 472 457 499ZM507 319Q486 272 459 242.5Q432 213 383 213Q359 213 329.5 220Q300 227 270.5 235.5Q241 244 213.5 251Q186 258 166 258Q142 258 124 237Q106 216 97 190L47 217Q64 261 92 289.5Q120 318 168 318Q192 318 221 311Q250 304 279 295.5Q308 287 336 280Q364 273 385 273Q411 273 427.5 294Q444 315 457 343Z" glyph-name="approxequal" horiz-adv-x="532" unicode="&#8776;" /><glyph d="M127 -13Q67 -13 36 26Q5 65 5 134Q5 214 33.5 286.5Q62 359 109 414.5Q156 470 216 502.5Q276 535 338 535Q386 535 417.5 523.5Q449 512 478 492H482L549 537L567 529Q561 514 554 491Q548 471 540.5 442Q533 413 525 373L477 135Q475 127 474 121Q473 115 473 109Q473 73 519 102L542 116L562 93Q546 77 523.5 58.5Q501 40 475.5 24.5Q450 9 422 -1.5Q394 -12 366 -12Q345 -12 332.5 -5Q320 2 314 12Q308 22 306 33.5Q304 45 304 54Q304 63 305.5 75.5Q307 88 309 97H305Q288 75 268 55Q248 35 226 20Q204 5 179 -4Q154 -13 127 -13ZM214 85Q240 85 266.5 107.5Q293 130 314 157L377 457Q372 472 362 482.5Q352 493 331 493Q304 493 276 462.5Q248 432 225.5 382.5Q203 333 189 271.5Q175 210 175 147Q175 114 184.5 99.5Q194 85 214 85ZM355 570Q311 570 284.5 596.5Q258 623 258 661Q258 705 287 732Q316 759 358 759Q399 759 426.5 734Q454 709 454 667Q454 623 425.5 596.5Q397 570 355 570ZM356 606Q379 606 393 622Q407 638 407 666Q407 691 393.5 707Q380 723 357 723Q334 723 319.5 706Q305 689 305 662Q305 637 319 621.5Q333 606 356 606Z" glyph-name="aring" horiz-adv-x="582" unicode="&#229;" /><glyph d="M47 452 226 695H278L388 452L370 434L237 573L60 434Z" glyph-name="asciicircum" horiz-adv-x="364" unicode="^" /><glyph d="M10 245Q36 302 59.5 334Q83 366 118 366Q135 366 156 360.5Q177 355 198 348.5Q219 342 239 336.5Q259 331 275 331Q290 331 301.5 340Q313 349 330 372L355 358Q343 330 331.5 307.5Q320 285 308 269.5Q296 254 281.5 245.5Q267 237 248 237Q231 237 210 242.5Q189 248 167.5 254.5Q146 261 125.5 266.5Q105 272 90 272Q75 272 63.5 263Q52 254 35 231Z" glyph-name="asciitilde" horiz-adv-x="351" unicode="~" /><glyph d="M110 419Q101 427 97 438.5Q93 450 95 462Q97 474 107 485Q117 496 137 505L213 539L132 545Q110 546 97 553Q84 560 78.5 570Q73 580 73.5 591.5Q74 603 79 614Q84 624 93 632Q102 640 113.5 641.5Q125 643 138.5 637Q152 631 167 615L219 554L199 634Q194 655 197 670Q200 685 208 693.5Q216 702 227 705Q238 708 250 706Q262 704 272 698.5Q282 693 287 682.5Q292 672 290.5 657Q289 642 277 623L236 552L303 597Q321 609 335.5 611Q350 613 361 608Q372 603 378.5 593Q385 583 387 571Q389 559 386 548Q383 537 374.5 528.5Q366 520 351.5 517Q337 514 316 519L236 536L299 483Q316 470 322.5 456.5Q329 443 328 431.5Q327 420 319.5 410.5Q312 401 302 395Q291 389 279 388.5Q267 388 256.5 394Q246 400 238.5 412.5Q231 425 229 446L223 527L192 451Q177 412 152 407Q127 402 110 419Z" glyph-name="asterisk" horiz-adv-x="341" unicode="*" /><glyph d="M401 -149Q317 -149 247 -125.5Q177 -102 126.5 -57.5Q76 -13 47.5 51.5Q19 116 19 198Q19 295 60 381.5Q101 468 169 532.5Q237 597 324.5 635Q412 673 506 673Q593 673 662 650Q731 627 779 586.5Q827 546 852.5 490.5Q878 435 878 371Q878 283 850.5 219Q823 155 779.5 113Q736 71 683 51Q630 31 580 31Q548 31 527.5 38Q507 45 494.5 57.5Q482 70 477 87Q472 104 471 124H468Q442 86 403 59.5Q364 33 317 33Q268 33 239 65.5Q210 98 210 164Q210 233 235 293.5Q260 354 301.5 399.5Q343 445 395.5 471.5Q448 498 503 498Q545 498 577.5 486Q610 474 633 457H636L689 493L704 485Q700 476 695 461Q690 447 684 425.5Q678 404 670 371L623 176Q612 131 616 106.5Q620 82 651 82Q675 82 700.5 98.5Q726 115 747.5 148Q769 181 783 230.5Q797 280 797 346Q797 410 778 463Q759 516 722 554Q685 592 630 613.5Q575 635 503 635Q430 635 360 606.5Q290 578 235.5 523.5Q181 469 147.5 391Q114 313 114 214Q114 142 134.5 83.5Q155 25 195 -17Q235 -59 294.5 -82Q354 -105 432 -105Q503 -105 566 -88Q629 -71 673 -51L665 -88Q646 -99 617.5 -109.5Q589 -120 554.5 -129Q520 -138 480.5 -143.5Q441 -149 401 -149ZM400 119Q423 119 437 135.5Q451 152 470 178L530 431Q526 443 518.5 452Q511 461 494 461Q470 461 446 434Q422 407 403.5 365Q385 323 373 272.5Q361 222 361 176Q361 143 371 131Q381 119 400 119Z" glyph-name="at" horiz-adv-x="892" unicode="@" /><glyph d="M127 -13Q67 -13 36 26Q5 65 5 134Q5 214 33.5 286.5Q62 359 109 414.5Q156 470 216 502.5Q276 535 338 535Q386 535 417.5 523.5Q449 512 478 492H482L549 537L567 529Q561 514 554 491Q548 471 540.5 442Q533 413 525 373L477 135Q475 127 474 121Q473 115 473 109Q473 73 519 102L542 116L562 93Q546 77 523.5 58.5Q501 40 475.5 24.5Q450 9 422 -1.5Q394 -12 366 -12Q345 -12 332.5 -5Q320 2 314 12Q308 22 306 33.5Q304 45 304 54Q304 63 305.5 75.5Q307 88 309 97H305Q288 75 268 55Q248 35 226 20Q204 5 179 -4Q154 -13 127 -13ZM214 85Q240 85 266.5 107.5Q293 130 314 157L377 457Q372 472 362 482.5Q352 493 331 493Q304 493 276 462.5Q248 432 225.5 382.5Q203 333 189 271.5Q175 210 175 147Q175 114 184.5 99.5Q194 85 214 85ZM207 587Q235 643 259.5 676Q284 709 319 709Q335 709 351.5 705Q368 701 385.5 695.5Q403 690 419.5 686Q436 682 452 682Q467 682 477.5 690Q488 698 506 721L530 707Q503 651 479 618Q455 585 418 585Q402 585 385.5 589Q369 593 351.5 598.5Q334 604 317.5 608Q301 612 285 612Q270 612 259.5 604Q249 596 231 573Z" glyph-name="atilde" horiz-adv-x="582" unicode="&#227;" /><glyph d="M231 -13Q191 -13 159.5 -7.5Q128 -2 103 8.5Q78 19 58.5 32.5Q39 46 23 63V72L129 623Q133 642 134.5 654Q136 666 134.5 673.5Q133 681 127.5 686Q122 691 112 696L79 711L82 736L318 757L328 748Q323 732 318 714Q313 698 308.5 677Q304 656 299 631L274 499Q268 470 261.5 445.5Q255 421 251 409H255Q272 429 293.5 451Q315 473 340 492Q365 511 393 523Q421 535 451 535Q478 535 499.5 523Q521 511 536.5 489.5Q552 468 560 438.5Q568 409 568 373Q568 293 543.5 223Q519 153 474.5 100.5Q430 48 368 17.5Q306 -13 231 -13ZM248 29Q281 29 309 58Q337 87 357 134.5Q377 182 388.5 243Q400 304 400 368Q400 401 389.5 415Q379 429 359 429Q344 429 328 421.5Q312 414 296.5 403Q281 392 267.5 378.5Q254 365 244 352L187 65Q193 52 207.5 40.5Q222 29 248 29Z" glyph-name="b" horiz-adv-x="577" unicode="b" /><glyph d="M82 734H138L312 -130H255Z" glyph-name="backslash" horiz-adv-x="387" unicode="\" /><glyph d="M111 734H164V-130H111Z" glyph-name="bar" horiz-adv-x="244" unicode="|" /><glyph d="M277 -131Q217 -122 177 -111.5Q137 -101 113 -87.5Q89 -74 79.5 -57Q70 -40 70 -18Q70 7 83 44Q96 81 112 119Q128 157 141 191.5Q154 226 154 246Q154 265 133.5 277Q113 289 58 299L64 339Q103 341 126.5 346Q150 351 163 360Q176 369 180.5 381.5Q185 394 185 411Q185 426 182 451.5Q179 477 175.5 505Q172 533 169 559.5Q166 586 166 604Q166 635 175 658Q184 681 211 697.5Q238 714 287.5 723Q337 732 419 734L414 700Q370 695 344.5 688.5Q319 682 305 671.5Q291 661 286 645.5Q281 630 280 608Q279 591 279 568Q279 545 280 520Q281 495 281.5 470.5Q282 446 281 425Q281 405 275 388.5Q269 372 251.5 359Q234 346 203 335.5Q172 325 122 317V313Q185 297 213.5 275Q242 253 242 215Q242 196 232.5 162Q223 128 212 91Q201 54 191.5 21Q182 -12 182 -30Q182 -56 204 -71Q226 -86 283 -98L277 -131Z" glyph-name="braceleft" horiz-adv-x="364" unicode="{" /><glyph d="M105 734Q165 725 205 714.5Q245 704 268.5 690.5Q292 677 301.5 660Q311 643 311 621Q311 596 298 559.5Q285 523 269.5 485Q254 447 241 412.5Q228 378 228 358Q228 339 248.5 327Q269 315 324 305L317 265Q279 263 255.5 258Q232 253 219 244Q206 235 201.5 222.5Q197 210 197 193Q197 178 200 152Q203 126 206 98Q209 70 212 43.5Q215 17 215 -1Q215 -32 206 -55Q197 -78 170 -94.5Q143 -111 93.5 -120Q44 -129 -38 -131L-33 -97Q10 -92 36.5 -85.5Q63 -79 77 -68.5Q91 -58 96 -42.5Q101 -27 102 -4Q103 13 102.5 36Q102 59 101.5 84Q101 109 100.5 133.5Q100 158 100 179Q101 199 107 215.5Q113 232 130 245Q147 258 178 268.5Q209 279 260 287V291Q196 307 168 329Q140 351 140 389Q140 408 149 442Q158 476 169.5 512.5Q181 549 190 582Q199 615 199 633Q199 659 177 674Q155 689 98 701L105 734Z" glyph-name="braceright" horiz-adv-x="364" unicode="}" /><glyph d="M195 734H423L417 704L357 697Q336 695 323 691.5Q310 688 301.5 680.5Q293 673 287.5 658.5Q282 644 278 620L166 -16Q161 -40 161 -54Q161 -68 166.5 -76Q172 -84 184.5 -87.5Q197 -91 217 -93L276 -100L270 -130H42Z" glyph-name="bracketleft" horiz-adv-x="359" unicode="[" /><glyph d="M-38 -100 22 -93Q43 -91 56 -87.5Q69 -84 77.5 -76Q86 -68 91 -54Q96 -40 100 -16L213 620Q217 644 217 658.5Q217 673 211.5 680.5Q206 688 194 691.5Q182 695 162 697L103 704L108 734H336L184 -130H-44Z" glyph-name="bracketright" horiz-adv-x="359" unicode="]" /><glyph d="M310 575Q253 575 225 615.5Q197 656 189 725L219 735Q231 708 253 690.5Q275 673 319 673Q351 673 381 688.5Q411 704 432 735L460 725Q451 693 436 665.5Q421 638 401.5 618Q382 598 358.5 586.5Q335 575 310 575Z" glyph-name="breve" horiz-adv-x="498" unicode="&#728;" /><glyph d="M336 725Q304 725 280.5 736.5Q257 748 240.5 768Q224 788 214 815.5Q204 843 200 875L230 885Q242 858 267.5 840.5Q293 823 342 823Q381 823 413.5 838.5Q446 854 468 885L496 875Q487 843 473 815.5Q459 788 439 768Q419 748 393.5 736.5Q368 725 336 725Z" glyph-name="breve.uc" horiz-adv-x="498" /><glyph d="M164 324H111V734H164ZM111 257H164V-130H111Z" glyph-name="brokenbar" horiz-adv-x="244" unicode="&#166;" /><glyph d="M163 202Q136 202 112.5 212.5Q89 223 72 241Q55 259 46 282.5Q37 306 38 332Q38 360 49 384.5Q60 409 78 427Q96 445 120.5 455Q145 465 172 465Q198 465 222 455Q246 445 263.5 427.5Q281 410 291.5 386Q302 362 301 334Q300 307 288 283Q276 259 257 241Q238 223 213.5 212.5Q189 202 163 202Z" glyph-name="bullet" horiz-adv-x="314" unicode="&#8226;" /><glyph d="M187 -13Q143 -13 110.5 -0.5Q78 12 56.5 34.5Q35 57 24 88Q13 119 13 156Q13 238 42 307.5Q71 377 117.5 427.5Q164 478 223.5 506.5Q283 535 343 535Q381 535 409 526.5Q437 518 455 504Q473 490 482 472.5Q491 455 491 437Q491 406 474 388.5Q457 371 419 371Q383 371 367.5 389Q352 407 348 458Q346 480 339.5 486.5Q333 493 319 493Q295 493 271 466.5Q247 440 227.5 396.5Q208 353 195.5 297.5Q183 242 183 184Q183 133 200 102.5Q217 72 264 72Q306 72 340.5 94.5Q375 117 410 149L435 128Q420 108 396.5 83.5Q373 59 342.5 37.5Q312 16 273 1.5Q234 -13 187 -13Z" glyph-name="c" horiz-adv-x="476" unicode="c" /><glyph d="M135 717 148 734 267 675 412 734 423 716 283 571H231Z" glyph-name="caron" horiz-adv-x="408" unicode="&#711;" /><glyph d="M233 566 269 713Q274 733 285 745Q296 757 315 757Q326 757 337.5 753Q349 749 358.5 742Q368 735 373.5 725Q379 715 379 703Q379 678 355 656L249 556Z" glyph-name="caron.alt" horiz-adv-x="510" /><glyph d="M452 864 300 728H248L134 864L145 882L282 832L442 882Z" glyph-name="caron.uc" horiz-adv-x="408" /><glyph d="M47 -182Q89 -174 112 -162.5Q135 -151 135 -133Q135 -106 90 -103L86 -95L139 -8Q76 4 44.5 48.5Q13 93 13 156Q13 238 42 307.5Q71 377 117.5 427.5Q164 478 223.5 506.5Q283 535 343 535Q381 535 409 526.5Q437 518 455 504Q473 490 482 472.5Q491 455 491 437Q491 406 474 388.5Q457 371 419 371Q383 371 367.5 389Q352 407 348 458Q346 480 339.5 486.5Q333 493 319 493Q295 493 271 466.5Q247 440 227.5 396.5Q208 353 195.5 297.5Q183 242 183 184Q183 133 200 102.5Q217 72 264 72Q306 72 340.5 94.5Q375 117 410 149L435 128Q420 108 396.5 83.5Q373 59 342.5 37.5Q312 16 273 1.5Q234 -13 187 -13H178L150 -45Q192 -49 210.5 -69Q229 -89 229 -111Q229 -137 213.5 -154Q198 -171 172 -182Q146 -193 112.5 -198.5Q79 -204 44 -205Z" glyph-name="ccedilla" horiz-adv-x="476" unicode="&#231;" /><glyph d="M147 -182Q189 -174 212 -162.5Q235 -151 235 -133Q235 -106 190 -103L186 -95L245 0H289L250 -45Q292 -49 310.5 -69Q329 -89 329 -111Q329 -137 313.5 -154Q298 -171 272 -182Q246 -193 212.5 -198.5Q179 -204 144 -205Z" glyph-name="cedilla" horiz-adv-x="500" unicode="&#184;" /><glyph d="M194 -13Q101 -13 55.5 36Q10 85 10 165Q10 235 31.5 298Q53 361 91.5 410Q130 459 182 491Q234 523 296 532L306 596H349L340 535Q378 535 406.5 526.5Q435 518 454 504Q473 490 482.5 472.5Q492 455 492 437Q492 406 475 388.5Q458 371 423 371Q391 371 376 389Q361 407 356 458Q353 487 334 493L272 71Q311 74 343 92.5Q375 111 416 149L441 128Q429 112 411 93Q393 74 370 55.5Q347 37 319.5 21.5Q292 6 261 -3L246 -110H203L217 -12Q212 -13 206 -13Q200 -13 194 -13ZM175 185Q175 138 187 110Q199 82 230 74L290 489Q266 478 245 448.5Q224 419 208.5 377.5Q193 336 184 286Q175 236 175 185Z" glyph-name="cent" horiz-adv-x="475" unicode="&#162;" /><glyph d="M169 588 309 733H361L457 588L444 570L324 630L179 570Z" glyph-name="circumflex" horiz-adv-x="500" unicode="&#710;" /><glyph d="M171 736 329 871H381L489 735L478 718L347 768L181 718Z" glyph-name="circumflex.uc" horiz-adv-x="500" /><glyph d="M89 -7Q72 -7 56 0Q40 7 28 19Q16 31 9 46.5Q2 62 2 80Q2 118 28 142.5Q54 167 89 167Q107 167 122.5 160.5Q138 154 150 142.5Q162 131 169 115Q176 99 176 80Q176 62 169 46.5Q162 31 150 19Q138 7 122.5 0Q107 -7 89 -7ZM135 270Q118 270 102 277Q86 284 74 296Q62 308 55 324Q48 340 48 358Q48 396 74 420.5Q100 445 135 445Q153 445 168.5 438.5Q184 432 196 420.5Q208 409 215 393Q222 377 222 358Q222 340 215 324Q208 308 196 296Q184 284 168.5 277Q153 270 135 270Z" glyph-name="colon" horiz-adv-x="236" unicode=":" /><glyph d="M-32 -90Q25 -65 55 -35.5Q85 -6 91 29Q86 25 78.5 22.5Q71 20 62 20Q38 20 19 37.5Q0 55 0 90Q0 126 25.5 146.5Q51 167 82 167Q123 167 149 138.5Q175 110 175 64Q175 30 159.5 1Q144 -28 117 -50.5Q90 -73 53.5 -89Q17 -105 -25 -113Z" glyph-name="comma" horiz-adv-x="241" unicode="," /><glyph d="M407 -17Q331 -17 266 11.5Q201 40 153.5 89Q106 138 80 203.5Q54 269 55 344Q56 419 84.5 484Q113 549 161.5 598Q210 647 275.5 675Q341 703 417 703Q493 703 558 675Q623 647 671 598Q719 549 746 484Q773 419 772 344Q770 269 741.5 203.5Q713 138 663.5 89Q614 40 548 11.5Q482 -17 407 -17ZM408 27Q475 27 531.5 52Q588 77 629.5 120Q671 163 695 221Q719 279 720 344Q721 409 698.5 466.5Q676 524 635.5 567Q595 610 539 635Q483 660 416 660Q349 660 292 635Q235 610 194 567Q153 524 129.5 466.5Q106 409 105 344Q104 279 126 221Q148 163 188 120Q228 77 284 52Q340 27 408 27ZM419 133Q371 133 331 146Q291 159 262.5 185Q234 211 218 251.5Q202 292 202 346Q202 406 220.5 447.5Q239 489 270.5 515.5Q302 542 343 554Q384 566 430 566Q468 566 502 560.5Q536 555 556 550L562 424H537Q520 454 508.5 474Q497 494 481 512Q468 527 457.5 532Q447 537 428 537Q381 537 362 492Q343 447 343 359Q343 251 365.5 207Q388 163 434 163Q452 163 466 169.5Q480 176 493 193Q506 210 518 235.5Q530 261 544 290H569L562 157Q539 149 502.5 141Q466 133 419 133Z" glyph-name="copyright" horiz-adv-x="788" unicode="&#169;" /><glyph d="M130 -13Q70 -13 38 26.5Q6 66 6 138Q6 217 34.5 289Q63 361 110 415.5Q157 470 216.5 502.5Q276 535 339 535Q363 535 377.5 531Q392 527 400 523H404Q405 533 407 544Q409 554 411 566.5Q413 579 416 593L422 623Q426 643 427.5 655Q429 667 427 674.5Q425 682 419.5 686.5Q414 691 404 696L371 711L375 736L612 757L622 748Q617 732 612 714Q607 698 602 676.5Q597 655 592 631L491 135Q489 127 488 121Q487 115 487 109Q487 73 533 102L556 116L576 93Q560 77 537.5 58.5Q515 40 489 24.5Q463 9 434.5 -1.5Q406 -12 378 -12Q357 -12 344.5 -5Q332 2 325 12Q318 22 316 33.5Q314 45 314 54Q314 63 315.5 76.5Q317 90 319 99H315Q298 77 277.5 57Q257 37 233.5 21.5Q210 6 184 -3.5Q158 -13 130 -13ZM217 82Q230 82 244 89Q258 96 272.5 106.5Q287 117 300 130.5Q313 144 324 158L388 456Q383 471 370.5 482Q358 493 336 493Q307 493 278 462.5Q249 432 226 382.5Q203 333 188.5 271.5Q174 210 174 148Q174 111 185.5 96.5Q197 82 217 82Z" glyph-name="d" horiz-adv-x="593" unicode="d" /><glyph d="M150 366Q172 388 193.5 416Q215 444 220 473Q204 471 190 465.5Q176 460 163 454Q150 448 137.5 443Q125 438 112 438Q81 438 65 456.5Q49 475 49 500Q49 526 66 545.5Q83 565 111 565Q127 565 140.5 557.5Q154 550 167 540Q180 530 193.5 520Q207 510 224 506Q223 528 218.5 547Q214 566 208.5 582Q203 598 198.5 611.5Q194 625 194 638Q194 661 210.5 681Q227 701 265 701Q295 701 313 683Q331 665 331 642Q331 622 321.5 605.5Q312 589 300 572.5Q288 556 276 539Q264 522 260 503Q275 505 289.5 511Q304 517 317.5 524Q331 531 344 536Q357 541 371 541Q400 541 415.5 522.5Q431 504 431 480Q431 453 414.5 433.5Q398 414 369 414Q353 414 340 421Q327 428 314 437.5Q301 447 287 456.5Q273 466 257 471Q254 444 263.5 411Q273 378 286 356L156 -67H127Z" glyph-name="dagger" horiz-adv-x="403" unicode="&#8224;" /><glyph d="M172 424Q189 440 205 455.5Q221 471 227 493Q211 491 197 485Q183 479 170 473Q157 467 144.5 462Q132 457 119 457Q88 457 71.5 475.5Q55 494 55 519Q55 545 72 563.5Q89 582 117 582Q133 582 146.5 574.5Q160 567 173 557Q186 547 199.5 537Q213 527 230 523Q229 541 224 556.5Q219 572 213.5 586Q208 600 203.5 612.5Q199 625 199 638Q199 661 217 681Q235 701 271 701Q303 701 319.5 683Q336 665 336 642Q336 622 326.5 607Q317 592 305 578.5Q293 565 281.5 551Q270 537 266 520Q281 522 295.5 528Q310 534 323.5 541Q337 548 350 553Q363 558 377 558Q406 558 422 540.5Q438 523 438 499Q438 472 421.5 452.5Q405 433 376 433Q360 433 346.5 440Q333 447 320 457Q307 467 293 476Q279 485 263 490Q262 469 273 451.5Q284 434 295 417L231 313H202ZM260 179Q243 164 227 148.5Q211 133 205 111Q221 113 235 119Q249 125 262 131Q275 137 287.5 142Q300 147 313 147Q344 147 360 128.5Q376 110 376 85Q376 59 359 40.5Q342 22 315 22Q298 22 284.5 29.5Q271 37 258.5 47Q246 57 232 66.5Q218 76 202 81Q202 63 207 47.5Q212 32 217.5 18Q223 4 227.5 -9Q232 -22 232 -35Q232 -58 214 -77.5Q196 -97 160 -97Q128 -97 111.5 -79Q95 -61 95 -38Q95 -19 104.5 -3.5Q114 12 126 25.5Q138 39 149.5 53Q161 67 166 84Q150 82 136 75.5Q122 69 108.5 62.5Q95 56 81.5 50.5Q68 45 55 45Q26 45 10 63Q-6 81 -6 105Q-6 132 10.5 151Q27 170 56 170Q72 170 85 163Q98 156 111 146.5Q124 137 137.5 127.5Q151 118 168 114Q169 134 158.5 152Q148 170 136 187L199 291H228Z" glyph-name="daggerdbl" horiz-adv-x="425" unicode="&#8225;" /><glyph d="M181 455Q154 455 132 464.5Q110 474 94.5 490.5Q79 507 70 529.5Q61 552 61 578Q61 604 70 627Q79 650 95 667Q111 684 134 694Q157 704 184 704Q211 704 233 694.5Q255 685 270.5 668.5Q286 652 295 629.5Q304 607 304 582Q304 556 295 532.5Q286 509 269.5 492Q253 475 230.5 465Q208 455 181 455ZM182 497Q215 497 235.5 521.5Q256 546 256 580Q256 613 236 637.5Q216 662 183 662Q149 662 129 637.5Q109 613 109 580Q109 546 129 521.5Q149 497 182 497Z" glyph-name="degree" horiz-adv-x="279" unicode="&#176;" /><glyph d="M215 574Q182 574 159 595Q136 616 136 651Q136 686 159.5 708Q183 730 216 730Q249 730 272.5 708.5Q296 687 296 652Q296 617 272.5 595.5Q249 574 215 574ZM418 574Q385 574 361.5 595Q338 616 338 651Q338 686 361.5 708Q385 730 419 730Q451 730 474.5 708.5Q498 687 498 652Q498 617 474.5 595.5Q451 574 418 574Z" glyph-name="dieresis" horiz-adv-x="500" unicode="&#168;" /><glyph d="M232 722Q200 722 176.5 743Q153 764 153 799Q153 834 176.5 856Q200 878 233 878Q266 878 289.5 856.5Q313 835 313 800Q313 765 289.5 743.5Q266 722 232 722ZM448 722Q415 722 391.5 743Q368 764 368 799Q368 834 391.5 856Q415 878 449 878Q481 878 504.5 856.5Q528 835 528 800Q528 765 504.5 743.5Q481 722 448 722Z" glyph-name="dieresis.uc" horiz-adv-x="500" /><glyph d="M42 368H446V309H42ZM245 107Q213 107 191 129.5Q169 152 169 183Q169 216 191 238Q213 260 245 260Q276 260 299 238Q322 216 322 183Q322 152 299 129.5Q276 107 245 107ZM245 418Q213 418 191 440.5Q169 463 169 494Q169 527 191 549Q213 571 245 571Q276 571 299 549Q322 527 322 494Q322 463 299 440.5Q276 418 245 418Z" glyph-name="divide" horiz-adv-x="465" unicode="&#247;" /><glyph d="M174 -11Q82 -6 32.5 29.5Q-17 65 -17 116Q-17 151 4 167.5Q25 184 58 184Q93 184 112 168.5Q131 153 136 107Q140 75 148 55.5Q156 36 182 30L225 272Q183 295 153 318Q123 341 103.5 365Q84 389 75 416.5Q66 444 66 476Q66 522 85 562Q104 602 137.5 632Q171 662 217.5 680.5Q264 699 318 703L330 768H375L363 703Q456 700 506.5 665.5Q557 631 557 580Q557 545 536 528.5Q515 512 483 512Q447 512 428.5 527.5Q410 543 405 588Q403 604 401 616.5Q399 629 394.5 638Q390 647 381 653Q372 659 356 662L316 438L322 435Q367 411 400 388.5Q433 366 454.5 341.5Q476 317 486 288Q496 259 496 223Q496 181 477 140.5Q458 100 422.5 67Q387 34 335.5 13Q284 -8 219 -11L202 -110H157ZM340 138Q340 177 321.5 202.5Q303 228 265 251L226 27Q280 31 310 61Q340 91 340 138ZM208 563Q208 535 221.5 511Q235 487 276 461L312 666Q293 665 274.5 658.5Q256 652 241 639.5Q226 627 217 608Q208 589 208 563Z" glyph-name="dollar" horiz-adv-x="523" unicode="$" /><glyph d="M239 577Q201 577 175.5 600Q150 623 150 660Q150 698 176 721.5Q202 745 240 745Q278 745 304 722Q330 699 330 662Q330 624 303.5 600.5Q277 577 239 577Z" glyph-name="dotaccent" horiz-adv-x="347" unicode="&#729;" /><glyph d="M263 724Q225 724 199 746.5Q173 769 173 807Q173 845 199.5 868Q226 891 264 891Q302 891 327.5 868Q353 845 353 808Q353 770 327 747Q301 724 263 724Z" glyph-name="dotaccent.uc" horiz-adv-x="347" /><glyph d="M92 -12Q73 -12 60 -5.5Q47 1 38.5 10.5Q30 20 26.5 32Q23 44 23 56Q23 75 28 101.5Q33 128 39 151L99 377Q101 388 102 396.5Q103 405 103 410Q103 429 89.5 426.5Q76 424 49 404L35 395L16 419Q34 439 57.5 460Q81 481 107 497.5Q133 514 160.5 524.5Q188 535 215 535Q253 535 267 513Q281 491 281 461Q281 449 277 420.5Q273 392 262 354L206 142Q204 134 202 124.5Q200 115 200 109Q200 73 247 102L271 117L290 93Q274 77 251.5 58.5Q229 40 203 24.5Q177 9 148.5 -1.5Q120 -12 92 -12Z" glyph-name="dotlessi" horiz-adv-x="305" unicode="&#305;" /><glyph d="M188 -13Q101 -13 57 35Q13 83 13 159Q13 240 44 309Q75 378 123 428.5Q171 479 229.5 507Q288 535 344 535Q419 535 458 506Q497 477 497 428Q497 389 467 359Q437 329 391.5 305.5Q346 282 291 264.5Q236 247 185 235Q184 223 183.5 211Q183 199 183 187Q183 132 201.5 102Q220 72 265 72Q307 72 342 94Q377 116 412 148L437 127Q422 107 398.5 82.5Q375 58 343.5 37Q312 16 273 1.5Q234 -13 188 -13ZM321 494Q304 494 285 477.5Q266 461 247.5 432Q229 403 213.5 363Q198 323 190 276Q229 290 257.5 303Q286 316 307 333Q331 354 340.5 380.5Q350 407 350 442Q350 494 321 494Z" glyph-name="e" horiz-adv-x="486" unicode="e" /><glyph d="M252 592 379 708Q406 734 436 734Q459 734 474.5 715Q490 696 490 671Q490 652 478.5 635Q467 618 441 613L260 573ZM188 -13Q101 -13 57 35Q13 83 13 159Q13 240 44 309Q75 378 123 428.5Q171 479 229.5 507Q288 535 344 535Q419 535 458 506Q497 477 497 428Q497 389 467 359Q437 329 391.5 305.5Q346 282 291 264.5Q236 247 185 235Q184 223 183.5 211Q183 199 183 187Q183 132 201.5 102Q220 72 265 72Q307 72 342 94Q377 116 412 148L437 127Q422 107 398.5 82.5Q375 58 343.5 37Q312 16 273 1.5Q234 -13 188 -13ZM321 494Q304 494 285 477.5Q266 461 247.5 432Q229 403 213.5 363Q198 323 190 276Q229 290 257.5 303Q286 316 307 333Q331 354 340.5 380.5Q350 407 350 442Q350 494 321 494Z" glyph-name="eacute" horiz-adv-x="486" unicode="&#233;" /><glyph d="M193 588 333 733H385L481 588L468 570L348 630L203 570ZM188 -13Q101 -13 57 35Q13 83 13 159Q13 240 44 309Q75 378 123 428.5Q171 479 229.5 507Q288 535 344 535Q419 535 458 506Q497 477 497 428Q497 389 467 359Q437 329 391.5 305.5Q346 282 291 264.5Q236 247 185 235Q184 223 183.5 211Q183 199 183 187Q183 132 201.5 102Q220 72 265 72Q307 72 342 94Q377 116 412 148L437 127Q422 107 398.5 82.5Q375 58 343.5 37Q312 16 273 1.5Q234 -13 188 -13ZM321 494Q304 494 285 477.5Q266 461 247.5 432Q229 403 213.5 363Q198 323 190 276Q229 290 257.5 303Q286 316 307 333Q331 354 340.5 380.5Q350 407 350 442Q350 494 321 494Z" glyph-name="ecircumflex" horiz-adv-x="486" unicode="&#234;" /><glyph d="M248 574Q215 574 192 595Q169 616 169 651Q169 686 192.5 708Q216 730 249 730Q282 730 305.5 708.5Q329 687 329 652Q329 617 305.5 595.5Q282 574 248 574ZM451 574Q418 574 394.5 595Q371 616 371 651Q371 686 394.5 708Q418 730 452 730Q484 730 507.5 708.5Q531 687 531 652Q531 617 507.5 595.5Q484 574 451 574ZM188 -13Q101 -13 57 35Q13 83 13 159Q13 240 44 309Q75 378 123 428.5Q171 479 229.5 507Q288 535 344 535Q419 535 458 506Q497 477 497 428Q497 389 467 359Q437 329 391.5 305.5Q346 282 291 264.5Q236 247 185 235Q184 223 183.5 211Q183 199 183 187Q183 132 201.5 102Q220 72 265 72Q307 72 342 94Q377 116 412 148L437 127Q422 107 398.5 82.5Q375 58 343.5 37Q312 16 273 1.5Q234 -13 188 -13ZM321 494Q304 494 285 477.5Q266 461 247.5 432Q229 403 213.5 363Q198 323 190 276Q229 290 257.5 303Q286 316 307 333Q331 354 340.5 380.5Q350 407 350 442Q350 494 321 494Z" glyph-name="edieresis" horiz-adv-x="486" unicode="&#235;" /><glyph d="M188 -13Q101 -13 57 35Q13 83 13 159Q13 240 44 309Q75 378 123 428.5Q171 479 229.5 507Q288 535 344 535Q419 535 458 506Q497 477 497 428Q497 389 467 359Q437 329 391.5 305.5Q346 282 291 264.5Q236 247 185 235Q184 223 183.5 211Q183 199 183 187Q183 132 201.5 102Q220 72 265 72Q307 72 342 94Q377 116 412 148L437 127Q422 107 398.5 82.5Q375 58 343.5 37Q312 16 273 1.5Q234 -13 188 -13ZM321 494Q304 494 285 477.5Q266 461 247.5 432Q229 403 213.5 363Q198 323 190 276Q229 290 257.5 303Q286 316 307 333Q331 354 340.5 380.5Q350 407 350 442Q350 494 321 494ZM263 613Q237 618 226 635.5Q215 653 215 670Q215 694 231 713.5Q247 733 272 733Q300 733 329 706L452 592L443 573Z" glyph-name="egrave" horiz-adv-x="486" unicode="&#232;" /><glyph d="M257 -13Q199 -13 152 -1Q105 11 72 33Q39 55 21 85Q3 115 3 150Q3 182 16.5 208.5Q30 235 54 257Q78 279 111 296Q144 313 183 326V330Q138 359 115.5 398.5Q93 438 93 483Q93 536 116 577Q139 618 176.5 646.5Q214 675 261.5 690Q309 705 358 705Q401 705 441 695.5Q481 686 511.5 667Q542 648 560 620Q578 592 578 555Q578 526 564.5 502.5Q551 479 529 459.5Q507 440 477.5 425Q448 410 417 398V394Q479 359 511.5 318Q544 277 544 223Q544 173 522 129.5Q500 86 461.5 54.5Q423 23 370.5 5Q318 -13 257 -13ZM264 28Q292 28 316.5 36Q341 44 359 59Q377 74 387.5 96Q398 118 398 146Q398 168 387 186Q376 204 353.5 222.5Q331 241 296 261Q261 281 213 308Q199 294 185.5 280Q172 266 162 248Q152 230 146 206.5Q140 183 140 152Q140 98 170.5 63Q201 28 264 28ZM381 417Q410 441 431 473.5Q452 506 452 554Q452 610 425.5 637Q399 664 351 664Q300 664 267 634.5Q234 605 234 557Q234 518 270 486.5Q306 455 381 417Z" glyph-name="eight" horiz-adv-x="577" unicode="8" /><glyph d="M82 -7Q64 -7 48.5 0Q33 7 21.5 19Q10 31 3.5 46.5Q-3 62 -3 80Q-1 118 25.5 142.5Q52 167 87 167Q122 167 147 142.5Q172 118 172 80Q171 62 163.5 46.5Q156 31 143.5 19Q131 7 115 0Q99 -7 82 -7ZM312 -7Q294 -7 278.5 0Q263 7 251.5 19Q240 31 233.5 46.5Q227 62 227 80Q229 118 255.5 142.5Q282 167 317 167Q352 167 377 142.5Q402 118 402 80Q401 62 393.5 46.5Q386 31 373.5 19Q361 7 345 0Q329 -7 312 -7ZM542 -7Q524 -7 508.5 0Q493 7 481.5 19Q470 31 463.5 46.5Q457 62 457 80Q459 118 485.5 142.5Q512 167 547 167Q582 167 607 142.5Q632 118 632 80Q631 62 623.5 46.5Q616 31 603.5 19Q591 7 575 0Q559 -7 542 -7Z" glyph-name="ellipsis" horiz-adv-x="693" unicode="&#8230;" /><glyph d="M53 318H603L593 265H42Z" glyph-name="emdash" horiz-adv-x="630" unicode="&#8212;" /><glyph d="M53 318H366L355 265H42Z" glyph-name="endash" horiz-adv-x="392" unicode="&#8211;" /><glyph d="M42 443H499V384H42ZM42 293H499V234H42Z" glyph-name="equal" horiz-adv-x="519" unicode="=" /><glyph d="M178 610 286 660Q240 705 179 743L195 774Q246 760 289 740.5Q332 721 367 698L476 748L491 710L404 670Q475 611 508 532.5Q541 454 541 355Q541 264 513.5 195Q486 126 442 80Q398 34 342.5 11Q287 -12 230 -12Q177 -12 137 3.5Q97 19 69 47Q41 75 27 113.5Q13 152 13 198Q13 273 38 333.5Q63 394 103 436.5Q143 479 194 502Q245 525 298 525Q324 525 342.5 519.5Q361 514 375 503Q356 573 313 628L193 573ZM237 29Q263 29 283 48Q303 67 318 97Q333 127 343.5 165.5Q354 204 360.5 243.5Q367 283 370 319Q373 355 373 382Q373 433 359 458.5Q345 484 311 484Q276 484 250.5 451Q225 418 208.5 366.5Q192 315 184 252.5Q176 190 176 132Q176 82 192 55.5Q208 29 237 29Z" glyph-name="eth" horiz-adv-x="554" unicode="&#240;" /><glyph d="M113 -7Q95 -7 79.5 0Q64 7 52 19Q40 31 33 46.5Q26 62 26 80Q26 99 33 115Q40 131 52 142.5Q64 154 79.5 160.5Q95 167 113 167Q148 167 174 142.5Q200 118 200 80Q200 62 193 46.5Q186 31 174 19Q162 7 146 0Q130 -7 113 -7ZM117 220 99 572Q94 642 125 672.5Q156 703 209 703Q236 703 259 693.5Q282 684 294.5 665Q307 646 307.5 617Q308 588 290 549L150 220Z" glyph-name="exclam" horiz-adv-x="286" unicode="!" /><glyph d="M221 35Q226 -36 195.5 -65.5Q165 -95 111 -95Q84 -95 61.5 -85.5Q39 -76 26 -57Q13 -38 13 -9.5Q13 19 30 58L170 388H203ZM208 615Q226 615 241.5 608.5Q257 602 269 590Q281 578 288 562Q295 546 295 527Q295 509 288 493.5Q281 478 269 466Q257 454 241.5 447Q226 440 208 440Q191 440 175 447Q159 454 147 466Q135 478 128 493.5Q121 509 121 527Q121 565 147 590Q173 615 208 615Z" glyph-name="exclamdown" horiz-adv-x="305" unicode="&#161;" /><glyph d="M-49 -204Q-101 -204 -127.5 -184Q-154 -164 -154 -132Q-154 -108 -139.5 -94Q-125 -80 -100 -80Q-72 -80 -56.5 -92Q-41 -104 -33 -145Q-31 -156 -27.5 -159.5Q-24 -163 -18 -163Q-11 -163 -4.5 -158Q2 -153 8.5 -135.5Q15 -118 21.5 -84.5Q28 -51 37 5L105 459H38L42 484L114 521L115 527Q125 587 150.5 631.5Q176 676 211 705Q246 734 289 748Q332 762 378 762Q450 762 483 739Q516 716 516 682Q516 657 500 640Q484 623 451 623Q420 623 405 637.5Q390 652 384 697Q381 720 365 720Q352 720 341 714Q330 708 320.5 690Q311 672 303 639Q295 606 287 552L283 522H391L375 459H273L222 153Q207 64 180.5 -3Q154 -70 119 -114.5Q84 -159 41 -181.5Q-2 -204 -49 -204Z" glyph-name="f" horiz-adv-x="352" unicode="f" /><glyph d="M240 -194Q184 -194 156 -172Q128 -150 128 -120Q128 -104 133 -95Q57 -204 -49 -204Q-101 -204 -127.5 -184Q-154 -164 -154 -132Q-154 -108 -139.5 -94Q-125 -80 -100 -80Q-72 -80 -56.5 -92Q-41 -104 -33 -145Q-31 -156 -27.5 -159.5Q-24 -163 -18 -163Q-11 -163 -4.5 -158Q2 -153 8.5 -135.5Q15 -118 21.5 -84.5Q28 -51 37 5L105 459H38L42 484L114 521L115 527Q125 586 151.5 628Q178 670 215.5 697Q253 724 298.5 736.5Q344 749 391 749Q436 749 465.5 739.5Q495 730 512 713Q546 738 586 750Q626 762 668 762Q740 762 773.5 739Q807 716 807 682Q807 657 791 640Q775 623 742 623Q710 623 695 637.5Q680 652 674 697Q671 720 656 720Q642 720 631.5 713.5Q621 707 611.5 689Q602 671 594 638Q586 605 578 552L573 522H682L665 459H564L513 153Q498 64 471.5 -1.5Q445 -67 409 -109.5Q373 -152 330 -173Q287 -194 240 -194ZM222 153Q209 77 188 18Q167 -41 139 -85Q154 -68 181 -68Q214 -68 227.5 -82Q241 -96 247 -135Q249 -146 252.5 -149.5Q256 -153 262 -153Q271 -153 279.5 -148.5Q288 -144 296 -128Q304 -112 312 -80.5Q320 -49 328 5L396 459H273ZM283 522H405L406 527Q414 579 433 618Q421 625 414 640.5Q407 656 402 686Q399 699 392 703Q385 707 377 707Q363 707 350 702Q337 697 325.5 680.5Q314 664 304 632.5Q294 601 287 549Z" glyph-name="f_f" horiz-adv-x="643" unicode="&#64256;" /><glyph d="M-49 -204Q-101 -204 -127.5 -184Q-154 -164 -154 -132Q-154 -108 -139.5 -94Q-125 -80 -100 -80Q-72 -80 -56.5 -92Q-41 -104 -33 -145Q-31 -156 -27.5 -159.5Q-24 -163 -18 -163Q-11 -163 -4.5 -158Q2 -153 8.5 -135.5Q15 -118 21.5 -84.5Q28 -51 37 5L105 459H38L42 484L114 521L115 527Q125 586 151.5 628Q178 670 215.5 697Q253 724 298.5 736.5Q344 749 391 749Q438 749 468.5 738.5Q499 728 514 710Q554 737 602 749.5Q650 762 702 762Q777 762 811.5 738.5Q846 715 846 681Q846 653 828.5 634Q811 615 773 615Q755 615 742.5 618Q730 621 721.5 629.5Q713 638 707.5 653.5Q702 669 699 694Q697 709 692.5 714.5Q688 720 678 720Q660 720 645 713Q630 706 617.5 686.5Q605 667 595 632.5Q585 598 577 544L574 522H793Q832 522 847 507.5Q862 493 862 466Q862 434 842 354L788 142Q786 134 784 124Q782 114 782 106Q782 73 828 102L855 118L874 95Q858 79 836 60Q814 41 788 25Q762 9 733.5 -1.5Q705 -12 677 -12Q658 -12 645 -5.5Q632 1 623.5 10.5Q615 20 611 32Q607 44 607 56Q607 75 612 101Q617 127 623 151L685 403Q687 414 689 423.5Q691 433 691 440Q691 459 668 459H564L513 153Q498 64 471.5 -1.5Q445 -67 409 -109.5Q373 -152 330 -173Q287 -194 240 -194Q184 -194 156 -172Q128 -150 128 -120Q128 -104 133 -95Q57 -204 -49 -204ZM262 -153Q271 -153 279.5 -148.5Q288 -144 296 -128Q304 -112 312 -80.5Q320 -49 328 5L395 459H273L222 153Q209 77 188 18Q167 -41 139 -85Q154 -68 181 -68Q214 -68 227.5 -82Q241 -96 247 -135Q249 -146 252.5 -149.5Q256 -153 262 -153ZM404 522Q413 576 434 618Q421 624 414 639.5Q407 655 402 686Q399 699 392 703Q385 707 377 707Q363 707 350 702Q337 697 325.5 680.5Q314 664 304 632.5Q294 601 287 549L283 522Z" glyph-name="f_f_i" horiz-adv-x="888" unicode="&#64259;" /><glyph d="M240 -194Q184 -194 156 -172Q128 -150 128 -120Q128 -104 133 -95Q57 -204 -49 -204Q-101 -204 -127.5 -184Q-154 -164 -154 -132Q-154 -108 -139.5 -94Q-125 -80 -100 -80Q-72 -80 -56.5 -92Q-41 -104 -33 -145Q-31 -156 -27.5 -159.5Q-24 -163 -18 -163Q-11 -163 -4.5 -158Q2 -153 8.5 -135.5Q15 -118 21.5 -84.5Q28 -51 37 5L105 459H38L42 484L114 521L115 527Q125 586 151.5 628Q178 670 215.5 697Q253 724 298.5 736.5Q344 749 391 749Q437 749 467.5 738.5Q498 728 514 711Q550 737 593.5 749.5Q637 762 685 762Q737 762 769 749Q801 736 814 715L905 757L918 748Q913 732 909 714Q905 698 900.5 677Q896 656 891 631L793 135Q791 127 790 121Q789 115 789 108Q789 71 839 102L865 118L885 95Q868 78 845.5 59Q823 40 796.5 24.5Q770 9 741 -1.5Q712 -12 683 -12Q664 -12 651 -5.5Q638 1 630.5 10.5Q623 20 619.5 32Q616 44 616 56Q616 75 619.5 98.5Q623 122 628 145L723 628Q710 634 703 649.5Q696 665 693 697Q690 720 670 720Q654 720 640.5 713Q627 706 615.5 687Q604 668 595 634.5Q586 601 578 549L574 522H670L653 459H564L513 153Q498 64 471.5 -1.5Q445 -67 409 -109.5Q373 -152 330 -173Q287 -194 240 -194ZM222 153Q209 77 188 18Q167 -41 139 -85Q154 -68 181 -68Q214 -68 227.5 -82Q241 -96 247 -135Q249 -146 252.5 -149.5Q256 -153 262 -153Q270 -153 278 -148.5Q286 -144 294.5 -128Q303 -112 311.5 -80.5Q320 -49 328 5L396 459H273ZM283 522H405Q414 577 435 617Q421 623 414 639Q407 655 402 686Q399 699 392 703Q385 707 377 707Q363 707 350 702Q337 697 325.5 680.5Q314 664 304 632.5Q294 601 287 549Z" glyph-name="f_f_l" horiz-adv-x="894" unicode="&#64260;" /><glyph d="M-49 -204Q-101 -204 -127.5 -184Q-154 -164 -154 -132Q-154 -108 -139.5 -94Q-125 -80 -100 -80Q-72 -80 -56.5 -92Q-41 -104 -33 -145Q-31 -156 -27.5 -159.5Q-24 -163 -18 -163Q-11 -163 -4.5 -158Q2 -153 8.5 -135.5Q15 -118 21.5 -84.5Q28 -51 37 5L105 459H38L42 484L114 521L115 526Q127 590 155 634.5Q183 679 222 707.5Q261 736 309.5 749Q358 762 412 762Q486 762 520.5 738.5Q555 715 555 681Q555 653 537.5 634Q520 615 482 615Q464 615 451.5 618Q439 621 430.5 629.5Q422 638 416.5 653.5Q411 669 408 694Q406 709 402 714.5Q398 720 387 720Q369 720 354 713Q339 706 326.5 686.5Q314 667 304.5 632.5Q295 598 287 544L284 522H502Q541 522 556.5 507.5Q572 493 572 466Q572 450 566.5 421.5Q561 393 551 354L497 142Q495 134 493.5 124Q492 114 492 106Q492 73 538 102L564 118L584 95Q567 79 545 60Q523 41 497.5 25Q472 9 443.5 -1.5Q415 -12 387 -12Q368 -12 354.5 -5.5Q341 1 332.5 10.5Q324 20 320 32Q316 44 316 56Q316 75 321.5 101Q327 127 333 151L394 403Q400 425 400 440Q400 459 378 459H273L222 153Q207 64 180.5 -3Q154 -70 119 -114.5Q84 -159 41 -181.5Q-2 -204 -49 -204Z" glyph-name="f_i" horiz-adv-x="597" unicode="&#64257;" /><glyph d="M393 -12Q374 -12 361 -5.5Q348 1 340 10.5Q332 20 328.5 32Q325 44 325 56Q325 75 329 98.5Q333 122 338 145L433 628Q419 634 412 649.5Q405 665 402 697Q399 720 379 720Q363 720 349.5 713Q336 706 325 687Q314 668 304.5 634.5Q295 601 288 549L284 522H379L363 459H273L222 153Q207 64 180.5 -3Q154 -70 119 -114.5Q84 -159 41 -181.5Q-2 -204 -49 -204Q-101 -204 -127.5 -184Q-154 -164 -154 -132Q-154 -108 -139.5 -94Q-125 -80 -100 -80Q-72 -80 -56.5 -92Q-41 -104 -33 -145Q-31 -156 -27.5 -159.5Q-24 -163 -18 -163Q-11 -163 -4.5 -158Q2 -153 8.5 -135.5Q15 -118 21.5 -84.5Q28 -51 37 5L105 459H38L42 484L114 521L115 526Q127 587 153 631.5Q179 676 216 705Q253 734 298.5 748Q344 762 394 762Q447 762 478.5 749Q510 736 524 714L615 757L627 748Q623 732 619 714Q615 698 610.5 677Q606 656 601 631L503 135Q501 127 500 120.5Q499 114 499 106Q499 72 549 102L575 118L594 95Q577 78 554.5 59Q532 40 505.5 24.5Q479 9 450.5 -1.5Q422 -12 393 -12Z" glyph-name="f_l" horiz-adv-x="603" unicode="&#64258;" /><glyph d="M191 -13Q100 -13 47.5 15.5Q-5 44 -5 107Q-5 139 13.5 159Q32 179 67 179Q106 179 123 161.5Q140 144 142 93Q143 73 146 60.5Q149 48 155 40.5Q161 33 171.5 30.5Q182 28 199 28Q224 28 248.5 38Q273 48 292 68.5Q311 89 323 118.5Q335 148 335 187Q335 250 295.5 278.5Q256 307 191 307Q149 307 120.5 301Q92 295 78 290L68 299L168 693H456Q468 693 476 695Q484 697 491 702.5Q498 708 506 718.5Q514 729 525 747H557L513 559H183L153 436Q166 441 193.5 446.5Q221 452 268 452Q320 452 364 438.5Q408 425 439 400Q470 375 487.5 339Q505 303 505 258Q505 198 478.5 148Q452 98 408.5 62Q365 26 308 6.5Q251 -13 191 -13Z" glyph-name="five" horiz-adv-x="537" unicode="5" /><glyph d="M72 407H160L171 458Q199 587 264.5 646Q330 705 434 705Q475 705 502 696Q529 687 544.5 674Q560 661 566.5 645Q573 629 573 616Q573 586 556 568.5Q539 551 503 551Q471 551 454.5 567Q438 583 432 632Q430 650 426 656.5Q422 663 413 663Q404 663 397.5 659Q391 655 385 644.5Q379 634 373 614Q367 594 360 563L325 407H451L441 356H314L249 61Q233 -11 211.5 -60Q190 -109 159.5 -140Q129 -171 89.5 -184.5Q50 -198 -2 -198Q-38 -198 -62.5 -190.5Q-87 -183 -102 -171Q-117 -159 -123.5 -143.5Q-130 -128 -130 -112Q-130 -84 -114 -68Q-98 -52 -66 -52Q-36 -52 -20.5 -68.5Q-5 -85 -3 -129Q-1 -147 3 -152Q7 -157 15 -157Q27 -157 36.5 -140Q46 -123 56 -78L149 356H62Z" glyph-name="florin" horiz-adv-x="497" unicode="&#402;" /><glyph d="M165 30 198 37Q213 40 222 43.5Q231 47 237.5 54.5Q244 62 248 75.5Q252 89 257 113L270 191H0L10 249L424 693H550L475 267H570L554 191H462L448 113Q444 90 443.5 76.5Q443 63 446.5 55Q450 47 458 43.5Q466 40 478 37L512 30L508 0H160ZM283 267 327 517H324L96 271V267Z" glyph-name="four" horiz-adv-x="586" unicode="4" /><glyph d="M479 714H549L-81 -50H-152Z" glyph-name="fraction" horiz-adv-x="304" unicode="&#8260;" /><glyph d="M182 -212Q64 -212 -0.5 -180Q-65 -148 -65 -97Q-65 -73 -51.5 -55Q-38 -37 -16 -23.5Q6 -10 32.5 -1Q59 8 86 14V18Q59 27 38 48Q17 69 17 103Q17 124 26 142.5Q35 161 49 177Q63 193 80.5 205.5Q98 218 115 227V230Q79 249 58 277.5Q37 306 37 347Q37 390 57.5 424.5Q78 459 111.5 483.5Q145 508 187.5 521.5Q230 535 275 535Q311 535 341 527.5Q371 520 394 506Q417 527 447.5 546.5Q478 566 516 566Q545 566 559.5 552Q574 538 574 515Q574 492 559.5 474.5Q545 457 519 457Q496 457 486 465Q476 473 465 490Q458 501 446 499.5Q434 498 419 488V485Q441 468 454 442Q467 416 467 387Q467 344 446.5 309.5Q426 275 392.5 250.5Q359 226 316.5 213Q274 200 230 200Q204 200 183 203.5Q162 207 144 213Q134 205 127 195Q120 185 120 172Q120 160 129.5 151.5Q139 143 159 142L298 134Q386 129 429 94.5Q472 60 472 -8Q472 -54 449 -91.5Q426 -129 386.5 -156Q347 -183 294 -197.5Q241 -212 182 -212ZM199 -173Q271 -173 311 -146Q351 -119 351 -73Q351 -45 334 -31.5Q317 -18 279 -13L122 5Q104 -6 87 -25.5Q70 -45 70 -85Q70 -130 101.5 -151.5Q133 -173 199 -173ZM234 239Q254 239 269 254Q284 269 294.5 296Q305 323 310.5 359.5Q316 396 316 438Q316 497 270 497Q250 497 234.5 481.5Q219 466 208.5 439Q198 412 193 375.5Q188 339 188 297Q188 239 234 239Z" glyph-name="g" horiz-adv-x="507" unicode="g" /><glyph d="M322 330Q322 356 334 381Q346 406 364 430Q382 454 403 478Q424 502 442 527.5Q460 553 472 580Q484 607 484 637Q484 720 408 720Q368 720 337.5 688Q307 656 294 579L222 153Q207 64 180.5 -3Q154 -70 119 -114.5Q84 -159 41.5 -181.5Q-1 -204 -48 -204Q-101 -204 -127.5 -184Q-154 -164 -154 -132Q-154 -108 -139.5 -94Q-125 -80 -100 -80Q-72 -80 -56.5 -92Q-41 -104 -33 -145Q-31 -156 -27.5 -159.5Q-24 -163 -18 -163Q-11 -163 -4.5 -158Q2 -153 8.5 -135.5Q15 -118 21.5 -84.5Q28 -51 37 5L105 459H38L42 484L116 522L118 531Q128 587 155.5 630Q183 673 223.5 702.5Q264 732 314.5 747Q365 762 422 762Q467 762 505 753Q543 744 570.5 727Q598 710 614 686.5Q630 663 630 634Q630 606 615.5 583Q601 560 579 541.5Q557 523 531 508Q505 493 483 479.5Q461 466 446.5 453Q432 440 432 427Q432 412 447 398Q462 384 484.5 369Q507 354 533 336.5Q559 319 581.5 296Q604 273 619 243.5Q634 214 634 175Q634 137 618.5 102.5Q603 68 574 42.5Q545 17 504.5 2Q464 -13 414 -13Q336 -13 297 12.5Q258 38 258 81Q258 134 317 134Q330 134 340.5 131.5Q351 129 358.5 122Q366 115 371.5 102Q377 89 381 68Q385 48 394.5 39.5Q404 31 425 31Q455 31 474 47.5Q493 64 493 93Q493 118 480.5 137Q468 156 449 173Q430 190 407.5 206Q385 222 366 240Q347 258 334.5 279.5Q322 301 322 330Z" glyph-name="germandbls" horiz-adv-x="658" unicode="&#223;" /><glyph d="M224 613Q198 618 187 635.5Q176 653 176 670Q176 694 192 713.5Q208 733 233 733Q261 733 290 706L413 592L404 573Z" glyph-name="grave" horiz-adv-x="500" unicode="`" /><glyph d="M255 761Q226 766 215.5 781.5Q205 797 205 816Q205 842 220.5 861.5Q236 881 262 881Q276 881 289 875Q302 869 316 858L458 743L449 724Z" glyph-name="grave.uc" horiz-adv-x="500" /><glyph d="M49 187 385 333 49 479V545L452 362V303L49 120Z" glyph-name="greater" horiz-adv-x="473" unicode="&gt;" /><glyph d="M453 0H50V59H453ZM49 153V220L384 348L49 476V542L453 377V318Z" glyph-name="greaterequal" horiz-adv-x="473" unicode="&#8805;" /><glyph d="M206 248 207 267 418 460H453L338 257L377 45H343ZM24 248V267L236 460H271L156 257L195 45H161Z" glyph-name="guillemotleft" horiz-adv-x="457" unicode="&#171;" /><glyph d="M256 257 255 238 44 45H9L124 248L85 460H119ZM438 257V238L226 45H191L306 248L267 460H301Z" glyph-name="guillemotright" horiz-adv-x="457" unicode="&#187;" /><glyph d="M24 248V267L236 460H271L156 257L195 45H161Z" glyph-name="guilsinglleft" horiz-adv-x="274" unicode="&#8249;" /><glyph d="M256 257 255 238 44 45H9L124 248L85 460H119Z" glyph-name="guilsinglright" horiz-adv-x="274" unicode="&#8250;" /><glyph d="M385 -12Q366 -12 353.5 -5.5Q341 1 333.5 10.5Q326 20 323 32Q320 44 320 56Q320 75 324 98Q328 121 333 144L376 340Q387 389 383.5 405.5Q380 422 364 422Q335 422 303 397.5Q271 373 243 339L175 0H8L132 623Q136 642 137 654Q138 666 136 673.5Q134 681 128.5 686Q123 691 113 696L80 711L84 736L319 757L329 748Q324 732 319 714Q314 698 309.5 677Q305 656 300 631L275 499Q268 465 262.5 440.5Q257 416 252 399H257Q277 423 300 447Q323 471 349.5 490.5Q376 510 406 522.5Q436 535 471 535Q512 535 536 507Q560 479 560 439Q560 425 557 401.5Q554 378 550 361L497 135Q494 120 494 109Q494 72 540 102L564 116L583 93Q567 77 544.5 58.5Q522 40 496 24.5Q470 9 441.5 -1.5Q413 -12 385 -12Z" glyph-name="h" horiz-adv-x="597" unicode="h" /><glyph d="M127 590 206 715Q219 738 233 748.5Q247 759 261 759Q271 759 281.5 754Q292 749 300 741Q308 733 313.5 722.5Q319 712 319 700Q319 667 269 641L141 572ZM297 590 376 715Q389 738 403 748.5Q417 759 431 759Q441 759 451.5 754Q462 749 470 741Q478 733 483.5 722.5Q489 712 489 700Q489 667 439 641L311 572Z" glyph-name="hungarumlaut" horiz-adv-x="463" unicode="&#733;" /><glyph d="M342 740 405 852Q418 877 430.5 887.5Q443 898 459 898Q469 898 479.5 893.5Q490 889 498.5 881Q507 873 512.5 863Q518 853 518 841Q518 806 474 783L356 722ZM171 740 234 852Q248 877 260 887.5Q272 898 288 898Q298 898 308.5 893.5Q319 889 327.5 881Q336 873 341.5 863Q347 853 347 841Q347 806 303 783L186 722Z" glyph-name="hungarumlaut.uc" horiz-adv-x="463" /><glyph d="M41 342H260L239 236H21Z" glyph-name="hyphen" horiz-adv-x="271" unicode="-" /><glyph d="M92 -12Q73 -12 60 -5.5Q47 1 38.5 10.5Q30 20 26.5 32Q23 44 23 56Q23 75 28 101.5Q33 128 39 151L99 377Q101 388 102 396.5Q103 405 103 410Q103 429 89.5 426.5Q76 424 49 404L35 395L16 419Q34 439 57.5 460Q81 481 107 497.5Q133 514 160.5 524.5Q188 535 215 535Q253 535 267 513Q281 491 281 461Q281 449 277 420.5Q273 392 262 354L206 142Q204 134 202 124.5Q200 115 200 109Q200 73 247 102L271 117L290 93Q274 77 251.5 58.5Q229 40 203 24.5Q177 9 148.5 -1.5Q120 -12 92 -12ZM226 577Q188 577 162.5 600Q137 623 137 660Q137 698 163.5 721.5Q190 745 228 745Q265 745 291 722Q317 699 317 662Q317 624 290.5 600.5Q264 577 226 577Z" glyph-name="i" horiz-adv-x="305" unicode="i" /><glyph d="M124 592 251 708Q278 734 308 734Q331 734 346.5 715Q362 696 362 671Q362 652 350.5 635Q339 618 313 613L132 573ZM92 -12Q73 -12 60 -5.5Q47 1 38.5 10.5Q30 20 26.5 32Q23 44 23 56Q23 75 28 101.5Q33 128 39 151L99 377Q101 388 102 396.5Q103 405 103 410Q103 429 89.5 426.5Q76 424 49 404L35 395L16 419Q34 439 57.5 460Q81 481 107 497.5Q133 514 160.5 524.5Q188 535 215 535Q253 535 267 513Q281 491 281 461Q281 449 277 420.5Q273 392 262 354L206 142Q204 134 202 124.5Q200 115 200 109Q200 73 247 102L271 117L290 93Q274 77 251.5 58.5Q229 40 203 24.5Q177 9 148.5 -1.5Q120 -12 92 -12Z" glyph-name="iacute" horiz-adv-x="305" unicode="&#237;" /><glyph d="M65 588 205 733H257L353 588L340 570L220 630L75 570ZM92 -12Q73 -12 60 -5.5Q47 1 38.5 10.5Q30 20 26.5 32Q23 44 23 56Q23 75 28 101.5Q33 128 39 151L99 377Q101 388 102 396.5Q103 405 103 410Q103 429 89.5 426.5Q76 424 49 404L35 395L16 419Q34 439 57.5 460Q81 481 107 497.5Q133 514 160.5 524.5Q188 535 215 535Q253 535 267 513Q281 491 281 461Q281 449 277 420.5Q273 392 262 354L206 142Q204 134 202 124.5Q200 115 200 109Q200 73 247 102L271 117L290 93Q274 77 251.5 58.5Q229 40 203 24.5Q177 9 148.5 -1.5Q120 -12 92 -12Z" glyph-name="icircumflex" horiz-adv-x="305" unicode="&#238;" /><glyph d="M120 574Q87 574 64 595Q41 616 41 651Q41 686 64.5 708Q88 730 121 730Q154 730 177.5 708.5Q201 687 201 652Q201 617 177.5 595.5Q154 574 120 574ZM323 574Q290 574 266.5 595Q243 616 243 651Q243 686 266.5 708Q290 730 324 730Q356 730 379.5 708.5Q403 687 403 652Q403 617 379.5 595.5Q356 574 323 574ZM92 -12Q73 -12 60 -5.5Q47 1 38.5 10.5Q30 20 26.5 32Q23 44 23 56Q23 75 28 101.5Q33 128 39 151L99 377Q101 388 102 396.5Q103 405 103 410Q103 429 89.5 426.5Q76 424 49 404L35 395L16 419Q34 439 57.5 460Q81 481 107 497.5Q133 514 160.5 524.5Q188 535 215 535Q253 535 267 513Q281 491 281 461Q281 449 277 420.5Q273 392 262 354L206 142Q204 134 202 124.5Q200 115 200 109Q200 73 247 102L271 117L290 93Q274 77 251.5 58.5Q229 40 203 24.5Q177 9 148.5 -1.5Q120 -12 92 -12Z" glyph-name="idieresis" horiz-adv-x="305" unicode="&#239;" /><glyph d="M92 -12Q73 -12 60 -5.5Q47 1 38.5 10.5Q30 20 26.5 32Q23 44 23 56Q23 75 28 101.5Q33 128 39 151L99 377Q101 388 102 396.5Q103 405 103 410Q103 429 89.5 426.5Q76 424 49 404L35 395L16 419Q34 439 57.5 460Q81 481 107 497.5Q133 514 160.5 524.5Q188 535 215 535Q253 535 267 513Q281 491 281 461Q281 449 277 420.5Q273 392 262 354L206 142Q204 134 202 124.5Q200 115 200 109Q200 73 247 102L271 117L290 93Q274 77 251.5 58.5Q229 40 203 24.5Q177 9 148.5 -1.5Q120 -12 92 -12ZM136 613Q110 618 99 635.5Q88 653 88 670Q88 694 104 713.5Q120 733 145 733Q173 733 202 706L325 592L316 573Z" glyph-name="igrave" horiz-adv-x="305" unicode="&#236;" /><glyph d="M-60 -204Q-117 -204 -147 -179.5Q-177 -155 -177 -121Q-177 -95 -161 -80.5Q-145 -66 -118 -66Q-87 -66 -71 -81Q-55 -96 -47 -144Q-43 -161 -32 -161Q-25 -161 -18.5 -156Q-12 -151 -5.5 -137Q1 -123 8 -96.5Q15 -70 23 -27L99 377Q101 388 102 396.5Q103 405 103 410Q103 429 89.5 426.5Q76 424 49 404L35 395L16 419Q34 439 57.5 460Q81 481 107 497.5Q133 514 160.5 524.5Q188 535 215 535Q253 535 267 513Q281 491 281 461Q281 449 276 421Q271 393 263 354L198 63Q169 -68 103 -136Q37 -204 -60 -204ZM226 577Q188 577 162.5 600Q137 623 137 660Q137 698 163.5 721.5Q190 745 228 745Q265 745 291 722Q317 699 317 662Q317 624 290.5 600.5Q264 577 226 577Z" glyph-name="j" horiz-adv-x="301" unicode="j" /><glyph d="M379 -12Q348 -12 329.5 9.5Q311 31 294 78Q281 113 268.5 152.5Q256 192 240 249L243 265Q278 316 314 365Q350 414 385 451.5Q420 489 453.5 512Q487 535 519 535Q544 535 561.5 518Q579 501 579 469Q579 437 560 420Q541 403 519 403Q501 403 490.5 409Q480 415 474 422.5Q468 430 463.5 436Q459 442 452 442Q445 442 434 435.5Q423 429 411 418Q399 407 386.5 393Q374 379 364 364Q390 288 409.5 234Q429 180 446 138Q455 116 461.5 105Q468 94 475 91Q482 88 490.5 92Q499 96 512 104L531 116L550 93Q532 75 511 56Q490 37 468.5 22Q447 7 424 -2.5Q401 -12 379 -12ZM131 623Q135 642 136.5 654Q138 666 136 673.5Q134 681 128.5 686Q123 691 113 696L80 711L84 736L319 757L329 748Q324 732 319 714Q314 698 309.5 677Q305 656 300 631L175 0H7Z" glyph-name="k" horiz-adv-x="561" unicode="k" /><glyph d="M93 -12Q74 -12 61 -5.5Q48 1 40 10.5Q32 20 28.5 32Q25 44 25 56Q25 76 29 99Q33 122 38 145L132 623Q136 642 137.5 654Q139 666 137 673.5Q135 681 129.5 686Q124 691 114 696L79 711L83 736L320 757L330 748Q325 732 320 714Q315 698 310.5 677Q306 656 301 631L203 135Q201 127 200 120Q199 113 199 105Q199 72 249 104L273 118L292 95Q274 77 251.5 58.5Q229 40 203.5 24Q178 8 150 -2Q122 -12 93 -12Z" glyph-name="l" horiz-adv-x="306" unicode="l" /><glyph d="M41 303V362L444 545V479L108 333L444 187V120Z" glyph-name="less" horiz-adv-x="473" unicode="&lt;" /><glyph d="M33 59H437V0H33ZM33 318V377L437 542V476L103 348L437 220V153Z" glyph-name="lessequal" horiz-adv-x="473" unicode="&#8804;" /><glyph d="M11 314 77 342 132 623Q136 642 137.5 654Q139 666 137 673.5Q135 681 129.5 686Q124 691 114 696L79 711L83 736L320 757L330 748Q325 732 320 714Q315 698 310.5 677Q306 656 301 631L259 422L338 456L329 403L249 368L203 135Q201 127 200 120Q199 113 199 105Q199 72 249 104L273 118L292 95Q274 77 251.5 58.5Q229 40 203.5 24Q178 8 150 -2Q122 -12 93 -12Q74 -12 61 -5.5Q48 1 40 10.5Q32 20 28.5 32Q25 44 25 56Q25 76 29 99Q33 122 38 145L66 289L2 261Z" glyph-name="lslash" horiz-adv-x="306" unicode="&#322;" /><glyph d="M673 -12Q654 -12 641 -5.5Q628 1 620.5 10.5Q613 20 610 32Q607 44 607 56Q607 75 611 98Q615 121 620 144L663 340Q674 389 670.5 405.5Q667 422 651 422Q627 422 600 398.5Q573 375 549 345L475 0H306L379 340Q389 389 385 405.5Q381 422 365 422Q340 422 313 398Q286 374 262 343L188 0H19L99 377Q101 388 102 396.5Q103 405 103 410Q103 429 89.5 426.5Q76 424 49 404L36 395L16 420Q34 440 57 460.5Q80 481 104.5 497.5Q129 514 155 524.5Q181 535 207 535Q243 535 256.5 515Q270 495 270 470Q270 458 267.5 434.5Q265 411 260 396H265Q285 420 307.5 445Q330 470 355.5 490Q381 510 410.5 522.5Q440 535 473 535Q513 535 536.5 508.5Q560 482 560 439Q560 433 559.5 423.5Q559 414 557 405H561Q580 428 601.5 451.5Q623 475 647 493.5Q671 512 698.5 523.5Q726 535 758 535Q799 535 823 507Q847 479 847 439Q847 425 844 401.5Q841 378 837 361L785 135Q783 127 782 121Q781 115 781 109Q781 73 828 102L851 116L871 93Q854 77 832 58.5Q810 40 784 24.5Q758 9 729.5 -1.5Q701 -12 673 -12Z" glyph-name="m" horiz-adv-x="885" unicode="m" /><glyph d="M190 680H445L432 605H177Z" glyph-name="macron" horiz-adv-x="498" unicode="&#175;" /><glyph d="M199 817H487L474 741H186Z" glyph-name="macron.uc" horiz-adv-x="498" /><glyph d="M42 368H446V309H42Z" glyph-name="minus" horiz-adv-x="465" unicode="&#8722;" /><glyph d="M44 188 186 339 50 484 94 526 227 383 362 526 405 484 269 339 411 188 367 147 227 295 88 147Z" glyph-name="multiply" horiz-adv-x="431" unicode="&#215;" /><glyph d="M398 -12Q379 -12 366.5 -5.5Q354 1 346.5 10.5Q339 20 336 32Q333 44 333 56Q333 75 336.5 98Q340 121 345 144L389 340Q400 389 396.5 405.5Q393 422 376 422Q348 422 317 398Q286 374 262 342L188 0H19L99 377Q101 388 102 396.5Q103 405 103 410Q103 429 89.5 426.5Q76 424 49 404L36 395L16 420Q34 440 57 460.5Q80 481 104.5 497.5Q129 514 155 524.5Q181 535 207 535Q243 535 256.5 515Q270 495 270 470Q270 458 267 434Q264 410 260 395H265Q286 420 309.5 445Q333 470 360 490Q387 510 418 522.5Q449 535 484 535Q524 535 548 507Q572 479 572 439Q572 425 569 401.5Q566 378 562 361L510 135Q507 120 507 109Q507 73 553 102L576 116L596 93Q579 77 557 58.5Q535 40 509 24.5Q483 9 454.5 -1.5Q426 -12 398 -12Z" glyph-name="n" horiz-adv-x="610" unicode="n" /><glyph d="M188 -13Q95 -13 52.5 15.5Q10 44 10 91Q10 160 84 160Q126 160 144.5 139.5Q163 119 166 67Q167 42 175 35Q183 28 202 28Q232 28 261.5 45Q291 62 316.5 98Q342 134 362.5 189Q383 244 396 321Q373 306 336 293Q299 280 248 280Q207 280 172.5 291Q138 302 113 323.5Q88 345 74 376Q60 407 60 448Q60 499 81.5 546Q103 593 142.5 628Q182 663 237.5 684Q293 705 362 705Q413 705 458 689.5Q503 674 536.5 642.5Q570 611 589 563.5Q608 516 608 453Q608 351 571.5 265Q535 179 476 117.5Q417 56 341.5 21.5Q266 -13 188 -13ZM323 340Q348 340 367.5 345.5Q387 351 403 359Q416 416 422 467.5Q428 519 428 557Q428 608 412 636Q396 664 358 664Q327 664 306 640.5Q285 617 271.5 582Q258 547 252 506.5Q246 466 246 433Q246 383 264 361.5Q282 340 323 340Z" glyph-name="nine" horiz-adv-x="606" unicode="9" /><glyph d="M42 442H300L381 583H444L363 442H499V385H330L276 292H499V235H243L162 93H99L180 235H42V292H213L267 385H42Z" glyph-name="notequal" horiz-adv-x="519" unicode="&#8800;" /><glyph d="M398 -12Q379 -12 366.5 -5.5Q354 1 346.5 10.5Q339 20 336 32Q333 44 333 56Q333 75 336.5 98Q340 121 345 144L389 340Q400 389 396.5 405.5Q393 422 376 422Q348 422 317 398Q286 374 262 342L188 0H19L99 377Q101 388 102 396.5Q103 405 103 410Q103 429 89.5 426.5Q76 424 49 404L36 395L16 420Q34 440 57 460.5Q80 481 104.5 497.5Q129 514 155 524.5Q181 535 207 535Q243 535 256.5 515Q270 495 270 470Q270 458 267 434Q264 410 260 395H265Q286 420 309.5 445Q333 470 360 490Q387 510 418 522.5Q449 535 484 535Q524 535 548 507Q572 479 572 439Q572 425 569 401.5Q566 378 562 361L510 135Q507 120 507 109Q507 73 553 102L576 116L596 93Q579 77 557 58.5Q535 40 509 24.5Q483 9 454.5 -1.5Q426 -12 398 -12ZM225 587Q253 643 277.5 676Q302 709 337 709Q353 709 369.5 705Q386 701 403.5 695.5Q421 690 437.5 686Q454 682 470 682Q485 682 495.5 690Q506 698 524 721L548 707Q521 651 497 618Q473 585 436 585Q420 585 403.5 589Q387 593 369.5 598.5Q352 604 335.5 608Q319 612 303 612Q288 612 277.5 604Q267 596 249 573Z" glyph-name="ntilde" horiz-adv-x="610" unicode="&#241;" /><glyph d="M92 176H5L34 290H123L154 406H66L96 520H186L231 693H287L240 520H348L396 693H451L404 520H493L463 406H373L343 290H432L402 176H311L265 0H209L256 176H147L100 0H46ZM287 290 318 406H210L178 290Z" glyph-name="numbersign" horiz-adv-x="461" unicode="#" /><glyph d="M231 -13Q175 -13 134 3.5Q93 20 65.5 48Q38 76 24.5 113.5Q11 151 11 194Q11 273 38.5 336.5Q66 400 110 444Q154 488 209 511.5Q264 535 319 535Q374 535 415.5 519Q457 503 484.5 475Q512 447 525.5 409.5Q539 372 539 329Q539 249 511.5 186Q484 123 440 78.5Q396 34 341 10.5Q286 -13 231 -13ZM232 29Q267 29 293.5 64Q320 99 338 152Q356 205 365.5 268Q375 331 375 388Q375 494 316 494Q282 494 255.5 459.5Q229 425 211 372Q193 319 183.5 255.5Q174 192 174 135Q174 84 188 56.5Q202 29 232 29Z" glyph-name="o" horiz-adv-x="551" unicode="o" /><glyph d="M244 592 371 708Q398 734 428 734Q451 734 466.5 715Q482 696 482 671Q482 652 470.5 635Q459 618 433 613L252 573ZM231 -13Q175 -13 134 3.5Q93 20 65.5 48Q38 76 24.5 113.5Q11 151 11 194Q11 273 38.5 336.5Q66 400 110 444Q154 488 209 511.5Q264 535 319 535Q374 535 415.5 519Q457 503 484.5 475Q512 447 525.5 409.5Q539 372 539 329Q539 249 511.5 186Q484 123 440 78.5Q396 34 341 10.5Q286 -13 231 -13ZM232 29Q267 29 293.5 64Q320 99 338 152Q356 205 365.5 268Q375 331 375 388Q375 494 316 494Q282 494 255.5 459.5Q229 425 211 372Q193 319 183.5 255.5Q174 192 174 135Q174 84 188 56.5Q202 29 232 29Z" glyph-name="oacute" horiz-adv-x="551" unicode="&#243;" /><glyph d="M184 588 324 733H376L472 588L459 570L339 630L194 570ZM231 -13Q175 -13 134 3.5Q93 20 65.5 48Q38 76 24.5 113.5Q11 151 11 194Q11 273 38.5 336.5Q66 400 110 444Q154 488 209 511.5Q264 535 319 535Q374 535 415.5 519Q457 503 484.5 475Q512 447 525.5 409.5Q539 372 539 329Q539 249 511.5 186Q484 123 440 78.5Q396 34 341 10.5Q286 -13 231 -13ZM232 29Q267 29 293.5 64Q320 99 338 152Q356 205 365.5 268Q375 331 375 388Q375 494 316 494Q282 494 255.5 459.5Q229 425 211 372Q193 319 183.5 255.5Q174 192 174 135Q174 84 188 56.5Q202 29 232 29Z" glyph-name="ocircumflex" horiz-adv-x="551" unicode="&#244;" /><glyph d="M240 574Q207 574 184 595Q161 616 161 651Q161 686 184.5 708Q208 730 241 730Q274 730 297.5 708.5Q321 687 321 652Q321 617 297.5 595.5Q274 574 240 574ZM443 574Q410 574 386.5 595Q363 616 363 651Q363 686 386.5 708Q410 730 444 730Q476 730 499.5 708.5Q523 687 523 652Q523 617 499.5 595.5Q476 574 443 574ZM231 -13Q175 -13 134 3.5Q93 20 65.5 48Q38 76 24.5 113.5Q11 151 11 194Q11 273 38.5 336.5Q66 400 110 444Q154 488 209 511.5Q264 535 319 535Q374 535 415.5 519Q457 503 484.5 475Q512 447 525.5 409.5Q539 372 539 329Q539 249 511.5 186Q484 123 440 78.5Q396 34 341 10.5Q286 -13 231 -13ZM232 29Q267 29 293.5 64Q320 99 338 152Q356 205 365.5 268Q375 331 375 388Q375 494 316 494Q282 494 255.5 459.5Q229 425 211 372Q193 319 183.5 255.5Q174 192 174 135Q174 84 188 56.5Q202 29 232 29Z" glyph-name="odieresis" horiz-adv-x="551" unicode="&#246;" /><glyph d="M541 -13Q491 -13 456.5 7.5Q422 28 402 61Q364 26 320 6.5Q276 -13 228 -13Q172 -13 131.5 3.5Q91 20 64.5 48Q38 76 25 113.5Q12 151 12 194Q12 273 39 336.5Q66 400 109 444Q152 488 206 511.5Q260 535 315 535Q386 535 426.5 505.5Q467 476 487 434Q530 480 582 507.5Q634 535 688 535Q760 535 799.5 506Q839 477 839 428Q839 390 809.5 359.5Q780 329 734.5 306Q689 283 633.5 265.5Q578 248 527 235Q526 223 525.5 211Q525 199 525 187Q525 132 545 102Q565 72 616 72Q651 72 685.5 94Q720 116 755 148L780 127Q765 107 741.5 82.5Q718 58 688 37Q658 16 621 1.5Q584 -13 541 -13ZM230 29Q264 29 290.5 63.5Q317 98 335 151.5Q353 205 362 270Q371 335 371 397Q371 442 357 468Q343 494 314 494Q280 494 254 459.5Q228 425 210.5 371.5Q193 318 184 253Q175 188 175 127Q175 82 188 55.5Q201 29 230 29ZM662 494Q645 494 626 477.5Q607 461 589 432Q571 403 555.5 363Q540 323 532 275Q572 289 600.5 302.5Q629 316 649 333Q672 353 681.5 378Q691 403 691 442Q691 494 662 494Z" glyph-name="oe" horiz-adv-x="826" unicode="&#339;" /><glyph d="M125 -203Q81 -203 54.5 -184Q28 -165 28 -133Q28 -112 39 -93Q50 -74 69.5 -57.5Q89 -41 115 -26.5Q141 -12 172 0H209Q186 -22 165.5 -49Q145 -76 145 -111Q145 -131 156 -140Q167 -149 186 -149Q193 -149 202.5 -147.5Q212 -146 220 -144L216 -174Q205 -182 183 -192.5Q161 -203 125 -203Z" glyph-name="ogonek" horiz-adv-x="382" unicode="&#731;" /><glyph d="M231 -13Q175 -13 134 3.5Q93 20 65.5 48Q38 76 24.5 113.5Q11 151 11 194Q11 273 38.5 336.5Q66 400 110 444Q154 488 209 511.5Q264 535 319 535Q374 535 415.5 519Q457 503 484.5 475Q512 447 525.5 409.5Q539 372 539 329Q539 249 511.5 186Q484 123 440 78.5Q396 34 341 10.5Q286 -13 231 -13ZM232 29Q267 29 293.5 64Q320 99 338 152Q356 205 365.5 268Q375 331 375 388Q375 494 316 494Q282 494 255.5 459.5Q229 425 211 372Q193 319 183.5 255.5Q174 192 174 135Q174 84 188 56.5Q202 29 232 29ZM255 613Q229 618 218 635.5Q207 653 207 670Q207 694 223 713.5Q239 733 264 733Q292 733 321 706L444 592L435 573Z" glyph-name="ograve" horiz-adv-x="551" unicode="&#242;" /><glyph d="M-20 30 16 37Q31 40 41 43.5Q51 47 57.5 54.5Q64 62 68 75.5Q72 89 77 113L149 530L69 542L74 576Q154 588 226 621Q298 654 346 702L374 695L272 113Q268 90 267 76.5Q266 63 269.5 55Q273 47 281 43.5Q289 40 303 37L339 30L335 0H-26Z" glyph-name="one" horiz-adv-x="398" unicode="1" /><glyph d="M22 333 44 339Q54 342 60.5 344.5Q67 347 70.5 351.5Q74 356 76.5 364Q79 372 82 386L117 581L65 591L70 618Q126 626 172 647Q218 668 250 703L274 697L218 384Q213 358 218 350Q223 342 244 337L261 333L257 304H18ZM652 714H721L91 -50H21ZM428 61Q470 87 505.5 113Q541 139 568 165Q605 200 625 237Q645 274 645 319Q645 343 634.5 353.5Q624 364 606 364Q598 364 592.5 360Q587 356 585 339Q579 298 566 285.5Q553 273 527 273Q500 273 488 285.5Q476 298 476 316Q476 335 487 349.5Q498 364 517.5 374.5Q537 385 563.5 390.5Q590 396 620 396Q686 396 727 370Q768 344 768 292Q768 235 708 189Q648 143 533 98V95H665Q675 95 681.5 96.5Q688 98 694 103.5Q700 109 707 118.5Q714 128 723 143H751L723 0H420Z" glyph-name="onehalf" horiz-adv-x="800" unicode="&#189;" /><glyph d="M22 333 44 339Q54 342 60.5 344.5Q67 347 70.5 351.5Q74 356 76.5 364Q79 372 82 386L117 581L65 591L70 618Q126 626 172 647Q218 668 250 703L274 697L218 384Q213 358 218 350Q223 342 244 337L261 333L257 304H18ZM654 714H723L93 -50H23ZM446 29 466 34Q477 37 483.5 39.5Q490 42 494 46.5Q498 51 500.5 59Q503 67 505 79L510 106H352L359 144L590 389H694L651 154H706L698 106H643L639 83Q634 54 636.5 46Q639 38 659 34L680 29L675 0H441ZM519 154 540 281H536L420 158V154Z" glyph-name="onequarter" horiz-adv-x="768" unicode="&#188;" /><glyph d="M22 333 44 339Q54 342 60.5 344.5Q67 347 70.5 351.5Q74 356 76.5 364Q79 372 82 386L117 581L65 591L70 618Q126 626 172 647Q218 668 250 703L274 697L218 384Q213 358 218 350Q223 342 244 337L261 333L257 304H18Z" glyph-name="onesuperior" horiz-adv-x="265" unicode="&#185;" /><glyph d="M144 259Q96 259 70 291Q44 323 44 379Q44 442 66.5 500.5Q89 559 126.5 603.5Q164 648 213.5 674.5Q263 701 317 701Q355 701 383.5 692Q412 683 436 664H439L498 703L513 696Q508 684 503 666Q498 650 492 626.5Q486 603 479 571L437 383Q436 377 435.5 372.5Q435 368 435 364Q435 349 443 347.5Q451 346 470 357L487 368L505 347Q493 335 474.5 320Q456 305 434.5 291.5Q413 278 388.5 269Q364 260 340 260Q322 260 311 265.5Q300 271 295 279.5Q290 288 288.5 297Q287 306 287 314Q287 320 287.5 328.5Q288 337 288 342H285Q258 308 223 283.5Q188 259 144 259ZM223 345Q240 345 259.5 359Q279 373 293 390L346 639Q343 650 335 658Q327 666 312 666Q291 666 270 641Q249 616 231.5 576.5Q214 537 203.5 488Q193 439 193 391Q193 366 200.5 355.5Q208 345 223 345Z" glyph-name="ordfeminine" horiz-adv-x="501" unicode="&#170;" /><glyph d="M241 260Q194 260 158 273Q122 286 98 309.5Q74 333 62 364.5Q50 396 50 432Q50 493 71.5 543Q93 593 127.5 628Q162 663 206.5 682.5Q251 702 298 702Q345 702 380.5 689Q416 676 440 652.5Q464 629 476 597.5Q488 566 488 530Q488 469 466.5 419.5Q445 370 410.5 334.5Q376 299 331.5 279.5Q287 260 241 260ZM240 296Q264 296 283.5 323.5Q303 351 316.5 394Q330 437 337.5 489Q345 541 345 590Q345 632 333.5 649Q322 666 298 666Q274 666 255 638.5Q236 611 222 568Q208 525 200.5 473Q193 421 193 372Q193 334 203.5 315Q214 296 240 296Z" glyph-name="ordmasculine" horiz-adv-x="475" unicode="&#186;" /><glyph d="M11 194Q11 273 38.5 336.5Q66 400 110 444Q154 488 209 511.5Q264 535 319 535Q351 535 379 529Q407 523 430 512L482 586H533L466 491Q503 463 521 421Q539 379 539 329Q539 249 511.5 186Q484 123 440 78.5Q396 34 341 10.5Q286 -13 231 -13Q173 -13 127 6L78 -64H27L90 26Q50 55 30.5 98.5Q11 142 11 194ZM316 494Q282 494 255 460.5Q228 427 208.5 375Q189 323 178.5 259.5Q168 196 168 137L379 438Q367 494 316 494ZM232 29Q265 29 292 61Q319 93 338.5 143Q358 193 369 253.5Q380 314 382 371L174 74Q187 29 232 29Z" glyph-name="oslash" horiz-adv-x="551" unicode="&#248;" /><glyph d="M231 -13Q175 -13 134 3.5Q93 20 65.5 48Q38 76 24.5 113.5Q11 151 11 194Q11 273 38.5 336.5Q66 400 110 444Q154 488 209 511.5Q264 535 319 535Q374 535 415.5 519Q457 503 484.5 475Q512 447 525.5 409.5Q539 372 539 329Q539 249 511.5 186Q484 123 440 78.5Q396 34 341 10.5Q286 -13 231 -13ZM232 29Q267 29 293.5 64Q320 99 338 152Q356 205 365.5 268Q375 331 375 388Q375 494 316 494Q282 494 255.5 459.5Q229 425 211 372Q193 319 183.5 255.5Q174 192 174 135Q174 84 188 56.5Q202 29 232 29ZM190 587Q218 643 242.5 676Q267 709 302 709Q318 709 334.5 705Q351 701 368.5 695.5Q386 690 402.5 686Q419 682 435 682Q450 682 460.5 690Q471 698 489 721L513 707Q486 651 462 618Q438 585 401 585Q385 585 368.5 589Q352 593 334.5 598.5Q317 604 300.5 608Q284 612 268 612Q253 612 242.5 604Q232 596 214 573Z" glyph-name="otilde" horiz-adv-x="551" unicode="&#245;" /><glyph d="M-76 -178 -52 -172Q-38 -169 -29.5 -165Q-21 -161 -16 -155Q-11 -149 -7.5 -139Q-4 -129 -1 -113L99 377Q101 388 102 396.5Q103 405 103 410Q103 429 89.5 426.5Q76 424 49 404L36 395L16 420Q34 440 57 460.5Q80 481 105.5 497.5Q131 514 158.5 524.5Q186 535 215 535Q248 535 260.5 515.5Q273 496 273 472Q273 466 272 456.5Q271 447 270 437Q269 427 267 417Q265 407 264 400H268Q287 425 309 449Q331 473 356 492Q381 511 408.5 523Q436 535 466 535Q523 535 554 489Q585 443 585 365Q585 290 560.5 221.5Q536 153 493.5 101Q451 49 392 18Q333 -13 264 -13Q239 -13 221 -9.5Q203 -6 189 0Q188 -7 187 -15Q186 -22 185 -31Q184 -40 182 -50L169 -113Q166 -130 164.5 -140Q163 -150 165.5 -156Q168 -162 174.5 -165Q181 -168 193 -171L224 -178L219 -207H-81ZM271 29Q304 29 331 60Q358 91 376.5 139.5Q395 188 405.5 248.5Q416 309 416 368Q416 401 405.5 415Q395 429 375 429Q360 429 344.5 421.5Q329 414 314 403Q299 392 286 378.5Q273 365 264 352L203 69Q211 55 227.5 42Q244 29 271 29Z" glyph-name="p" horiz-adv-x="595" unicode="p" /><glyph d="M251 332Q245 331 235.5 330.5Q226 330 215 330Q173 330 142 342.5Q111 355 90.5 376.5Q70 398 60 426.5Q50 455 49 487Q49 532 63.5 569.5Q78 607 106 634.5Q134 662 175 677.5Q216 693 268 693H581L576 663L543 656Q531 653 522.5 649.5Q514 646 508.5 638.5Q503 631 499 617.5Q495 604 491 580L371 -100H315L447 647H362L230 -100H175Z" glyph-name="paragraph" horiz-adv-x="515" unicode="&#182;" /><glyph d="M252 -140Q220 -108 187 -68Q154 -28 128 20.5Q102 69 85.5 125.5Q69 182 69 246Q69 335 100.5 411.5Q132 488 180.5 550.5Q229 613 288.5 662Q348 711 405 746L425 728Q368 681 323 623Q278 565 246.5 499Q215 433 198 361Q181 289 181 213Q181 107 206.5 23Q232 -61 276 -122L252 -140Z" glyph-name="parenleft" horiz-adv-x="354" unicode="(" /><glyph d="M106 746Q138 714 170.5 674Q203 634 229.5 586Q256 538 272.5 481.5Q289 425 289 361Q289 272 257.5 195.5Q226 119 177.5 56Q129 -7 69.5 -56Q10 -105 -47 -140L-67 -122Q-10 -75 35 -17Q80 41 112 107Q144 173 161 245Q178 317 178 393Q178 499 152 583.5Q126 668 81 729L106 746Z" glyph-name="parenright" horiz-adv-x="354" unicode=")" /><glyph d="M175 452Q175 412 184.5 395Q194 378 214 378Q236 378 252 401.5Q268 425 279 459.5Q290 494 295.5 531.5Q301 569 301 598Q301 636 292 653.5Q283 671 263 671Q241 671 224.5 646.5Q208 622 197 587.5Q186 553 180.5 515.5Q175 478 175 452ZM211 343Q180 343 152 352.5Q124 362 103 380.5Q82 399 69.5 426Q57 453 57 488Q57 537 76 577Q95 617 125 645.5Q155 674 192 689.5Q229 705 265 705Q295 705 323 695.5Q351 686 372.5 668Q394 650 406.5 623.5Q419 597 419 563Q419 513 400 472.5Q381 432 351 403Q321 374 284 358.5Q247 343 211 343ZM662 714H729L107 -50H39ZM489 96Q489 56 499 39Q509 22 528 22Q550 22 566.5 45.5Q583 69 594 103Q605 137 610.5 175Q616 213 616 241Q616 280 606.5 297.5Q597 315 577 315Q555 315 538.5 290.5Q522 266 511 231.5Q500 197 494.5 159.5Q489 122 489 96ZM371 132Q371 181 390 221Q409 261 439.5 289.5Q470 318 507 333.5Q544 349 580 349Q610 349 638 339.5Q666 330 687 312Q708 294 721 267.5Q734 241 734 207Q734 157 715 116.5Q696 76 666 47Q636 18 598.5 2.5Q561 -13 525 -13Q494 -13 466 -3.5Q438 6 417 24.5Q396 43 383.5 70Q371 97 371 132Z" glyph-name="percent" horiz-adv-x="759" unicode="%" /><glyph d="M82 -7Q64 -7 48.5 0Q33 7 21.5 19Q10 31 3.5 46.5Q-3 62 -3 80Q-1 118 25.5 142.5Q52 167 87 167Q122 167 147 142.5Q172 118 172 80Q171 62 163.5 46.5Q156 31 143.5 19Q131 7 115 0Q99 -7 82 -7Z" glyph-name="period" horiz-adv-x="233" unicode="." /><glyph d="M129 249Q112 249 96.5 256Q81 263 69.5 275Q58 287 51.5 303Q45 319 45 336Q45 355 52.5 371Q60 387 72.5 399Q85 411 101 417.5Q117 424 134 424Q169 424 194 399Q219 374 219 336Q219 319 211.5 303Q204 287 191.5 275Q179 263 163 256Q147 249 129 249Z" glyph-name="periodcentered" horiz-adv-x="235" unicode="&#183;" /><glyph d="M214 378Q236 378 252 401.5Q268 425 279 459.5Q290 494 295.5 531.5Q301 569 301 598Q301 636 292 653.5Q283 671 263 671Q241 671 224.5 646.5Q208 622 197 587.5Q186 553 180.5 515.5Q175 478 175 452Q175 412 184.5 395Q194 378 214 378ZM211 343Q180 343 152 352.5Q124 362 103 380.5Q82 399 69.5 426Q57 453 57 488Q57 537 76 577Q95 617 125 645.5Q155 674 192 689.5Q229 705 265 705Q295 705 323 695.5Q351 686 372.5 668Q394 650 406.5 623.5Q419 597 419 563Q419 513 400 472.5Q381 432 351 403Q321 374 284 358.5Q247 343 211 343ZM662 714H729L107 -50H39ZM528 22Q550 22 566.5 45.5Q583 69 594 103Q605 137 610.5 175Q616 213 616 241Q616 280 606.5 297.5Q597 315 577 315Q555 315 538.5 290.5Q522 266 511 231.5Q500 197 494.5 159.5Q489 122 489 96Q489 56 499 39Q509 22 528 22ZM525 -13Q494 -13 466 -3.5Q438 6 417 24.5Q396 43 383.5 70Q371 97 371 132Q371 181 390 221Q409 261 439.5 289.5Q470 318 507 333.5Q544 349 580 349Q610 349 638 339.5Q666 330 687 312Q708 294 721 267.5Q734 241 734 207Q734 157 715 116.5Q696 76 666 47Q636 18 598.5 2.5Q561 -13 525 -13ZM917 22Q939 22 955.5 45.5Q972 69 983 103Q994 137 999.5 175Q1005 213 1005 241Q1005 280 995.5 297.5Q986 315 966 315Q944 315 927.5 290.5Q911 266 900 231.5Q889 197 883.5 159.5Q878 122 878 96Q878 56 888 39Q898 22 917 22ZM914 -13Q883 -13 855 -3.5Q827 6 806 24.5Q785 43 772.5 70Q760 97 760 132Q760 181 779 221Q798 261 828.5 289.5Q859 318 896 333.5Q933 349 969 349Q999 349 1027 339.5Q1055 330 1076 312Q1097 294 1110 267.5Q1123 241 1123 207Q1123 157 1104 116.5Q1085 76 1055 47Q1025 18 987.5 2.5Q950 -13 914 -13Z" glyph-name="perthousand" horiz-adv-x="1145" unicode="&#8240;" /><glyph d="M212 309H44V368H212V547H279V368H447V309H279V130H212Z" glyph-name="plus" horiz-adv-x="465" unicode="+" /><glyph d="M218 327H50V386H218V555H285V386H454V327H285V158H218ZM49 60H454V1H49Z" glyph-name="plusminus" horiz-adv-x="466" unicode="&#177;" /><glyph d="M187 -178 218 -171Q231 -168 239 -165Q247 -162 252 -156Q257 -150 260 -140Q263 -130 266 -113L290 0Q296 28 302.5 52.5Q309 77 316 96H312Q296 76 276 57Q256 38 233 22Q210 6 184 -3.5Q158 -13 130 -13Q70 -13 38 26.5Q6 66 6 138Q6 217 35 289Q64 361 111.5 415.5Q159 470 220 502.5Q281 535 345 535Q394 535 428.5 524Q463 513 492 492H496L563 537L581 529Q575 514 568 492Q562 473 554.5 444Q547 415 539 373L439 -113Q436 -130 435.5 -140Q435 -150 438 -156Q441 -162 447.5 -165.5Q454 -169 466 -172L490 -178L483 -207H181ZM217 82Q230 82 244 88.5Q258 95 272 105.5Q286 116 299 129.5Q312 143 322 156L387 456Q382 471 370 482Q358 493 336 493Q307 493 278 462.5Q249 432 226 382.5Q203 333 188.5 271.5Q174 210 174 148Q174 111 185.5 96.5Q197 82 217 82Z" glyph-name="q" horiz-adv-x="577" unicode="q" /><glyph d="M163 403Q192 409 222 419Q252 429 276.5 448.5Q301 468 316.5 501Q332 534 332 586Q332 627 312 644.5Q292 662 267 662Q250 662 243 653Q236 644 231 616Q223 570 204 553Q185 536 149 536Q112 536 96.5 553.5Q81 571 81 596Q81 647 125 676Q169 705 252 705Q367 705 430.5 657.5Q494 610 494 533Q494 477 471 436Q448 395 408 366Q368 337 314 320Q260 303 199 296L185 220H131ZM147 -7Q129 -7 113.5 0Q98 7 86 19Q74 31 67 46.5Q60 62 60 80Q60 99 67 115Q74 131 86 142.5Q98 154 113.5 160.5Q129 167 147 167Q182 167 208 142.5Q234 118 234 80Q234 62 227 46.5Q220 31 208 19Q196 7 180 0Q164 -7 147 -7Z" glyph-name="question" horiz-adv-x="475" unicode="?" /><glyph d="M338 206Q309 200 279 190Q249 180 224.5 160Q200 140 184.5 107Q169 74 169 22Q169 -19 189 -36.5Q209 -54 234 -54Q250 -54 257.5 -45Q265 -36 270 -8Q277 39 296.5 55.5Q316 72 351 72Q388 72 403.5 54.5Q419 37 419 12Q419 -39 375 -68Q331 -97 249 -97Q192 -97 147 -84.5Q102 -72 71 -49.5Q40 -27 23.5 5Q7 37 7 75Q7 130 30 171.5Q53 213 92.5 242Q132 271 186 288Q240 305 302 312L316 389H370ZM355 616Q390 616 415.5 591Q441 566 441 528Q441 510 434 494.5Q427 479 415 467Q403 455 387.5 448Q372 441 355 441Q337 441 321 448Q305 455 293 467Q281 479 274 494.5Q267 510 267 528Q267 547 274 563Q281 579 293 591Q305 603 321 609.5Q337 616 355 616Z" glyph-name="questiondown" horiz-adv-x="483" unicode="&#191;" /><glyph d="M87 605Q82 635 87.5 655Q93 675 106 687Q119 699 136 704Q153 709 171 708Q189 707 204.5 700Q220 693 227.5 679.5Q235 666 233.5 645Q232 624 216 596L137 444H115ZM265 602Q260 631 265.5 651.5Q271 672 283.5 684.5Q296 697 313 703Q330 709 348 709Q366 709 381.5 703Q397 697 405.5 684Q414 671 412.5 650Q411 629 396 600L313 444H291Z" glyph-name="quotedbl" horiz-adv-x="359" unicode="&quot;" /><glyph d="M165 -94Q223 -74 251 -46.5Q279 -19 284 12Q280 9 272 6.5Q264 4 253 4Q244 4 233.5 7.5Q223 11 214 18.5Q205 26 199 38.5Q193 51 193 68Q193 102 217 122Q241 142 272 142Q315 142 339.5 114.5Q364 87 364 46Q364 -18 313.5 -61.5Q263 -105 172 -119ZM-44 -94Q14 -74 42 -46.5Q70 -19 75 12Q71 9 63 6.5Q55 4 44 4Q35 4 24.5 7.5Q14 11 5 18.5Q-4 26 -9.5 38.5Q-15 51 -15 68Q-15 102 8.5 122Q32 142 63 142Q107 142 131 114.5Q155 87 155 46Q155 -18 104.5 -61.5Q54 -105 -37 -119Z" glyph-name="quotedblbase" horiz-adv-x="428" unicode="&#8222;" /><glyph d="M167 443Q124 443 99.5 470.5Q75 498 75 539Q75 603 125.5 646.5Q176 690 267 704L274 679Q216 659 188 631.5Q160 604 155 573Q159 576 167.5 578.5Q176 581 187 581Q196 581 206.5 577.5Q217 574 225.5 566Q234 558 240 546Q246 534 246 517Q246 482 222 462.5Q198 443 167 443ZM376 443Q332 443 308 470.5Q284 498 284 539Q284 603 334.5 646.5Q385 690 476 704L483 679Q425 659 397 631.5Q369 604 364 573Q368 576 376 578.5Q384 581 395 581Q404 581 414.5 577.5Q425 574 434 566Q443 558 448.5 546Q454 534 454 517Q454 482 430.5 462.5Q407 443 376 443Z" glyph-name="quotedblleft" horiz-adv-x="428" unicode="&#8220;" /><glyph d="M56 469Q115 489 143 516.5Q171 544 176 575Q172 572 163.5 569.5Q155 567 144 567Q135 567 124.5 570.5Q114 574 105.5 582Q97 590 91 602Q85 614 85 631Q85 666 109 685.5Q133 705 163 705Q207 705 231.5 677.5Q256 650 256 609Q256 546 205.5 502.5Q155 459 64 444ZM265 469Q324 489 352 516.5Q380 544 385 575Q380 572 372 569.5Q364 567 353 567Q344 567 333.5 570.5Q323 574 314.5 582Q306 590 300 602Q294 614 294 631Q294 666 318 685.5Q342 705 372 705Q416 705 440.5 677.5Q465 650 465 609Q465 546 414.5 502.5Q364 459 273 444Z" glyph-name="quotedblright" horiz-adv-x="428" unicode="&#8221;" /><glyph d="M167 443Q124 443 99.5 470.5Q75 498 75 539Q75 603 125.5 646.5Q176 690 267 704L274 679Q216 659 188 631.5Q160 604 155 573Q159 576 167.5 578.5Q176 581 187 581Q196 581 206.5 577.5Q217 574 225.5 566Q234 558 240 546Q246 534 246 517Q246 482 222 462.5Q198 443 167 443Z" glyph-name="quoteleft" horiz-adv-x="219" unicode="&#8216;" /><glyph d="M56 469Q115 489 143 516.5Q171 544 176 575Q172 572 163.5 569.5Q155 567 144 567Q135 567 124.5 570.5Q114 574 105.5 582Q97 590 91 602Q85 614 85 631Q85 666 109 685.5Q133 705 163 705Q207 705 231.5 677.5Q256 650 256 609Q256 546 205.5 502.5Q155 459 64 444Z" glyph-name="quoteright" horiz-adv-x="219" unicode="&#8217;" /><glyph d="M-44 -94Q14 -74 42 -46.5Q70 -19 75 12Q71 9 63 6.5Q55 4 44 4Q35 4 24.5 7.5Q14 11 5 18.5Q-4 26 -9.5 38.5Q-15 51 -15 68Q-15 102 8.5 122Q32 142 63 142Q107 142 131 114.5Q155 87 155 46Q155 -18 104.5 -61.5Q54 -105 -37 -119Z" glyph-name="quotesinglbase" horiz-adv-x="219" unicode="&#8218;" /><glyph d="M87 602Q82 631 88 651.5Q94 672 106.5 684.5Q119 697 136 703Q153 709 171 709Q189 709 204.5 703Q220 697 228.5 684Q237 671 235.5 650Q234 629 219 600L137 444H114Z" glyph-name="quotesingle" horiz-adv-x="182" unicode="&apos;" /><glyph d="M98 377Q100 388 101 396.5Q102 405 102 410Q102 429 88.5 426.5Q75 424 48 404L35 395L16 420Q34 440 56.5 460.5Q79 481 104 497.5Q129 514 156 524.5Q183 535 209 535Q244 535 257 515Q270 495 270 470Q270 464 268.5 452Q267 440 265 426.5Q263 413 260.5 400Q258 387 256 379H261Q278 409 296.5 437Q315 465 336.5 487Q358 509 382 522Q406 535 434 535Q463 535 483 516Q503 497 503 462Q503 425 480.5 405Q458 385 429 385Q412 385 401.5 390.5Q391 396 384.5 402.5Q378 409 372 414.5Q366 420 358 420Q335 420 309 389Q283 358 255 310L187 0H19Z" glyph-name="r" horiz-adv-x="480" unicode="r" /><glyph d="M242 336Q204 336 171.5 350.5Q139 365 115.5 389.5Q92 414 78.5 447Q65 480 65 518Q65 556 78.5 589Q92 622 115.5 647Q139 672 171.5 686Q204 700 242 700Q279 700 311.5 686Q344 672 368 647Q392 622 406 589Q420 556 420 518Q420 480 406 447Q392 414 368 389.5Q344 365 311.5 350.5Q279 336 242 336ZM242 362Q274 362 301.5 374.5Q329 387 348.5 408Q368 429 379 457.5Q390 486 390 518Q390 551 379 579.5Q368 608 348.5 629Q329 650 301.5 662Q274 674 242 674Q209 674 182 662Q155 650 135.5 629Q116 608 105.5 579.5Q95 551 95 518Q95 486 105.5 457.5Q116 429 135.5 408Q155 387 182 374.5Q209 362 242 362ZM144 440 154 442Q161 444 163 446.5Q165 449 165 462V580Q165 594 163 596.5Q161 599 154 601L145 603V619H241Q286 619 306 606Q326 593 326 567Q326 530 290 520V518Q299 500 308.5 482Q318 464 329 449Q334 443 340 441L345 440V424H278Q266 443 256 464Q246 485 238 504H223V462Q223 449 225 446.5Q227 444 234 442L244 440V424H144ZM236 522Q253 522 260 530.5Q267 539 267 561Q267 584 260 592.5Q253 601 239 601Q229 601 223 599V522Z" glyph-name="registered" horiz-adv-x="384" unicode="&#174;" /><glyph d="M238 570Q194 570 167.5 596.5Q141 623 141 661Q141 705 170 732Q199 759 241 759Q282 759 309.5 734Q337 709 337 667Q337 623 308.5 596.5Q280 570 238 570ZM239 606Q262 606 276 622Q290 638 290 666Q290 691 276.5 707Q263 723 240 723Q217 723 202.5 706Q188 689 188 662Q188 637 202 621.5Q216 606 239 606Z" glyph-name="ring" horiz-adv-x="346" unicode="&#730;" /><glyph d="M266 719Q222 719 196 745.5Q170 772 170 810Q170 854 199 881Q228 908 269 908Q310 908 337.5 883Q365 858 365 816Q365 772 336.5 745.5Q308 719 266 719ZM267 755Q290 755 304.5 771Q319 787 319 815Q319 840 305.5 856Q292 872 269 872Q246 872 231 855Q216 838 216 811Q216 786 230 770.5Q244 755 267 755Z" glyph-name="ring.uc" horiz-adv-x="346" /><glyph d="M175 -13Q124 -13 88 -3.5Q52 6 29.5 21.5Q7 37 -3.5 56.5Q-14 76 -14 97Q-14 123 2 140Q18 157 52 157Q71 157 83.5 153Q96 149 105.5 139Q115 129 121.5 111.5Q128 94 135 67Q140 49 151.5 38.5Q163 28 191 28Q229 28 247.5 46Q266 64 266 93Q266 106 262 118Q258 130 247.5 142.5Q237 155 219 168.5Q201 182 174 198Q113 233 80 271.5Q47 310 47 363Q47 403 64.5 435Q82 467 111.5 489Q141 511 179.5 523Q218 535 260 535Q307 535 339.5 526Q372 517 392.5 502.5Q413 488 422 469.5Q431 451 431 432Q431 406 415 393Q399 380 371 380Q353 380 341 383.5Q329 387 320.5 395.5Q312 404 306 418.5Q300 433 294 455Q288 477 276.5 485.5Q265 494 246 494Q214 494 196 479.5Q178 465 178 436Q178 422 183 410Q188 398 200 385.5Q212 373 233 359Q254 345 286 326Q346 291 374 253Q402 215 402 169Q402 131 386 98Q370 65 340.5 40.5Q311 16 269 1.5Q227 -13 175 -13Z" glyph-name="s" horiz-adv-x="436" unicode="s" /><glyph d="M144 717 157 734 276 675 421 734 432 716 292 571H240ZM175 -13Q124 -13 88 -3.5Q52 6 29.5 21.5Q7 37 -3.5 56.5Q-14 76 -14 97Q-14 123 2 140Q18 157 52 157Q71 157 83.5 153Q96 149 105.5 139Q115 129 121.5 111.5Q128 94 135 67Q140 49 151.5 38.5Q163 28 191 28Q229 28 247.5 46Q266 64 266 93Q266 106 262 118Q258 130 247.5 142.5Q237 155 219 168.5Q201 182 174 198Q113 233 80 271.5Q47 310 47 363Q47 403 64.5 435Q82 467 111.5 489Q141 511 179.5 523Q218 535 260 535Q307 535 339.5 526Q372 517 392.5 502.5Q413 488 422 469.5Q431 451 431 432Q431 406 415 393Q399 380 371 380Q353 380 341 383.5Q329 387 320.5 395.5Q312 404 306 418.5Q300 433 294 455Q288 477 276.5 485.5Q265 494 246 494Q214 494 196 479.5Q178 465 178 436Q178 422 183 410Q188 398 200 385.5Q212 373 233 359Q254 345 286 326Q346 291 374 253Q402 215 402 169Q402 131 386 98Q370 65 340.5 40.5Q311 16 269 1.5Q227 -13 175 -13Z" glyph-name="scaron" horiz-adv-x="436" unicode="&#353;" /><glyph d="M154 518Q154 560 172 594Q190 628 220.5 652Q251 676 291 688.5Q331 701 375 701Q420 701 452.5 692Q485 683 506 668.5Q527 654 537 635.5Q547 617 547 597Q547 570 530.5 557Q514 544 488 544Q452 544 436 559.5Q420 575 411 619Q406 643 395.5 651.5Q385 660 357 660Q325 660 305.5 642Q286 624 286 594Q286 579 289.5 566.5Q293 554 305.5 536Q318 518 342.5 492Q367 466 409 426Q441 395 466 369.5Q491 344 508.5 319Q526 294 535.5 269Q545 244 545 215Q545 185 533.5 158.5Q522 132 501 110Q480 88 452 70.5Q424 53 391 41Q404 11 404 -26Q404 -63 387 -95.5Q370 -128 339.5 -152.5Q309 -177 267 -191Q225 -205 175 -205Q129 -205 94 -195.5Q59 -186 35.5 -171Q12 -156 0 -136Q-12 -116 -12 -95Q-12 -66 6 -50Q24 -34 53 -34Q73 -34 86 -38Q99 -42 107.5 -51.5Q116 -61 121 -76.5Q126 -92 131 -114Q136 -141 146.5 -152Q157 -163 190 -163Q231 -163 250.5 -143.5Q270 -124 270 -94Q270 -77 263 -62Q256 -47 241 -29Q226 -11 202 12.5Q178 36 143 70Q114 98 90.5 123Q67 148 50 173Q33 198 23.5 224.5Q14 251 14 282Q14 345 55.5 389.5Q97 434 166 454Q159 470 156.5 485.5Q154 501 154 518ZM408 137Q408 150 403.5 163Q399 176 387 193Q375 210 353 233Q331 256 295 291Q257 328 228.5 359.5Q200 391 183 421Q164 413 154 396.5Q144 380 144 360Q144 346 148 333Q152 320 164.5 303.5Q177 287 199 263.5Q221 240 257 205Q294 169 323.5 138Q353 107 371 77Q389 86 398.5 102Q408 118 408 137Z" glyph-name="section" horiz-adv-x="560" unicode="&#167;" /><glyph d="M-27 -90Q84 -41 95 29Q84 20 67 20Q43 20 23.5 37.5Q4 55 4 90Q4 126 30 146.5Q56 167 86 167Q128 167 154 138.5Q180 110 180 64Q180 30 164.5 1Q149 -28 122 -50.5Q95 -73 58 -89Q21 -105 -21 -113ZM135 270Q118 270 102 277Q86 284 74 296Q62 308 55 324Q48 340 48 358Q48 396 74 420.5Q100 445 135 445Q153 445 168.5 438.5Q184 432 196 420.5Q208 409 215 393Q222 377 222 358Q222 340 215 324Q208 308 196 296Q184 284 168.5 277Q153 270 135 270Z" glyph-name="semicolon" horiz-adv-x="240" unicode=";" /><glyph d="M54 0Q83 89 126 166Q169 243 222.5 311Q276 379 338 439.5Q400 500 468 556H179Q163 556 152.5 553.5Q142 551 132 542.5Q122 534 111.5 517Q101 500 85 472H55L108 693H574L559 610Q493 539 444 467.5Q395 396 359.5 321.5Q324 247 300.5 167Q277 87 261 0H54Z" glyph-name="seven" horiz-adv-x="507" unicode="7" /><glyph d="M277 -13Q227 -13 182 3Q137 19 103 51.5Q69 84 49.5 132Q30 180 30 244Q30 316 48 378Q66 440 97.5 491Q129 542 170.5 582Q212 622 258.5 649.5Q305 677 355 691Q405 705 452 705Q545 705 586.5 677Q628 649 628 601Q628 532 555 532Q512 532 495 552.5Q478 573 476 626Q475 650 466 657.5Q457 665 436 665Q411 665 384 648.5Q357 632 330.5 596Q304 560 280.5 504.5Q257 449 239 371Q262 386 300 399.5Q338 413 389 413Q430 413 464.5 402Q499 391 524.5 369Q550 347 564.5 315.5Q579 284 579 244Q579 191 558 144.5Q537 98 497.5 63Q458 28 402 7.5Q346 -13 277 -13ZM276 28Q307 28 328.5 52Q350 76 363.5 111Q377 146 383 187Q389 228 389 261Q389 311 370.5 332Q352 353 312 353Q287 353 267.5 347Q248 341 232 333Q221 285 214 231Q207 177 207 130Q207 83 222.5 55.5Q238 28 276 28Z" glyph-name="six" horiz-adv-x="606" unicode="6" /><glyph d="M389 734H451L-5 -130H-67Z" glyph-name="slash" horiz-adv-x="387" unicode="/" /><glyph glyph-name="space" horiz-adv-x="214" unicode=" " /><glyph d="M163 -226Q217 -216 241 -197.5Q265 -179 269 -152Q265 -155 257 -157.5Q249 -160 241 -160Q214 -160 199.5 -144.5Q185 -129 185 -103Q185 -78 206.5 -60Q228 -42 260 -42Q296 -42 319 -62.5Q342 -83 342 -123Q342 -175 299.5 -209.5Q257 -244 168 -251Z" glyph-name="space_uni0326" horiz-adv-x="510" /><glyph d="M355 749Q301 738 277 720Q253 702 249 675Q253 678 261 680.5Q269 683 277 683Q304 683 318.5 667Q333 651 333 625Q333 600 311.5 582.5Q290 565 258 565Q222 565 198.5 585.5Q175 606 175 646Q175 698 217.5 732Q260 766 349 774Z" glyph-name="space_uni0326.alt" horiz-adv-x="510" /><glyph d="M46 382H103Q98 406 94 430.5Q90 455 90 481Q90 528 107.5 569Q125 610 160 640Q195 670 247 687.5Q299 705 367 705Q410 705 445.5 697Q481 689 506.5 674Q532 659 546 637.5Q560 616 560 590Q560 555 541 536.5Q522 518 483 518Q435 518 420 544.5Q405 571 402 626Q401 650 394 657.5Q387 665 370 665Q336 665 311 639.5Q286 614 278 557Q272 519 270.5 473Q269 427 266 382H426L418 333H262V332Q252 266 210.5 217Q169 168 104 136V130H390Q404 130 415 132.5Q426 135 436 143Q446 151 456.5 166.5Q467 182 480 209H510L468 0H-28L-12 90Q16 106 40.5 125.5Q65 145 83 167.5Q101 190 111.5 215.5Q122 241 122 270Q122 298 114 333H38Z" glyph-name="sterling" horiz-adv-x="542" unicode="&#163;" /><glyph d="M100 -12Q80 -12 67 -5.5Q54 1 46 11Q38 21 34.5 33.5Q31 46 31 59Q31 76 34.5 98.5Q38 121 43 145L109 459H42L47 484L123 521L142 606L291 669H323L292 522H401L384 459H278L211 138Q209 128 208 119.5Q207 111 207 103Q207 88 222.5 88.5Q238 89 281 117L316 139L337 115Q278 55 218.5 21.5Q159 -12 100 -12Z" glyph-name="t" horiz-adv-x="363" unicode="t" /><glyph d="M261 409Q278 429 299.5 451.5Q321 474 346 492.5Q371 511 399 523Q427 535 457 535Q512 535 543 489.5Q574 444 574 371Q574 293 549.5 223Q525 153 481.5 100.5Q438 48 378.5 17.5Q319 -13 248 -13Q228 -13 212 -9.5Q196 -6 182 0Q181 -7 180 -15Q179 -22 178 -31Q177 -40 175 -50L164 -113Q161 -130 160 -140Q159 -150 161 -156Q163 -162 169.5 -165Q176 -168 188 -171L218 -178L214 -207H-85L-80 -178L-56 -172Q-43 -169 -34.5 -165Q-26 -161 -20.5 -155Q-15 -149 -12 -139Q-9 -129 -6 -113L135 623Q139 642 140.5 654Q142 666 140 673.5Q138 681 133 686Q128 691 118 696L85 711L88 736L324 757L334 748Q329 732 324 714Q319 698 314.5 677Q310 656 305 631L280 499Q274 470 267.5 445.5Q261 421 257 409ZM255 29Q289 29 316.5 58Q344 87 364 134.5Q384 182 395 243Q406 304 406 368Q406 401 395.5 415Q385 429 365 429Q350 429 333.5 421.5Q317 414 301.5 403Q286 392 272.5 378.5Q259 365 250 352L193 69Q200 55 215 42Q230 29 255 29Z" glyph-name="thorn" horiz-adv-x="583" unicode="&#254;" /><glyph d="M203 -13Q100 -13 43.5 17Q-13 47 -13 109Q-13 145 7 163Q27 181 62 181Q81 181 94.5 177Q108 173 118 162.5Q128 152 133.5 133.5Q139 115 141 86Q143 51 151 39.5Q159 28 188 28Q222 28 247.5 47.5Q273 67 289.5 97Q306 127 314.5 164Q323 201 323 237Q323 294 298.5 316.5Q274 339 226 339H179L188 384H226Q268 384 294.5 398.5Q321 413 335.5 438Q350 463 355 497Q360 531 360 569Q360 615 342.5 639.5Q325 664 289 664Q269 664 257 656.5Q245 649 243 629Q237 574 220.5 550Q204 526 162 526Q128 526 109 542Q90 558 90 586Q90 639 148 672Q206 705 304 705Q410 705 472.5 664.5Q535 624 535 553Q535 488 489 438.5Q443 389 338 370V366Q377 361 409.5 349.5Q442 338 465.5 318.5Q489 299 502 272Q515 245 515 210Q515 161 493.5 120Q472 79 431.5 49.5Q391 20 333 3.5Q275 -13 203 -13Z" glyph-name="three" horiz-adv-x="553" unicode="3" /><glyph d="M153 295Q90 295 54.5 314.5Q19 334 19 372Q19 395 32.5 406Q46 417 68 417Q97 417 107.5 404Q118 391 122 353Q124 338 127 332Q130 326 144 326Q175 326 192 357Q209 388 209 434Q209 469 192 479Q175 489 147 489H120L127 528H145Q188 528 206.5 551.5Q225 575 225 620Q225 669 193 669Q182 669 177.5 664Q173 659 171 643Q166 609 155.5 598Q145 587 120 587Q97 587 84.5 598Q72 609 72 625Q72 659 109 679.5Q146 700 209 700Q269 700 309 677.5Q349 655 349 613Q349 576 321.5 552Q294 528 230 518V516Q279 511 311 488Q343 465 343 423Q343 360 290.5 327.5Q238 295 153 295ZM684 714H754L124 -50H53ZM475 29 495 34Q506 37 512.5 39.5Q519 42 523 46.5Q527 51 529.5 59Q532 67 534 79L539 106H380L387 144L618 389H722L680 154H734L727 106H672L667 83Q665 68 664 59.5Q663 51 665 46Q667 41 672.5 38.5Q678 36 688 34L709 29L704 0H470ZM547 154 568 281H565L448 158V154Z" glyph-name="threequarters" horiz-adv-x="797" unicode="&#190;" /><glyph d="M153 295Q90 295 54.5 314.5Q19 334 19 372Q19 395 32.5 406Q46 417 68 417Q97 417 107.5 404Q118 391 122 353Q124 338 127 332Q130 326 144 326Q175 326 192 357Q209 388 209 434Q209 469 192 479Q175 489 147 489H120L127 528H145Q188 528 206.5 551.5Q225 575 225 620Q225 669 193 669Q182 669 177.5 664Q173 659 171 643Q166 609 155.5 598Q145 587 120 587Q97 587 84.5 598Q72 609 72 625Q72 659 109 679.5Q146 700 209 700Q269 700 309 677.5Q349 655 349 613Q349 576 321.5 552Q294 528 230 518V516Q279 511 311 488Q343 465 343 423Q343 360 290.5 327.5Q238 295 153 295Z" glyph-name="threesuperior" horiz-adv-x="342" unicode="&#179;" /><glyph d="M157 587Q185 643 209.5 676Q234 709 269 709Q285 709 301.5 705Q318 701 335.5 695.5Q353 690 369.5 686Q386 682 402 682Q417 682 427.5 690Q438 698 456 721L480 707Q453 651 429 618Q405 585 368 585Q352 585 335.5 589Q319 593 301.5 598.5Q284 604 267.5 608Q251 612 235 612Q220 612 209.5 604Q199 596 181 573Z" glyph-name="tilde" horiz-adv-x="500" unicode="&#732;" /><glyph d="M175 738Q203 793 227.5 826.5Q252 860 287 860Q306 860 326 856Q346 852 366.5 846.5Q387 841 405.5 837Q424 833 440 833Q455 833 466 841Q477 849 494 872L518 858Q491 802 467.5 769Q444 736 407 736Q388 736 368 740Q348 744 327.5 749.5Q307 755 288.5 759Q270 763 254 763Q239 763 228 755Q217 747 200 724Z" glyph-name="tilde.uc" horiz-adv-x="500" /><glyph d="M333 425 356 429Q368 431 372 437.5Q376 444 381 468L410 635Q414 654 411.5 659Q409 664 398 666L380 670L385 693H539L561 552H563L633 693H791L787 672L768 668Q757 665 752.5 661Q748 657 745 637L714 460Q710 440 713 435Q716 430 726 428L746 424L741 401H566L571 424L590 428Q602 430 606 435Q610 440 613 460L647 652H645L524 406H489L450 652H448L416 469Q411 444 414 437Q417 430 428 428L450 424L446 401H329ZM89 426 114 430Q127 432 130.5 437Q134 442 138 462L173 665H169Q154 665 146.5 661.5Q139 658 131 648Q120 634 110.5 618Q101 602 87 579H68L91 693H362L346 579H328Q321 602 317 618Q313 634 306 648Q302 658 295.5 661.5Q289 665 274 665H270L236 462Q232 442 233.5 436.5Q235 431 249 430L272 426L268 403H86Z" glyph-name="trademark" horiz-adv-x="734" unicode="&#8482;" /><glyph d="M-19 87Q19 114 51 138Q83 162 110.5 183.5Q138 205 162 226Q186 247 210 268Q247 303 275 337.5Q303 372 322.5 409Q342 446 352 487Q362 528 362 576Q362 626 341 645.5Q320 665 285 665Q266 665 256.5 655Q247 645 243 618Q238 586 231 565Q224 544 213.5 532Q203 520 188.5 515Q174 510 155 510Q111 510 94 531Q77 552 77 580Q77 607 93 630Q109 653 138.5 669.5Q168 686 209 695.5Q250 705 300 705Q352 705 396.5 694Q441 683 473 660.5Q505 638 523.5 605Q542 572 542 528Q542 464 506 410Q470 356 410.5 309.5Q351 263 274.5 221.5Q198 180 117 140V135H361Q379 135 390.5 137.5Q402 140 412.5 148Q423 156 433.5 172Q444 188 460 214H492L444 0H-35Z" glyph-name="two" horiz-adv-x="529" unicode="2" /><glyph d="M21 364Q63 391 98.5 417Q134 443 161 469Q199 504 219 541Q239 578 239 623Q239 647 228 657.5Q217 668 199 668Q191 668 185.5 663.5Q180 659 178 643Q175 623 170.5 610Q166 597 159.5 589.5Q153 582 143.5 579.5Q134 577 121 577Q93 577 81.5 589.5Q70 602 70 619Q70 638 81 653Q92 668 111 678.5Q130 689 156.5 694.5Q183 700 213 700Q279 700 320 674Q361 648 361 595Q361 539 301 492.5Q241 446 126 401V398H258Q268 398 274.5 400Q281 402 287 407Q293 412 300 422Q307 432 316 447H344L317 304H13Z" glyph-name="twosuperior" horiz-adv-x="341" unicode="&#178;" /><glyph d="M126 -13Q85 -13 61 15Q37 43 37 83Q37 97 40 120.5Q43 144 47 161L97 378Q99 388 100 396.5Q101 405 101 410Q101 429 87.5 426.5Q74 424 47 404L34 395L14 420Q32 440 55 460.5Q78 481 103 497.5Q128 514 154.5 524.5Q181 535 207 535Q226 535 239 528.5Q252 522 260.5 512Q269 502 272.5 490Q276 478 276 466Q276 447 272.5 423.5Q269 400 264 377L221 182Q210 132 214 115.5Q218 99 235 99Q247 99 261.5 105.5Q276 112 290.5 123Q305 134 318.5 148Q332 162 344 176L419 522H587L505 135Q502 120 502 109Q502 73 548 102L571 116L591 93Q575 77 552 58.5Q529 40 503 24Q477 8 448.5 -2.5Q420 -13 393 -13Q374 -13 362 -7Q350 -1 343.5 8.5Q337 18 334.5 29.5Q332 41 332 53Q332 65 336.5 87.5Q341 110 346 124H341Q320 100 297 76Q274 52 247.5 32Q221 12 191 -0.5Q161 -13 126 -13Z" glyph-name="u" horiz-adv-x="607" unicode="u" /><glyph d="M267 592 394 708Q421 734 451 734Q474 734 489.5 715Q505 696 505 671Q505 652 493.5 635Q482 618 456 613L275 573ZM126 -13Q85 -13 61 15Q37 43 37 83Q37 97 40 120.5Q43 144 47 161L97 378Q99 388 100 396.5Q101 405 101 410Q101 429 87.5 426.5Q74 424 47 404L34 395L14 420Q32 440 55 460.5Q78 481 103 497.5Q128 514 154.5 524.5Q181 535 207 535Q226 535 239 528.5Q252 522 260.5 512Q269 502 272.5 490Q276 478 276 466Q276 447 272.5 423.5Q269 400 264 377L221 182Q210 132 214 115.5Q218 99 235 99Q247 99 261.5 105.5Q276 112 290.5 123Q305 134 318.5 148Q332 162 344 176L419 522H587L505 135Q502 120 502 109Q502 73 548 102L571 116L591 93Q575 77 552 58.5Q529 40 503 24Q477 8 448.5 -2.5Q420 -13 393 -13Q374 -13 362 -7Q350 -1 343.5 8.5Q337 18 334.5 29.5Q332 41 332 53Q332 65 336.5 87.5Q341 110 346 124H341Q320 100 297 76Q274 52 247.5 32Q221 12 191 -0.5Q161 -13 126 -13Z" glyph-name="uacute" horiz-adv-x="607" unicode="&#250;" /><glyph d="M208 588 348 733H400L496 588L483 570L363 630L218 570ZM126 -13Q85 -13 61 15Q37 43 37 83Q37 97 40 120.5Q43 144 47 161L97 378Q99 388 100 396.5Q101 405 101 410Q101 429 87.5 426.5Q74 424 47 404L34 395L14 420Q32 440 55 460.5Q78 481 103 497.5Q128 514 154.5 524.5Q181 535 207 535Q226 535 239 528.5Q252 522 260.5 512Q269 502 272.5 490Q276 478 276 466Q276 447 272.5 423.5Q269 400 264 377L221 182Q210 132 214 115.5Q218 99 235 99Q247 99 261.5 105.5Q276 112 290.5 123Q305 134 318.5 148Q332 162 344 176L419 522H587L505 135Q502 120 502 109Q502 73 548 102L571 116L591 93Q575 77 552 58.5Q529 40 503 24Q477 8 448.5 -2.5Q420 -13 393 -13Q374 -13 362 -7Q350 -1 343.5 8.5Q337 18 334.5 29.5Q332 41 332 53Q332 65 336.5 87.5Q341 110 346 124H341Q320 100 297 76Q274 52 247.5 32Q221 12 191 -0.5Q161 -13 126 -13Z" glyph-name="ucircumflex" horiz-adv-x="607" unicode="&#251;" /><glyph d="M263 574Q230 574 207 595Q184 616 184 651Q184 686 207.5 708Q231 730 264 730Q297 730 320.5 708.5Q344 687 344 652Q344 617 320.5 595.5Q297 574 263 574ZM466 574Q433 574 409.5 595Q386 616 386 651Q386 686 409.5 708Q433 730 467 730Q499 730 522.5 708.5Q546 687 546 652Q546 617 522.5 595.5Q499 574 466 574ZM126 -13Q85 -13 61 15Q37 43 37 83Q37 97 40 120.5Q43 144 47 161L97 378Q99 388 100 396.5Q101 405 101 410Q101 429 87.5 426.5Q74 424 47 404L34 395L14 420Q32 440 55 460.5Q78 481 103 497.5Q128 514 154.5 524.5Q181 535 207 535Q226 535 239 528.5Q252 522 260.5 512Q269 502 272.5 490Q276 478 276 466Q276 447 272.5 423.5Q269 400 264 377L221 182Q210 132 214 115.5Q218 99 235 99Q247 99 261.5 105.5Q276 112 290.5 123Q305 134 318.5 148Q332 162 344 176L419 522H587L505 135Q502 120 502 109Q502 73 548 102L571 116L591 93Q575 77 552 58.5Q529 40 503 24Q477 8 448.5 -2.5Q420 -13 393 -13Q374 -13 362 -7Q350 -1 343.5 8.5Q337 18 334.5 29.5Q332 41 332 53Q332 65 336.5 87.5Q341 110 346 124H341Q320 100 297 76Q274 52 247.5 32Q221 12 191 -0.5Q161 -13 126 -13Z" glyph-name="udieresis" horiz-adv-x="607" unicode="&#252;" /><glyph d="M126 -13Q85 -13 61 15Q37 43 37 83Q37 97 40 120.5Q43 144 47 161L97 378Q99 388 100 396.5Q101 405 101 410Q101 429 87.5 426.5Q74 424 47 404L34 395L14 420Q32 440 55 460.5Q78 481 103 497.5Q128 514 154.5 524.5Q181 535 207 535Q226 535 239 528.5Q252 522 260.5 512Q269 502 272.5 490Q276 478 276 466Q276 447 272.5 423.5Q269 400 264 377L221 182Q210 132 214 115.5Q218 99 235 99Q247 99 261.5 105.5Q276 112 290.5 123Q305 134 318.5 148Q332 162 344 176L419 522H587L505 135Q502 120 502 109Q502 73 548 102L571 116L591 93Q575 77 552 58.5Q529 40 503 24Q477 8 448.5 -2.5Q420 -13 393 -13Q374 -13 362 -7Q350 -1 343.5 8.5Q337 18 334.5 29.5Q332 41 332 53Q332 65 336.5 87.5Q341 110 346 124H341Q320 100 297 76Q274 52 247.5 32Q221 12 191 -0.5Q161 -13 126 -13ZM278 613Q252 618 241 635.5Q230 653 230 670Q230 694 246 713.5Q262 733 287 733Q315 733 344 706L467 592L458 573Z" glyph-name="ugrave" horiz-adv-x="607" unicode="&#249;" /><glyph d="M-45 -109H309L299 -168H-54Z" glyph-name="underscore" horiz-adv-x="355" unicode="_" /><glyph glyph-name="uni00A0" horiz-adv-x="178" unicode="&#160;" /><glyph glyph-name="uni2009" horiz-adv-x="100" unicode="&#8201;" /><glyph d="M99 0Q99 125 96.5 220.5Q94 316 88 375Q86 396 82.5 407.5Q79 419 72 422Q65 425 55 420Q45 415 29 404L15 395L-4 420Q15 441 39 462Q63 483 88 499Q113 515 138 525Q163 535 184 535Q214 535 228.5 513Q243 491 248 438Q253 373 254 296Q255 219 252 128H256Q287 162 315.5 200Q344 238 365.5 274Q387 310 400 341Q413 372 413 393Q413 406 407 415Q401 424 394.5 433Q388 442 382 453Q376 464 376 480Q376 507 395.5 521Q415 535 440 535Q468 535 487 517Q506 499 506 463Q506 423 478 365.5Q450 308 405 244.5Q360 181 303.5 117Q247 53 190 0H99Z" glyph-name="v" horiz-adv-x="497" unicode="v" /><glyph d="M99 0Q99 127 95 221.5Q91 316 85 375Q83 396 79.5 407.5Q76 419 70 421.5Q64 424 54 419Q44 414 29 404L15 395L-4 420Q15 441 39 462Q63 483 88 499Q113 515 137.5 525Q162 535 183 535Q213 535 228.5 514.5Q244 494 248 443Q253 378 255.5 305.5Q258 233 256 142H260Q292 182 320.5 223.5Q349 265 371 301L368 384Q365 420 355.5 422.5Q346 425 320 405L308 396L288 420Q305 439 326.5 459Q348 479 371 496Q394 513 417.5 524Q441 535 461 535Q490 535 506 515.5Q522 496 524 446Q527 388 527 308.5Q527 229 522 139H526Q556 177 582 214Q608 251 627 284.5Q646 318 657 346.5Q668 375 668 397Q668 408 662 416.5Q656 425 648.5 434Q641 443 635 454Q629 465 629 481Q629 507 649 521.5Q669 536 694 536Q721 536 741 518Q761 500 761 463Q761 425 732.5 367.5Q704 310 660 246Q616 182 562.5 117Q509 52 458 0H370Q373 129 373 229H370Q328 171 282 110.5Q236 50 190 0H99Z" glyph-name="w" horiz-adv-x="752" unicode="w" /><glyph d="M30 -13Q1 -13 -17 3.5Q-35 20 -35 47Q-35 78 -18 94.5Q-1 111 23 111Q38 111 48.5 104.5Q59 98 68.5 93Q78 88 87 86.5Q96 85 108 96Q127 114 148 150.5Q169 187 189 238Q180 276 171.5 309Q163 342 152 376Q145 398 139.5 409.5Q134 421 126.5 424Q119 427 108.5 421.5Q98 416 82 404L70 395L50 420Q69 442 93 462.5Q117 483 142 499Q167 515 191.5 525Q216 535 237 535Q252 535 261 530.5Q270 526 277 515.5Q284 505 289.5 489Q295 473 301 451Q307 429 314 398Q321 367 329 333H332Q350 380 370.5 419Q391 458 413 483Q434 508 457.5 521.5Q481 535 508 535Q534 535 551.5 520Q569 505 569 477Q569 449 552 432Q535 415 512 415Q493 415 482.5 421Q472 427 464.5 431.5Q457 436 450 436Q443 436 432 425Q412 404 392 366Q372 328 354 280Q364 238 374.5 202.5Q385 167 393 141Q400 117 406.5 104.5Q413 92 420 88.5Q427 85 436 89Q445 93 459 102L481 116L501 93Q484 76 462.5 57.5Q441 39 416 23.5Q391 8 365.5 -2Q340 -12 316 -12Q284 -12 268.5 9.5Q253 31 240 76Q232 105 225.5 130Q219 155 212 186H209Q192 140 168.5 100.5Q145 61 126 38Q109 17 85.5 2Q62 -13 30 -13Z" glyph-name="x" horiz-adv-x="542" unicode="x" /><glyph d="M-5 -210Q-47 -210 -71 -189.5Q-95 -169 -95 -134Q-95 -107 -78 -91Q-61 -75 -36 -75Q-16 -75 -3.5 -83.5Q9 -92 18.5 -102.5Q28 -113 38 -121.5Q48 -130 62 -130Q81 -130 103.5 -114Q126 -98 160 -61Q146 96 130 211.5Q114 327 100 384Q90 421 77.5 423.5Q65 426 34 404L21 395L1 420Q20 441 44 462Q68 483 92.5 499Q117 515 141.5 525Q166 535 187 535Q215 535 231 518Q247 501 256 456Q271 384 282 297.5Q293 211 298 119H302Q326 153 348 190Q370 227 387 263Q404 299 414.5 331.5Q425 364 425 390Q425 403 418.5 412.5Q412 422 403.5 432Q395 442 388.5 453Q382 464 382 480Q382 507 402 521Q422 535 446 535Q473 535 494 516.5Q515 498 515 459Q515 425 497.5 377Q480 329 450 273.5Q420 218 380.5 157.5Q341 97 298 39Q257 -17 218.5 -62.5Q180 -108 142.5 -141Q105 -174 68.5 -192Q32 -210 -5 -210Z" glyph-name="y" horiz-adv-x="506" unicode="y" /><glyph d="M-5 -210Q-47 -210 -71 -189.5Q-95 -169 -95 -134Q-95 -107 -78 -91Q-61 -75 -36 -75Q-16 -75 -3.5 -83.5Q9 -92 18.5 -102.5Q28 -113 38 -121.5Q48 -130 62 -130Q81 -130 103.5 -114Q126 -98 160 -61Q146 96 130 211.5Q114 327 100 384Q90 421 77.5 423.5Q65 426 34 404L21 395L1 420Q20 441 44 462Q68 483 92.5 499Q117 515 141.5 525Q166 535 187 535Q215 535 231 518Q247 501 256 456Q271 384 282 297.5Q293 211 298 119H302Q326 153 348 190Q370 227 387 263Q404 299 414.5 331.5Q425 364 425 390Q425 403 418.5 412.5Q412 422 403.5 432Q395 442 388.5 453Q382 464 382 480Q382 507 402 521Q422 535 446 535Q473 535 494 516.5Q515 498 515 459Q515 425 497.5 377Q480 329 450 273.5Q420 218 380.5 157.5Q341 97 298 39Q257 -17 218.5 -62.5Q180 -108 142.5 -141Q105 -174 68.5 -192Q32 -210 -5 -210ZM240 592 367 708Q394 734 424 734Q447 734 462.5 715Q478 696 478 671Q478 652 466.5 635Q455 618 429 613L248 573Z" glyph-name="yacute" horiz-adv-x="506" unicode="&#253;" /><glyph d="M-5 -210Q-47 -210 -71 -189.5Q-95 -169 -95 -134Q-95 -107 -78 -91Q-61 -75 -36 -75Q-16 -75 -3.5 -83.5Q9 -92 18.5 -102.5Q28 -113 38 -121.5Q48 -130 62 -130Q81 -130 103.5 -114Q126 -98 160 -61Q146 96 130 211.5Q114 327 100 384Q90 421 77.5 423.5Q65 426 34 404L21 395L1 420Q20 441 44 462Q68 483 92.5 499Q117 515 141.5 525Q166 535 187 535Q215 535 231 518Q247 501 256 456Q271 384 282 297.5Q293 211 298 119H302Q326 153 348 190Q370 227 387 263Q404 299 414.5 331.5Q425 364 425 390Q425 403 418.5 412.5Q412 422 403.5 432Q395 442 388.5 453Q382 464 382 480Q382 507 402 521Q422 535 446 535Q473 535 494 516.5Q515 498 515 459Q515 425 497.5 377Q480 329 450 273.5Q420 218 380.5 157.5Q341 97 298 39Q257 -17 218.5 -62.5Q180 -108 142.5 -141Q105 -174 68.5 -192Q32 -210 -5 -210ZM237 574Q204 574 181 595Q158 616 158 651Q158 686 181.5 708Q205 730 238 730Q271 730 294.5 708.5Q318 687 318 652Q318 617 294.5 595.5Q271 574 237 574ZM440 574Q407 574 383.5 595Q360 616 360 651Q360 686 383.5 708Q407 730 441 730Q473 730 496.5 708.5Q520 687 520 652Q520 617 496.5 595.5Q473 574 440 574Z" glyph-name="ydieresis" horiz-adv-x="506" unicode="&#255;" /><glyph d="M62 357H212L139 572Q131 596 125 611Q119 626 113 635Q107 644 100.5 649Q94 654 85 657L67 663L72 693H421L416 663L388 657Q348 648 344 614Q342 603 344.5 589.5Q347 576 352 557L397 380H402L501 548Q514 571 521.5 588Q529 605 531 616Q533 633 526 641.5Q519 650 497 657L477 663L483 693H689L683 663L663 657Q650 653 640 646.5Q630 640 620.5 629Q611 618 600 602Q589 586 574 562L444 357H595L586 308H420L408 239H573L565 190H399L386 113Q382 91 381 77.5Q380 64 383 56Q386 48 393.5 44Q401 40 415 37L447 30L443 0H95L99 30L134 37Q149 40 158 43.5Q167 47 173 54.5Q179 62 182.5 75.5Q186 89 191 113L204 190H32L41 239H212L224 308H53Z" glyph-name="yen" horiz-adv-x="611" unicode="&#165;" /><glyph d="M263 -17Q234 -17 208.5 -3.5Q183 10 159 25.5Q135 41 110 54.5Q85 68 56 68Q41 68 25.5 48Q10 28 -5 -7H-12L-52 27V34Q-24 54 -0.5 74.5Q23 95 45 115L323 375Q291 376 262 381.5Q233 387 205.5 393.5Q178 400 151.5 405Q125 410 100 410Q93 410 88 406.5Q83 403 83 398Q83 393 91.5 390Q100 387 110.5 382.5Q121 378 129.5 369Q138 360 138 344Q138 322 126 309Q114 296 90 296Q61 296 47.5 314Q34 332 34 359Q34 383 50 413.5Q66 444 91.5 471.5Q117 499 148.5 517.5Q180 536 211 536Q242 536 269.5 523.5Q297 511 320.5 495.5Q344 480 364.5 467.5Q385 455 402 455Q422 455 435.5 474Q449 493 465 528H472L510 498V490Q484 470 461.5 449Q439 428 406 397L151 157Q178 155 202.5 150.5Q227 146 250 141Q273 136 294 132Q315 128 334 128Q345 128 354 130.5Q363 133 371.5 140Q380 147 389.5 158.5Q399 170 411 187L439 175Q416 129 395 93Q374 57 353.5 32.5Q333 8 311 -4.5Q289 -17 263 -17Z" glyph-name="z" horiz-adv-x="454" unicode="z" /><glyph d="M184 717 197 734 316 675 461 734 472 716 332 571H280ZM263 -17Q234 -17 208.5 -3.5Q183 10 159 25.5Q135 41 110 54.5Q85 68 56 68Q41 68 25.5 48Q10 28 -5 -7H-12L-52 27V34Q-24 54 -0.5 74.5Q23 95 45 115L323 375Q291 376 262 381.5Q233 387 205.5 393.5Q178 400 151.5 405Q125 410 100 410Q93 410 88 406.5Q83 403 83 398Q83 393 91.5 390Q100 387 110.5 382.5Q121 378 129.5 369Q138 360 138 344Q138 322 126 309Q114 296 90 296Q61 296 47.5 314Q34 332 34 359Q34 383 50 413.5Q66 444 91.5 471.5Q117 499 148.5 517.5Q180 536 211 536Q242 536 269.5 523.5Q297 511 320.5 495.5Q344 480 364.5 467.5Q385 455 402 455Q422 455 435.5 474Q449 493 465 528H472L510 498V490Q484 470 461.5 449Q439 428 406 397L151 157Q178 155 202.5 150.5Q227 146 250 141Q273 136 294 132Q315 128 334 128Q345 128 354 130.5Q363 133 371.5 140Q380 147 389.5 158.5Q399 170 411 187L439 175Q416 129 395 93Q374 57 353.5 32.5Q333 8 311 -4.5Q289 -17 263 -17Z" glyph-name="zcaron" horiz-adv-x="454" unicode="&#382;" /><glyph d="M294 -13Q240 -13 192 5Q144 23 108 57.5Q72 92 51.5 143.5Q31 195 31 261Q31 369 66.5 452Q102 535 157 591.5Q212 648 277.5 676.5Q343 705 403 705Q455 705 502.5 687.5Q550 670 586 635.5Q622 601 643 549.5Q664 498 664 431Q664 323 628.5 240Q593 157 538 100.5Q483 44 418 15.5Q353 -13 294 -13ZM299 28Q331 28 357 54Q383 80 403 122Q423 164 437.5 216.5Q452 269 461.5 321.5Q471 374 475.5 422Q480 470 480 503Q480 550 474 581Q468 612 457.5 630.5Q447 649 431.5 656.5Q416 664 397 664Q366 664 340 639Q314 614 294 573.5Q274 533 259.5 481.5Q245 430 235 377Q225 324 220.5 274.5Q216 225 216 188Q216 140 221.5 109Q227 78 238 60Q249 42 264 35Q279 28 299 28Z" glyph-name="zero" horiz-adv-x="665" unicode="0" /></font>
</defs>
</svg>
