<?xml version="1.0" standalone="no"?>
<!DOCTYPE svg PUBLIC "-//W3C//DTD SVG 1.1//EN" "http://www.w3.org/Graphics/SVG/1.1/DTD/svg11.dtd" >
<svg xmlns="http://www.w3.org/2000/svg">
<metadata>
This is a custom SVG webfont generated by Font Squirrel.
</metadata>
<defs>
<font id="YourIconsRegular" horiz-adv-x="2048" >
<font-face units-per-em="2048" ascent="1638" descent="-410" />
<missing-glyph horiz-adv-x="500" />
<glyph d="M0 694v560h2000v-560h-2000zM720 -52v2052h560v-2052h-560z" />
<glyph d="M0 694v560h2000v-560h-2000zM720 -52v2052h560v-2052h-560z" />
<glyph unicode="(" d="M0 32q8 -8 19 -20t19 -20q278 256 620 346t684 0t620 -346q8 8 19 20t19 20q-216 200 -473 302t-527 102t-527 -102t-473 -302zM176 1503q0 -75 52 -127t127 -52t128 52t53 127t-53 128t-128 53t-127 -53t-52 -128zM846 664q2 -4 5 -11t14 -23t27 -28t46 -22t67 -10t66 9 t44 23t24 28t11 24l4 10l-86 620h-136zM1464 1503q0 -75 53 -127t128 -52t127 52t52 127t-52 128t-127 53t-128 -53t-53 -128z" />
<glyph unicode=")" d="M0 404q288 -266 644 -359t712 0t644 359l-16 16l-22 22q-278 -256 -620 -345t-684 0t-620 345zM176 1501q0 -75 52 -128t127 -53t128 53t53 128t-53 127t-128 52t-127 -52t-52 -127zM846 660l5 -10q3 -6 14 -22t27 -29t46 -23t67 -10t66 10t44 24t24 27t11 23l4 10 l-86 622h-136zM1464 1501q0 -75 53 -128t128 -53t127 53t52 128t-52 127t-127 52t-128 -52t-53 -127z" />
<glyph unicode="+" d="M0 742v560h2000v-560h-2000zM720 -4v2052h560v-2052h-560z" />
<glyph unicode="1" d="M0 248q0 -82 59 -141t141 -59h1600q82 0 141 59t59 141v1600q0 82 -59 141t-141 59h-1600q-82 0 -141 -59t-59 -141v-1600zM804 1043q0 83 58 142t141 59t142 -59t59 -142t-59 -141t-142 -58t-141 58t-58 141z" />
<glyph unicode="2" d="M0 248q0 -82 59 -141t141 -59h1600q82 0 141 59t59 141v1600q0 82 -59 141t-141 59h-1600q-82 0 -141 -59t-59 -141v-1600zM204 1643q0 83 58 142t141 59t142 -59t59 -142t-59 -141t-142 -58t-141 58t-58 141zM1404 443q0 83 58 142t141 59t142 -59t59 -142t-59 -141 t-142 -58t-141 58t-58 141z" />
<glyph unicode="3" d="M0 248q0 -82 59 -141t141 -59h1600q82 0 141 59t59 141v1600q0 82 -59 141t-141 59h-1600q-82 0 -141 -59t-59 -141v-1600zM204 1643q0 83 58 142t141 59t142 -59t59 -142t-59 -141t-142 -58t-141 58t-58 141zM804 1043q0 83 58 142t141 59t142 -59t59 -142t-59 -141 t-142 -58t-141 58t-58 141zM1404 443q0 83 58 142t141 59t142 -59t59 -142t-59 -141t-142 -58t-141 58t-58 141z" />
<glyph unicode="4" d="M0 248q0 -82 59 -141t141 -59h1600q82 0 141 59t59 141v1600q0 82 -59 141t-141 59h-1600q-82 0 -141 -59t-59 -141v-1600zM204 443q0 83 58 142t141 59t142 -59t59 -142t-59 -141t-142 -58t-141 58t-58 141zM204 1643q0 83 58 142t141 59t142 -59t59 -142t-59 -141 t-142 -58t-141 58t-58 141zM1404 443q0 83 58 142t141 59t142 -59t59 -142t-59 -141t-142 -58t-141 58t-58 141zM1404 1643q0 83 58 142t141 59t142 -59t59 -142t-59 -141t-142 -58t-141 58t-58 141z" />
<glyph unicode="5" d="M0 248q0 -82 59 -141t141 -59h1600q82 0 141 59t59 141v1600q0 82 -59 141t-141 59h-1600q-82 0 -141 -59t-59 -141v-1600zM204 443q0 83 58 142t141 59t142 -59t59 -142t-59 -141t-142 -58t-141 58t-58 141zM204 1643q0 83 58 142t141 59t142 -59t59 -142t-59 -141 t-142 -58t-141 58t-58 141zM804 1043q0 83 58 142t141 59t142 -59t59 -142t-59 -141t-142 -58t-141 58t-58 141zM1404 443q0 83 58 142t141 59t142 -59t59 -142t-59 -141t-142 -58t-141 58t-58 141zM1404 1643q0 83 58 142t141 59t142 -59t59 -142t-59 -141t-142 -58 t-141 58t-58 141z" />
<glyph unicode="6" d="M0 248q0 -82 59 -141t141 -59h1600q82 0 141 59t59 141v1600q0 82 -59 141t-141 59h-1600q-82 0 -141 -59t-59 -141v-1600zM204 443q0 83 58 142t141 59t142 -59t59 -142t-59 -141t-142 -58t-141 58t-58 141zM204 1043q0 83 58 142t141 59t142 -59t59 -142t-59 -141 t-142 -58t-141 58t-58 141zM204 1643q0 83 58 142t141 59t142 -59t59 -142t-59 -141t-142 -58t-141 58t-58 141zM1404 443q0 83 58 142t141 59t142 -59t59 -142t-59 -141t-142 -58t-141 58t-58 141zM1404 1043q0 83 58 142t141 59t142 -59t59 -142t-59 -141t-142 -58 t-141 58t-58 141zM1404 1643q0 83 58 142t141 59t142 -59t59 -142t-59 -141t-142 -58t-141 58t-58 141z" />
<glyph unicode="&#x3c;" d="M488 1018h2l1016 -1016q0 -2 2 -2q4 0 4 4q0 2 -2 2l-1014 1014l1014 1014l2 2q0 4 -4 4h-2l-1016 -1016l-2 -2v-2v-2z" />
<glyph unicode="&#x3e;" d="M488 4q0 2 2 2l1014 1014l-1014 1014l-2 2q0 4 4 4h2l1016 -1016l2 -2v-2v-2h-2l-1016 -1016q0 -2 -2 -2q-4 0 -4 4z" />
<glyph unicode="A" d="M264 1302q0 -236 134 -426l602 -876l602 876q134 190 134 426q0 202 -99 373t-268 270t-369 99t-369 -99t-268 -270t-99 -373zM670 1302q0 138 97 235t233 97t233 -97t97 -235t-97 -235t-233 -97t-233 97t-97 235z" />
<glyph unicode="C" d="M0 802q0 -198 158 -352l-64 -278l302 130q140 -52 290 -52q186 0 343 74t247 200q-28 -2 -42 -2q-246 0 -457 98t-339 266t-142 368q-136 -76 -216 -195t-80 -257zM468 1293q0 -167 102 -309t279 -224t385 -82q168 0 322 56l340 -146l-74 310q178 172 178 396 q0 166 -103 308t-279 224t-384 82t-385 -82t-279 -224t-102 -309z" />
<glyph unicode="F" d="M488 1022h216v-1024h460v1024h308l40 362h-350v214q0 54 30 76t68 22h246v352h-338q-108 0 -192 -29t-134 -73t-82 -104t-44 -114t-12 -108v-236h-216v-362z" />
<glyph unicode="G" d="M12 1006v-32q0 -249 119 -457q127 -221 317 -345q136 -90 331 -133q164 -36 330 -36q31 0 61 1q196 8 380 51t312 117v36v400l126 138h-576l-196 -134l434 -4v-352q0 -36 -18 -50t-84 -34q-120 -32 -258 -32q-60 0 -124 6q-308 24 -531 236t-279 516q-17 88 -17 173 q0 186 82 355q119 246 353 358q160 76 319 76q104 0 207 -32q182 -56 332 -202l-68 -122l128 36l196 196q-164 132 -395 192q-173 45 -349 45q-58 0 -117 -5q-235 -20 -425 -114q-252 -124 -416 -353t-174 -495z" />
<glyph unicode="L" d="M126 0v598q8 6 22 16q64 48 100 73t99 59t133 54t152 28l368 -276l368 276q362 -8 506 -230v-598h-1748zM564 1449q0 239 127 407t309 168t309 -168t127 -407t-127 -407t-309 -168t-309 168t-127 407z" />
<glyph unicode="M" d="M0 4v400h2000v-400h-2000zM0 828v400h2000v-400h-2000zM0 1648v400h2000v-400h-2000z" />
<glyph unicode="P" d="M-4 76h404v258h1212v-258h402v590h-402h-1212h-404v-590zM-4 732h404h1212h402v330h-402v-264h-1212v264h-404v-330zM534 6h942v198h-942v-198zM534 864h942v858h-942v-858z" />
<glyph unicode="S" d="M470 170q0 -70 48 -120t118 -50h728q70 0 118 50t48 120v1700q0 70 -48 120t-118 50h-728q-70 0 -118 -50t-48 -120v-1700zM536 340v1360h928v-1360h-928zM868 1870q0 14 9 24t23 10h200q14 0 23 -10t9 -24t-9 -24t-23 -10h-200q-14 0 -23 10t-9 24zM900 170q0 42 29 72 t71 30t71 -30t29 -72t-29 -72t-71 -30t-71 30t-29 72z" />
<glyph unicode="T" d="M10 1192l1126 -1128q6 -4 16 -13t39 -24t59 -20q8 -1 18 -1q24 0 54 9q42 13 78 49l532 532q4 4 13 14t24 40t20 60q1 8 1 18q0 24 -9 53q-13 41 -49 79l-1128 1126h-794v-794zM220 1589q0 77 55 132t132 55t132 -55t55 -132t-55 -132t-132 -55t-132 55t-55 132z" />
<glyph unicode="a" d="M28 408q0 -6 4 -22l642 694l-642 578q-4 -16 -4 -24v-1226zM88 324q12 -4 20 -4h1784q8 0 20 4l-650 700l-236 -212q-10 -10 -26 -10t-26 10l-238 212zM94 1718l906 -816l906 816q-2 0 -7 1t-7 1h-1784q-2 0 -7 -1t-7 -1zM1326 1080l642 -694q4 16 4 22v1226q0 8 -4 24z " />
<glyph unicode="b" d="M373 1712q-8 -39 -8 -76q0 -64 23 -122q26 -74 91 -124t149 -58q15 -1 30 -1q93 0 163 54q81 63 105 149l-50 16q-32 -84 -93 -123t-127 -39q-70 0 -128 41t-80 105q-11 44 -11 82q0 32 8 58q17 58 61 94q32 28 74 38q32 8 56 8q7 0 13 -1q27 -3 49 -9q52 -16 117 -64 t120 -94t139 -89t172 -55q-222 -138 -230 -378v-19q0 -43 7 -86q9 -53 31 -111t39 -97t52 -109t49 -102q56 -129 56 -234q0 -19 -2 -38q-12 -120 -87 -195t-186 -75t-188 74t-90 197q-2 18 -2 38q0 109 63 245q4 6 23 42t27 53t23 53t20 62t9 61q2 14 2 28q0 21 -4 40 q-6 33 -18 67q-34 80 -115 119q-49 23 -98 23q-33 0 -65 -10q-92 -28 -128 -123q-16 -43 -16 -84q0 -51 24 -101l46 20q-15 42 -15 79q0 40 17 75q32 68 88 76q26 2 49 -15t23 -63q0 -48 -50 -124q-78 -124 -100 -176q-45 -107 -45 -213q0 -79 25 -157q52 -166 188 -254 t306 -88q150 0 276 77t180 179q70 128 76 250q1 13 1 26q0 170 -119 382q-60 108 -72 162q-4 25 -4 46q0 35 10 62q28 78 96 92q12 2 23 2t18 -2t5 -4q0 -2 -8 -2q-34 -8 -56 -34q-34 -40 -34 -90t39 -87t89 -37q56 0 98 41t42 111t-51 116t-123 46q-74 0 -129 -48t-67 -116 q-34 74 -34 150q0 54 23 102t51 72q80 4 139 38t87 81t38 94q6 26 6 50q0 19 -4 37q-12 72 -57 119t-102 63q-40 11 -81 11q-18 0 -37 -2q-61 -7 -105 -39l26 -46q60 33 113 33q8 0 17 -1q60 -6 101 -40t45 -78v-12q0 -47 -28 -71q-30 -25 -63 -25h-5q-54 2 -110 42 t-131 107t-135 103q-109 66 -235 66q-27 0 -55 -3q-158 -17 -256 -121q-78 -86 -99 -192z" />
<glyph unicode="c" d="M0 1076q0 -198 128 -366t348 -266t480 -98q26 0 48 2l-2 -2q80 6 152 6t134 -5t115 -12t104 -20t90 -25t85 -30t77 -31t78 -33t77 -32q6 -1 12 -1q30 0 49 18q23 21 29 75q-238 136 -344 326q120 98 187 225t67 269q0 198 -128 365t-349 265t-481 98t-480 -98t-348 -265 t-128 -365z" />
<glyph unicode="f" d="M0 88v1840q0 50 60 74q32 13 64 13l56 -10q60 -21 60 -77v-120q84 -40 177 -67t170 -44t184 -20t171 -6q11 -1 23 -1q61 0 163 13q122 15 172 20t186 32t172 35t182 38l-240 -680l320 -520q-380 -68 -689 -92q-206 -16 -349 -16q-71 0 -127 4q-167 12 -281 35t-150 45 l-36 24h-48v-520q0 -54 -60 -83q-34 -16 -68 -16l-52 9q-60 22 -60 90z" />
<glyph unicode="g" d="M60 350h256v428h-86v1112h1198v-86h170v256h-1538v-1710zM402 8h1538v1710h-1538v-1710zM572 436v1112h1198v-1112h-1198z" />
<glyph unicode="i" d="M614 1214q184 0 226 -22q44 -18 44 -74q0 -22 -4 -42l-12 -58l-230 -650q-14 -82 -14 -134q0 -118 60 -170q60 -56 168 -56q138 0 388 80l6 76q-150 0 -216 24q-64 24 -64 100q0 24 10 68l252 754q8 40 8 78q0 98 -56 142q-52 46 -152 46q-146 0 -410 -90zM964 1786 q0 -94 58 -152q56 -58 148 -58q96 0 156 62t60 162q0 94 -56 152q-60 54 -150 54q-94 0 -156 -60q-60 -58 -60 -160z" />
<glyph unicode="k" d="M62 328q0 -130 92 -223t220 -93h782q130 0 222 93t92 223q194 0 331 139t137 336t-137 337t-331 140h-1408v-158v-2v-792zM492 1834q0 48 85 89t196 63t196 34t109 12q16 0 28 -12t12 -28t-12 -28t-28 -12q-90 0 -268 -39t-230 -75q44 -18 230 -44q178 -26 243 -48 t65 -70q0 -18 -7 -32t-25 -26t-33 -19t-48 -16t-53 -13t-62 -14q-140 -28 -162 -44q6 -16 43 -26t73 -10q16 0 28 -11t12 -27q0 -18 -12 -29t-28 -11q-78 0 -137 29t-59 89q0 18 7 32t25 26t33 19t48 16t53 13t62 12q118 26 148 38q-54 20 -226 42q-176 26 -241 48t-65 72z M1470 566v474q96 0 165 -69t69 -167t-69 -168t-165 -70z" />
<glyph unicode="l" d="M216 148v874q0 48 49 83t105 35h1264q56 0 103 -37t47 -87v-864q0 -54 -35 -92t-89 -38h-1314q-54 0 -92 37t-38 89zM504 1168v726q0 56 27 91t79 35h764q72 0 99 -33t27 -103v-716h-276v582h-438v-582h-282zM872 394l266 2v376h-266v-378z" />
<glyph unicode="m" d="M35 1069q49 -187 189 -325q186 -186 446 -210q37 -3 73 -3q217 0 397 123l640 -640q18 -17 44 -17q14 0 31 5q47 14 84 51t54 81q6 15 6 29q0 26 -21 49l-640 640q123 180 123 397q0 36 -3 73q-24 260 -210 446q-138 140 -325 189q-94 24 -187 24.5t-186 -24.5 q-186 -49 -326 -189t-189 -326q-24 -93 -24 -186t24 -187zM290 1256q0 184 131 315t315 131t315 -131t131 -315t-131 -315t-315 -131t-315 131t-131 315z" />
<glyph unicode="n" d="M6 630q0 -146 84 -240q38 -42 107 -71t133 -29h1410q104 0 179 75t75 181v894q0 26 -18 44t-44 18h-76q-4 98 -75 173t-185 75h-1398q-72 0 -131 -59t-61 -133v-928zM130 630v928q0 24 21 45t45 21t46 -21t22 -45v-930q0 -26 18 -45t44 -19t44 19t18 45v930q0 34 -14 68 h1222q18 -2 32 -4q2 0 10 -2q16 -6 17 -6t13 -6q8 -4 10 -8l12 -8l8 -6q4 -6 10 -14l4 -6q6 -10 8 -16l2 -4q4 -10 6 -20v-2q4 -10 4 -22h-1154q-26 0 -44 -18t-18 -44v-818q0 -24 -4 -42l-2 -12q-2 -12 -8 -28q0 -2 -3 -8l-5 -10q0 -2 -3 -8t-5 -8q-4 -6 -14 -18 q0 -2 -3 -6t-5 -6q-6 -8 -22 -20l-4 -4q-10 -6 -30 -16l-4 -2q-12 -6 -36 -12h-2q-22 -6 -42 -6h-8l-8 2q-28 2 -40 6q-4 0 -9 3t-7 3q-22 6 -30 12q-4 2 -11 7t-9 7l-7 5q-7 5 -9 9q-16 14 -26 36v2q-10 14 -16 34l-2 8q-4 18 -6 34q-4 24 -6 46zM576 416q18 24 30 52l2 2 q10 26 20 58q6 20 10 46q2 24 2 48v756h1230v-832q0 -54 -38 -92t-92 -40h-964zM770 580q0 -16 11 -27t27 -11h372q16 0 27 11t11 27t-11 28t-27 12h-372q-16 0 -27 -12t-11 -28zM770 728q0 -16 11 -28t27 -12h372q16 0 27 12t11 28t-11 28t-27 12h-372q-16 0 -27 -12 t-11 -28zM770 875q0 -17 11 -28t27 -11h372q16 0 27 11t11 28t-11 28t-27 11h-372q-16 0 -27 -11t-11 -28zM800 990h38v134h138v34h-138v92h160v34h-198v-294zM1018 1284l114 -294h40l114 294h-40l-78 -214q-10 -22 -16 -48q-6 24 -16 48l-76 214h-42zM1310 526h86 q-4 26 -4 48q2 98 84 120l10 2l-12 12q-20 28 -20 62q0 38 23 65t54 27t54 -27t23 -65q0 -34 -20 -62q-6 -8 -10 -12l10 -2q80 -22 82 -120q0 -18 -4 -48h90v396h-446v-396zM1320 990h38v230l154 -230h40v294h-38v-230l-154 230h-40v-294z" />
<glyph unicode="o" d="M10 146v868q0 48 49 82t105 34h1254q54 0 102 -36t48 -86v-856q0 -54 -35 -92t-89 -38h-1304q-54 0 -92 36t-38 88zM662 392l264 2v372h-264v-374zM1002 1158v722q0 54 26 89t78 35h758q70 0 98 -32t28 -102v-430h-276v296h-436v-578h-276z" />
<glyph unicode="p" d="M154 1560q0 -40 6 -68q88 -446 341 -811t681 -677q104 2 209 15t208 50t133 91q-78 118 -196 275t-196 273q-82 -26 -125 -57t-111 -99q-100 84 -171 152t-146 159t-133 199t-100 234q86 58 180 141t134 135l-314 470q-106 -38 -227 -131t-167 -183q0 -26 -3 -77t-3 -91z M318 1728q66 90 196 156l66 -94q-34 0 -70 -15t-52 -24t-62 -42t-52 -35zM1114 418q60 86 198 158l66 -102q-98 -102 -236 -118z" />
<glyph unicode="r" d="M72 234q0 -106 75 -181t181 -75t181 75t75 181t-75 181t-181 75t-181 -75t-75 -181zM166 884q222 -6 409 -120t295 -305t108 -415v-38h332v38q0 234 -90 449t-244 371t-366 251t-444 101v-332zM166 1500q292 -4 557 -121t456 -312t304 -462t113 -561v-38h330q2 20 2 38 q0 240 -64 470t-177 425t-276 360t-356 281t-421 182t-468 70v-332z" />
<glyph unicode="s" d="M4 544q0 -64 45 -110t109 -46h688v-232h-76q-32 0 -54 -23t-22 -55h612q0 32 -22 55t-54 23h-76v232h688q64 0 109 46t45 110v1238q0 64 -45 110t-109 46h-1684q-64 0 -109 -46t-45 -110v-1238zM138 742v1062h1724v-1062h-1724z" />
<glyph unicode="t" d="M62 796q162 -198 426 -288q163 -46 327 -46l281 34h2q294 72 500 298q94 118 118 224h14q143 0 208 76l-2 2q-19 -6 -53 -6q-55 0 -147 16v10h2q162 14 192 88q-58 -19 -115 -19l-109 17q-20 130 -144 238l-4 4q-101 80 -233 80h-13l-4 4l2 2q130 24 152 52q8 24 -20 26 q-66 -8 -118 -24q58 36 52 50q-66 -2 -142 -58q28 40 20 44q-32 -20 -62 -46q-56 -54 -92 -100l-2 -2q-88 -124 -126 -254l-10 -6l-2 -2q-54 60 -132 98q-86 48 -216 98q-136 60 -274 100q-2 -134 150 -212v-2h-13q-45 0 -89 -12q8 -122 204 -172h-12q-68 0 -114 -44 q60 -104 214 -104h12q-34 -14 -48 -30q-22 -20 -22 -46q0 -8 2 -18q32 -50 114 -50h12l4 -4l-2 -2q-145 -127 -347 -127q-20 0 -41 1l-2 -2q-138 0 -298 114z" />
<glyph unicode="u" d="M48 1104h560v-1096h784v1094h560l-952 946z" />
<glyph unicode="v" d="M0 170q0 -68 49 -117t117 -49h1668q68 0 117 49t49 117v1168q0 68 -49 117t-117 49h-710l280 336l5 -1q5 -1 7 -1q36 0 60 24t24 58t-25 59t-59 25t-58 -24t-24 -60q0 -12 6 -28l-326 -388h-28l-324 388q4 16 4 28q0 36 -24 60t-58 24q-36 0 -60 -25t-24 -59t24 -58 t60 -24q2 0 6 1t6 1l280 -336h-710q-68 0 -117 -49t-49 -117v-1168zM166 338v832q0 70 49 119t119 49h1000q68 0 117 -49t49 -119v-832q0 -70 -49 -119t-117 -49h-1000q-70 0 -119 49t-49 119zM1584 754q0 68 48 117t118 49t118 -48t48 -118t-48 -118t-118 -48t-118 49 t-48 117zM1584 1170q0 70 48 119t118 49t118 -49t48 -119q0 -68 -48 -117t-118 -49t-118 49t-48 117z" />
<glyph unicode="x" d="M76 1550l396 396l1452 -1452l-396 -396zM94 512l1416 1414l396 -396l-1416 -1414z" />
<glyph unicode="|" d="M170 1508q0 -74 53 -127t128 -53t128 53t53 127t-53 127t-128 53t-128 -53t-53 -127zM178 124h1636v84h-1636v-84zM844 662q2 -4 4 -10t14 -22t29 -29t47 -23t66 -10q116 0 146 84l2 10l-84 626h-138zM1466 1508q0 -74 53 -127t128 -53t128 53t53 127t-53 127t-128 53 t-128 -53t-53 -127z" />
<glyph unicode="&#xe000;" horiz-adv-x="1945" d="M0 1945h1945v-1945h-1945v1945z" />
</font>
</defs>
</svg>
